<?xml version="1.0" encoding="UTF-8" standalone="no"?>
<svg
   xmlns:dc="http://purl.org/dc/elements/1.1/"
   xmlns:cc="http://creativecommons.org/ns#"
   xmlns:rdf="http://www.w3.org/1999/02/22-rdf-syntax-ns#"
   xmlns:svg="http://www.w3.org/2000/svg"
   xmlns="http://www.w3.org/2000/svg"
   xmlns:sodipodi="http://sodipodi.sourceforge.net/DTD/sodipodi-0.dtd"
   xmlns:inkscape="http://www.inkscape.org/namespaces/inkscape"
   version="1.1"
   id="svg2"
   xml:space="preserve"
   width="793.70667"
   height="673.90668"
   viewBox="0 0 793.70667 673.90668"
   sodipodi:docname="rule_lines.eps"><metadata
     id="metadata8"><rdf:RDF><cc:Work
         rdf:about=""><dc:format>image/svg+xml</dc:format><dc:type
           rdf:resource="http://purl.org/dc/dcmitype/StillImage" /></cc:Work></rdf:RDF></metadata><defs
     id="defs6"><linearGradient
       x1="0"
       y1="0"
       x2="1"
       y2="0"
       gradientUnits="userSpaceOnUse"
       gradientTransform="matrix(5952.81,0,0,-5952.81,0,2527.14)"
       spreadMethod="pad"
       id="linearGradient22"><stop
         style="stop-opacity:1;stop-color:#dab89c"
         offset="0"
         id="stop14" /><stop
         style="stop-opacity:1;stop-color:#dab89c"
         offset="0.00561798"
         id="stop16" /><stop
         style="stop-opacity:1;stop-color:#ddd3bd"
         offset="0.511236"
         id="stop18" /><stop
         style="stop-opacity:1;stop-color:#dab89c"
         offset="1"
         id="stop20" /></linearGradient></defs><sodipodi:namedview
     pagecolor="#ffffff"
     bordercolor="#666666"
     borderopacity="1"
     objecttolerance="10"
     gridtolerance="10"
     guidetolerance="10"
     inkscape:pageopacity="0"
     inkscape:pageshadow="2"
     inkscape:window-width="640"
     inkscape:window-height="480"
     id="namedview4" /><g
     id="g10"
     inkscape:groupmode="layer"
     inkscape:label="ink_ext_XXXXXX"
     transform="matrix(1.3333333,0,0,-1.3333333,0,673.90667)"><g
       id="g12"
       transform="scale(0.1)"><path
         d="M 0,0 H 5953 V 5054 H 0 Z"
         style="fill:url(#linearGradient22);fill-opacity:1;fill-rule:nonzero;stroke:none"
         id="path24" /><path
         d="m 1608.52,2566.03 c -0.15,8.63 -3.89,18.26 -10.21,26.76 -6.33,-8.5 -10.07,-18.27 -10.21,-27.05 -0.3,-24.31 20.85,-23.88 20.42,0.29 z m -381.01,-31.94 c 11.22,-1.44 23.16,-2.44 35.96,-3.02 79.83,-2.88 137.78,33.94 192.3,63.15 17.7,9.49 37.25,18.99 57.53,24.74 -108.15,46.16 -191.43,-70.77 -285.79,-84.87 z m -253.854,83 c 30.494,2.29 63.574,-3.74 104.274,-27.47 26.32,-15.4 57.1,-33.36 99.24,-45.31 20.86,-3.45 42.86,0.85 65.74,9.2 -85.59,-5.74 -119.52,94.64 -269.254,63.58 z m 1042.754,-73.64 c 43.88,11.94 75.38,30.35 102.42,46.17 43.58,25.44 78.38,30.63 110.75,26.88 -152.18,32.96 -185.98,-68.73 -272.13,-62.99 20.43,-7.48 40.12,-11.79 58.96,-10.06 z m -330.8,74.94 c 19.41,-5.91 38.26,-14.96 55.23,-24.17 54.66,-29.21 112.48,-66.03 192.3,-63.15 13.52,0.58 26.18,1.58 37.97,3.31 -94.06,15.25 -177.34,131.46 -285.5,84.01 z m -106.29,-38.69 c 1.44,8.19 5.32,15.81 10.5,22.29 -6.47,5.76 -14.23,10.07 -22.72,12.22 -44.01,10.78 -73.79,-6.77 -111.33,-26.88 -54.52,-29.21 -112.47,-72.06 -192.3,-69.2 -91.47,3.46 -145.12,31.78 -186.83,56.09 -122.113,71.49 -174.613,-19.55 -294.855,-15.1 -108.015,-4.3 -203.371,64.16 -341.16,63.86 -22.582,-1.71 -43.148,-2.88 -65.434,-7.2 -14.394,-2.73 -23.882,-0.99 -21.011,3.18 184.961,36.96 298.011,-46.75 427.605,-41.71 60.703,-2.31 104.422,18.98 148.574,31.63 199.641,73.35 224.811,-61.56 328.801,-48.76 83.13,36.26 176.9,113.21 272.7,63.16 17.11,2.73 34.38,2.29 51.2,-3.6 5.46,-2.01 10.65,-5.04 15.25,-8.79 4.6,3.75 9.78,6.78 15.39,8.79 17.55,6.18 35.81,6.33 53.94,3.01 95.93,51.05 190.13,-26.16 273.41,-62.57 106.58,-13.07 130.31,128.44 342.89,43.31 v 0 c 38.41,-12.39 78.38,-28.19 131.03,-26.18 129.45,-5.04 242.5,78.67 427.6,41.71 2.88,-4.17 -6.61,-5.91 -20.99,-3.18 -22.3,4.32 -42.72,5.49 -65.45,7.2 -137.79,0.3 -233.29,-68.16 -341.16,-63.86 -120.39,-4.45 -172.89,86.59 -294.99,15.1 -41.57,-24.31 -95.37,-52.63 -186.84,-56.09 -79.82,-2.86 -137.64,39.99 -192.3,69.2 -37.54,20.11 -67.16,37.66 -111.18,26.88 -8.63,-2.15 -16.4,-6.46 -22.87,-12.22 5.18,-6.48 9.21,-14.1 10.5,-22.29 6.04,-34.38 -7.48,-51.51 -20.28,-50.64 -11.94,0.72 -23.45,17.41 -17.69,50.64 v 0"
         style="fill:#362117;fill-opacity:1;fill-rule:evenodd;stroke:none"
         id="path26" /><path
         d="m 4372.12,3030.63 c 101.84,0 193.45,14.24 255.44,36.82 l 18.54,-5.32 c -61.26,-26.75 -161.36,-44.15 -273.98,-44.15 -111.33,0 -210.28,16.97 -271.84,43.3 l 17.55,5.75 c 61.99,-22.31 153.02,-36.4 254.29,-36.4 z m 0,116.5 c 101.84,0 193.45,-14.23 255.44,-36.81 l 18.54,5.32 c -61.26,26.75 -161.36,44.16 -273.98,44.16 -111.33,0 -210.28,-16.98 -271.84,-43.29 l 17.55,-5.76 c 61.99,22.28 153.02,36.38 254.29,36.38 v 0"
         style="fill:#362117;fill-opacity:1;fill-rule:evenodd;stroke:none"
         id="path28" /><path
         d="m 5599.26,3088.89 c -221.19,-34.09 -350.22,-21 -450.32,0 100.1,20.99 229.13,34.08 450.32,0 z m -956.89,0 c 64.57,14.25 127.43,29.76 187.55,41.26 109.16,5.91 179.93,-19.4 269.25,-41.26 -89.32,-21.86 -160.09,-47.18 -269.25,-41.29 -60.12,11.51 -122.98,27.05 -187.55,41.29 z m -997.45,0 c 89.32,21.86 160.09,47.17 269.25,41.26 60.27,-11.5 122.97,-27.01 187.55,-41.26 -64.58,-14.24 -127.28,-29.78 -187.55,-41.29 -109.16,-5.89 -179.93,19.43 -269.25,41.29 z m -49.76,0 c -100.11,-21 -229.12,-34.09 -450.05,0 220.93,34.08 349.94,20.99 450.05,0 z m 541.22,7.47 c -138.51,33.52 -317,80.84 -448.6,44.59 59.1,10.5 122.54,6.47 189.28,-4.32 -99.09,2.88 -167.69,-21.55 -256.3,-42.13 -104.72,23.58 -239.19,38.83 -484.27,-4.03 l -9.35,-1.73 9.35,-1.44 c 245.08,-42.84 379.55,-27.61 484.27,-4.16 88.61,-20.42 157.21,-44.88 256.3,-42.01 -66.74,-10.79 -130.18,-14.82 -189.28,-4.31 131.6,-36.24 310.09,11.08 448.73,44.58 166.86,-39.56 304.35,-39.41 471.2,0 138.65,-33.65 317.14,-80.82 448.61,-44.58 -58.99,-10.51 -122.4,-6.48 -189.29,4.31 99.24,-2.87 167.85,21.59 256.45,42.01 104.7,-23.45 239.19,-38.68 484.41,4.16 l 8.79,1.44 -8.79,1.73 c -245.37,42.86 -379.85,27.61 -484.55,4.03 -88.6,20.58 -157.07,45.01 -256.31,42.13 66.89,10.79 130.3,14.82 189.29,4.32 -131.47,36.25 -309.96,-11.07 -448.48,-44.59 -166.98,39.7 -304.64,39.42 -471.46,0 z m 31.21,-7.47 c 139.67,28.76 269.24,28.61 408.9,0 -139.8,-27.76 -269.1,-27.91 -408.9,0 v 0"
         style="fill:#362117;fill-opacity:1;fill-rule:evenodd;stroke:none"
         id="path30" /><path
         d="m 4371.83,2092.73 c 15.97,0 29.34,-5.6 32.08,-12.8 h 26.46 c 1.29,7.2 7.76,12.8 15.39,12.8 7.62,0 13.95,-5.6 15.24,-12.8 h 20.27 c 18.55,3.45 34.39,10.36 46.89,21.73 190.73,-4.05 381.59,-8.21 572.46,-12.22 l 516.06,-11.08 v -2.44 l -516.06,-10.95 -572.46,-12.36 c -13.65,12.81 -29.62,18.83 -46.44,21.86 H 4461 c -1.29,-7.34 -7.62,-12.8 -15.24,-12.8 -7.63,0 -14.1,5.46 -15.39,12.8 h -26.46 c -2.74,-7.34 -16.11,-12.8 -32.08,-12.8 -15.96,0 -29.34,5.46 -31.93,12.8 h -26.61 c -1.3,-7.34 -7.62,-12.8 -15.23,-12.8 -7.64,0 -14.1,5.46 -15.4,12.8 h -20.58 c -16.96,-3.03 -32.79,-9.05 -46.46,-21.86 l -572.57,12.36 -515.91,10.95 v 2.44 l 515.91,11.08 c 190.86,4.01 381.72,8.17 572.57,12.22 12.38,-11.37 28.34,-18.28 46.74,-21.73 h 20.3 c 1.3,7.2 7.76,12.8 15.4,12.8 7.61,0 13.93,-5.6 15.23,-12.8 h 26.47 c 2.73,7.2 16.11,12.8 32.07,12.8"
         style="fill:#362117;fill-opacity:1;fill-rule:evenodd;stroke:none"
         id="path32" /><path
         d="m 4172.47,3576.72 c 93.8,-13.53 164.69,-32.36 199.36,-54.22 34.8,21.86 105.57,40.69 199.49,54.22 -94.64,-17.85 -166.12,-44.74 -199.49,-76.23 -33.24,31.49 -104.84,58.38 -199.36,76.23 z m 398.7,36.1 c -93.77,13.53 -164.69,32.5 -199.34,54.22 -34.67,-21.72 -105.43,-40.69 -199.21,-54.22 94.51,17.97 165.97,44.87 199.21,76.22 33.22,-31.35 104.85,-58.25 199.34,-76.22 z m 90.19,-15.25 c -138.65,10.06 -246.39,30.78 -289.53,56.39 -43.17,-25.61 -150.87,-46.33 -289.39,-56.39 -192.44,4.61 -339.57,12.66 -402.86,22.44 -78.81,-12.08 -288.09,-21.58 -552.44,-25.18 264.35,-3.59 473.63,-13.08 552.44,-25.16 63.29,9.62 210.42,17.69 402.71,22.29 138.67,-9.92 246.37,-30.78 289.54,-56.39 43.3,25.61 151.01,46.47 289.67,56.39 192.16,-4.6 339.44,-12.67 402.73,-22.29 78.82,12.08 287.94,21.57 552.45,25.16 -264.51,3.6 -473.63,13.1 -552.59,25.18 -63.15,-9.78 -210.43,-17.83 -402.73,-22.44 v 0"
         style="fill:#362117;fill-opacity:1;fill-rule:evenodd;stroke:none"
         id="path34" /><path
         d="m 1945.51,3577.17 c -197.33,-8.49 -353.25,-30.64 -412.07,-58.83 -58.83,28.19 -214.89,50.34 -412.22,58.83 197.33,8.34 353.39,30.63 412.08,58.82 58.82,-28.19 214.88,-50.48 412.21,-58.82 z m -192.73,0 c -73.93,-3.18 -132.46,-11.51 -154.47,-22.01 -22.01,10.5 -80.55,18.83 -154.33,22.01 73.92,3.15 132.32,11.5 154.33,22.01 22.01,-10.51 80.54,-18.86 154.47,-22.01 z m -543.96,45.88 c 12.07,-5.76 29.2,-11.08 50.77,-16.1 -60.98,-14.24 -157.35,-25.04 -271.266,-29.78 113.916,-4.89 210.286,-15.68 271.266,-29.77 -21.57,-5.04 -38.7,-10.5 -50.77,-16.26 -134.05,64.14 -331.816,34.81 -494.625,38.27 l -360.586,7.76 360.586,7.62 c 164.676,3.6 360.425,-25.88 494.625,38.26 z m 778.98,0 c 134.19,-64.14 330.08,-34.66 494.63,-38.26 l 360.72,-7.62 -360.72,-7.76 c -162.68,-3.46 -360.44,25.87 -494.63,-38.27 -11.94,5.76 -29.2,11.22 -50.77,16.26 61.12,14.09 157.35,24.88 271.26,29.77 -113.91,4.74 -210.14,15.54 -271.26,29.78 21.57,5.02 38.83,10.34 50.77,16.1 z m 87.59,-45.88 c -197.33,8.34 -353.25,30.63 -412.07,58.82 -58.83,-28.19 -214.88,-50.48 -412.07,-58.82 197.19,-8.49 353.24,-30.64 412.07,-58.83 58.82,28.19 214.88,50.34 412.07,58.83 v 0"
         style="fill:#362117;fill-opacity:1;fill-rule:evenodd;stroke:none"
         id="path36" /><path
         d="m 1805.42,3019.48 c -143.26,16.12 -263.78,16.41 -414.08,-1.71 -5.91,-0.57 -5.47,-5.47 0,-5.18 147.71,13.37 268.24,13.23 414.08,1.15 4.31,-0.13 4.75,5.17 0,5.74 z m 206.83,7.06 c 3.59,-0.13 4.31,-4.03 0,-4.18 -35.81,1.89 -71.2,4.62 -105.86,8.22 -213.45,22.71 -380.14,24.02 -593.45,0.57 -41.99,-4.61 -84.99,-7.77 -128.57,-9.78 -3.75,-0.15 -4.17,3.87 0,4.17 43.72,2.16 86.72,6.03 128.57,12.22 217.33,31.78 383.89,29.91 593.45,-0.58 34.52,-5.02 70.05,-8.34 105.86,-10.64 z M 2230,3044.8 c 5.46,-0.28 6.48,-6.61 0,-6.91 -54.5,3.03 -108.58,7.5 -161.37,13.68 -325.92,37.83 -580.35,39.97 -905.69,0.87 -64.15,-7.77 -129.88,-12.95 -196.331,-16.26 -5.757,-0.29 -6.476,6.62 0,7.06 66.731,3.44 132.331,9.92 196.331,20.11 331.52,53.22 585.66,49.93 905.69,-0.72 52.64,-8.33 106.72,-14.09 161.37,-17.83 z m 605.53,39.69 c 10.35,1.31 9.92,12.67 0,12.39 -247.97,-20.73 -521.1,-40.99 -766.9,2.58 -320.03,56.67 -574.17,60.27 -905.69,0.86 -256.741,-46.02 -542.381,-22.72 -801.42,-1.85 -10.364,0.27 -10.5,-12.67 0,-13.98 259.039,-20.84 542.949,-31.2 801.42,3.6 325.34,43.74 579.77,41.29 905.69,-0.99 247.53,-32.08 518.93,-23.3 766.9,-2.61 v 0"
         style="fill:#362117;fill-opacity:1;fill-rule:evenodd;stroke:none"
         id="path38" /><path
         d="m 418.328,594.641 c 6.906,0 12.371,-5.61 12.371,-12.36 0,-6.769 -5.465,-12.379 -12.371,-12.379 -6.762,0 -12.215,5.61 -12.215,12.379 0,6.75 5.453,12.36 12.215,12.36 z m 0,-2.301 c 5.61,0 10.07,-4.449 10.07,-10.059 0,-0.582 0,-1.011 0,-1.429 -0.718,4.878 -4.886,8.75 -10.07,8.75 -5.027,0 -9.207,-3.872 -9.926,-8.75 -0.144,0.418 -0.144,0.847 -0.144,1.429 0,5.61 4.609,10.059 10.07,10.059 z m -46.023,8.621 c 10.355,0 18.695,-8.34 18.695,-18.68 0,-10.379 -8.34,-18.711 -18.695,-18.711 -10.203,0 -18.696,8.332 -18.696,18.711 0,10.34 8.493,18.68 18.696,18.68 z m 0,-3.441 c 8.492,0 15.39,-6.75 15.39,-15.239 0,-0.722 -0.144,-1.429 -0.144,-2.16 -1.008,7.481 -7.477,13.231 -15.246,13.231 -7.621,0 -14.09,-5.75 -15.102,-13.231 -0.14,0.731 -0.14,1.438 -0.14,2.16 0,8.489 6.902,15.239 15.242,15.239 z m 2406.125,-2.879 c 6.76,0 12.37,-5.61 12.37,-12.36 0,-6.769 -5.61,-12.379 -12.37,-12.379 -6.77,0 -12.38,5.61 -12.38,12.379 0,6.75 5.61,12.36 12.38,12.36 z m 0,-2.301 c 5.6,0 10.06,-4.449 10.06,-10.059 0,-0.582 0,-1.011 0,-1.429 -0.72,4.878 -5.03,8.75 -10.06,8.75 -5.03,0 -9.35,-3.872 -10.07,-8.75 0,0.418 0,0.847 0,1.429 0,5.61 4.46,10.059 10.07,10.059 z m 46.02,8.621 c 10.36,0 18.7,-8.34 18.7,-18.68 0,-10.379 -8.34,-18.711 -18.7,-18.711 -10.21,0 -18.7,8.332 -18.7,18.711 0,10.34 8.49,18.68 18.7,18.68 z m 0,-3.441 c -8.49,0 -15.24,-6.75 -15.24,-15.239 0,-0.722 0,-1.429 0.14,-2.16 1.01,7.481 7.33,13.231 15.1,13.231 7.77,0 14.1,-5.75 15.25,-13.231 0,0.731 0.14,1.438 0.14,2.16 0,8.489 -6.91,15.239 -15.39,15.239 z m -1226.14,15.531 c 16.97,0 30.78,-13.789 30.78,-30.77 0,-1.429 -0.14,-2.879 -0.29,-4.312 -2.16,14.972 -14.96,26.594 -30.49,26.594 -15.54,0 -28.33,-11.622 -30.49,-26.594 -0.15,1.433 -0.3,2.883 -0.3,4.312 0,16.981 13.81,30.77 30.79,30.77 z m 0,6.762 c 20.71,0 37.53,-16.813 37.53,-37.532 0,-20.722 -16.82,-37.539 -37.53,-37.539 -20.58,0 -37.4,16.817 -37.4,37.539 0,20.719 16.82,37.532 37.4,37.532 z m 373.09,-26.872 c 5.9,0 10.64,-4.781 10.64,-10.66 0,-0.582 0,-1.011 0,-1.429 -0.72,5.16 -5.17,9.05 -10.64,9.05 -5.33,0 -9.78,-3.89 -10.5,-9.05 0,0.418 0,0.847 0,1.429 0,5.879 4.74,10.66 10.5,10.66 z m 0,2.27 c 7.19,0 13.09,-5.75 13.09,-12.93 0,-7.191 -5.9,-12.961 -13.09,-12.961 -7.05,0 -12.95,5.77 -12.95,12.961 0,7.18 5.9,12.93 12.95,12.93 z m -55.23,2.309 c 8.48,0 15.25,-6.75 15.25,-15.239 0,-0.722 0,-1.429 0,-2.16 -1.16,7.481 -7.48,13.231 -15.25,13.231 -7.77,0 -14.09,-5.75 -15.25,-13.231 0,0.731 -0.14,1.438 -0.14,2.16 0,8.489 6.9,15.239 15.39,15.239 z m 0,3.441 c 10.35,0 18.7,-8.34 18.7,-18.68 0,-10.379 -8.35,-18.711 -18.7,-18.711 -10.36,0 -18.69,8.332 -18.69,18.711 0,10.34 8.33,18.68 18.69,18.68 z m -65.01,0.73 c 10.79,0 19.56,-8.632 19.56,-19.41 0,-1.011 -0.14,-1.89 -0.14,-2.742 -1.44,9.492 -9.5,16.84 -19.42,16.84 -9.78,0 -17.98,-7.348 -19.28,-16.84 -0.14,0.852 -0.14,1.731 -0.14,2.742 0,10.778 8.78,19.41 19.42,19.41 z m 0,4.301 c 13.09,0 23.73,-10.633 23.73,-23.711 0,-13.101 -10.64,-23.75 -23.73,-23.75 -13.09,0 -23.73,10.649 -23.73,23.75 0,13.078 10.64,23.711 23.73,23.711 z m -77.38,0.321 c 13.09,0 23.88,-10.801 23.88,-24.032 0,-1.172 0,-2.301 -0.16,-3.312 -1.72,11.64 -11.78,20.551 -23.72,20.551 -12.09,0 -22.15,-8.911 -23.88,-20.551 -0.14,1.011 -0.14,2.14 -0.14,3.312 0,13.231 10.79,24.032 24.02,24.032 z m 0,5.156 c 16.11,0 29.19,-13.078 29.19,-29.188 0,-16.121 -13.08,-29.211 -29.19,-29.211 -16.11,0 -29.34,13.09 -29.34,29.211 0,16.11 13.23,29.188 29.34,29.188 z m -82.98,-2.438 c 14.81,0 26.74,-11.929 26.74,-26.75 0,-1.301 0,-2.449 -0.14,-3.742 -1.87,13.082 -13.09,23.152 -26.6,23.152 -13.53,0 -24.75,-10.07 -26.48,-23.152 -0.15,1.293 -0.28,2.441 -0.28,3.742 0,14.821 12.08,26.75 26.76,26.75 z m 0,5.899 c 17.97,0 32.64,-14.688 32.64,-32.649 0,-17.992 -14.67,-32.652 -32.64,-32.652 -17.99,0 -32.67,14.66 -32.67,32.652 0,17.961 14.68,32.649 32.67,32.649 z m -465.59,-21.989 c 5.9,0 10.65,-4.781 10.65,-10.66 0,-0.582 0,-1.011 -0.15,-1.429 -0.71,5.16 -5.17,9.05 -10.5,9.05 -5.32,0 -9.78,-3.89 -10.5,-9.05 -0.14,0.418 -0.14,0.847 -0.14,1.429 0,5.879 4.75,10.66 10.64,10.66 z m 0,2.27 c 7.05,0 12.95,-5.75 12.95,-12.93 0,-7.191 -5.9,-12.961 -12.95,-12.961 -7.19,0 -12.94,5.77 -12.94,12.961 0,7.18 5.75,12.93 12.94,12.93 z m 55.23,2.309 c 8.49,0 15.39,-6.75 15.39,-15.239 0,-0.722 0,-1.429 -0.14,-2.16 -1.01,7.481 -7.48,13.231 -15.25,13.231 -7.62,0 -14.09,-5.75 -15.1,-13.231 -0.14,0.731 -0.14,1.438 -0.14,2.16 0,8.489 6.9,15.239 15.24,15.239 z m 0,3.441 c 10.36,0 18.7,-8.34 18.7,-18.68 0,-10.379 -8.34,-18.711 -18.7,-18.711 -10.21,0 -18.55,8.332 -18.55,18.711 0,10.34 8.34,18.68 18.55,18.68 z m 65.01,0.73 c 10.79,0 19.57,-8.632 19.57,-19.41 0,-1.011 -0.15,-1.89 -0.29,-2.742 -1.29,9.492 -9.5,16.84 -19.28,16.84 -9.78,0 -17.98,-7.348 -19.27,-16.84 -0.14,0.852 -0.14,1.731 -0.14,2.742 0,10.778 8.63,19.41 19.41,19.41 z m 0,4.301 c 13.09,0 23.73,-10.633 23.73,-23.711 0,-13.101 -10.64,-23.75 -23.73,-23.75 -13.09,0 -23.73,10.649 -23.73,23.75 0,13.078 10.64,23.711 23.73,23.711 z m 77.53,0.321 c 13.23,0 23.87,-10.801 23.87,-24.032 0,-1.172 0,-2.301 -0.14,-3.312 -1.58,11.64 -11.65,20.551 -23.73,20.551 -12.08,0 -22.15,-8.911 -23.73,-20.551 -0.14,1.011 -0.29,2.14 -0.29,3.312 0,13.231 10.79,24.032 24.02,24.032 z m 0,5.156 c 16.11,0 29.19,-13.078 29.19,-29.188 0,-16.121 -13.08,-29.211 -29.19,-29.211 -16.11,0 -29.2,13.09 -29.2,29.211 0,16.11 13.09,29.188 29.2,29.188 z m 82.84,-2.438 c 14.82,0 26.75,-11.929 26.75,-26.75 0,-1.301 0,-2.449 -0.28,-3.742 -1.72,13.082 -12.94,23.152 -26.47,23.152 -13.52,0 -24.73,-10.07 -26.46,-23.152 -0.15,1.293 -0.29,2.441 -0.29,3.742 0,14.821 11.94,26.75 26.75,26.75 z m 0,5.899 c 17.98,0 32.66,-14.688 32.66,-32.649 0,-17.992 -14.68,-32.652 -32.66,-32.652 -17.98,0 -32.65,14.66 -32.65,32.652 0,17.961 14.67,32.649 32.65,32.649 z m 1290.16,-53.649 c 9.92,-1.011 9.34,-10.519 0,-10.211 -240.06,17.121 -504.55,33.942 -742.45,-2.16 -309.81,-46.898 -555.76,-49.918 -876.65,-0.719 -248.388,37.961 -524.97,18.829 -775.81,1.579 -9.925,-0.29 -10.07,10.5 0,11.511 250.84,17.258 525.7,25.891 775.81,-2.879 314.85,-36.242 561.23,-34.093 876.65,0.719 239.62,26.461 502.39,19.27 742.45,2.16 z m 0,42 c 9.92,1 9.49,10.489 0,10.199 -240.06,-17.101 -504.55,-33.941 -742.45,2.161 -309.81,46.73 -555.76,49.769 -876.65,0.718 -248.388,-38.109 -524.97,-18.839 -775.665,-1.578 -10.07,0.289 -10.215,-10.5 0,-11.5 250.695,-17.269 525.555,-25.89 775.665,2.879 314.99,36.242 561.23,34.219 876.65,-0.719 239.62,-26.609 502.39,-19.289 742.45,-2.16 v 0"
         style="fill:#362117;fill-opacity:1;fill-rule:evenodd;stroke:none"
         id="path40" /><path
         d="m 1129.57,1605.46 c 5.61,5.47 9.34,13.5 9.49,25.59 0.14,9.06 -3.02,16.56 -7.91,18.4 -5.9,2.16 -14.1,-6.74 -12.52,-21.7 1.01,-8.92 4.76,-16.26 10.65,-22.16 0.14,0 0.29,-0.13 0.29,-0.13 z m -751.937,10.49 c -12.668,0.59 -11.945,20.43 0,17.97 168.558,-25.02 241.629,34.82 360.719,32.94 87.015,-1.72 171.878,-47.9 256.16,-67.01 13.378,-3.02 71.758,-17.13 109.448,-6.92 8.2,2.31 16.69,5.05 23.31,10.37 v 0 c -6.76,6.45 -11.51,14.08 -13.24,22.86 -2.44,12.23 0.72,22.88 5.76,28.49 6.9,7.61 14.38,5.46 18.84,-1.29 3.88,-5.63 5.32,-14.68 4.89,-22.31 -0.58,-9.48 -3.89,-19.85 -8.63,-26.9 -0.57,-0.71 -1.01,-1.44 -1.44,-2 v 0 c 10.93,-8.65 27.04,-13.95 45.89,-18.13 99.95,-21.58 192.29,44.74 289.23,62.3 28.62,5.14 87.3,6.02 126.57,-17.86 31.93,-19.42 53.94,-64.85 18.56,-100.54 -33.66,-34.08 -82.27,-38.11 -121.4,-30.49 -27.75,5.34 -55.37,23.74 -59.97,48.34 -4.18,22.27 7.19,37.24 22.44,46.75 35.37,21.86 84.85,15.52 115.64,-17.28 5.32,-8.9 -1.45,-13.52 -7.49,-7.04 -21,22.31 -52.92,32.35 -81.26,27.2 -14.53,-2.75 -41.56,-11.11 -41.42,-37.98 0,-24.31 23.3,-38.56 49.9,-45.19 24.45,-6.01 51.64,-6.73 76.1,-1.7 14.95,3.01 29.62,8.62 42.28,21.29 31.06,31.07 10.64,75.21 -18.56,90.89 -36.82,20 -92.62,12.37 -121.39,7.62 -96.94,-16.1 -189.28,-71.34 -289.23,-50.2 -18.99,3.89 -35.82,10.38 -47.76,19.57 h -0.14 c -8.64,-9.79 -21,-15.1 -30.35,-17.68 -37.68,-10.23 -96.08,3.87 -109.457,6.9 -84.426,19.12 -166.266,69.59 -253.281,71.33 -119.09,1.87 -192.161,-69.33 -360.719,-44.3 v 0"
         style="fill:#362117;fill-opacity:1;fill-rule:evenodd;stroke:none"
         id="path42" /><path
         d="m 2096.53,1605.46 c -5.61,5.47 -9.34,13.5 -9.49,25.59 -0.14,9.06 3.02,16.56 8.05,18.4 5.91,2.16 13.95,-6.74 12.37,-21.7 -1,-8.92 -4.74,-16.26 -10.64,-22.16 -0.15,0 -0.15,-0.13 -0.29,-0.13 z m 752.09,10.49 c 12.65,0.59 11.93,20.43 0,17.97 -168.72,-25.02 -241.78,34.82 -360.88,32.94 -86.87,-1.72 -171.73,-47.9 -256.01,-67.01 -13.52,-3.02 -71.91,-17.13 -109.6,-6.92 -8.2,2.31 -16.68,5.05 -23.3,10.37 v 0 c 6.77,6.45 11.51,14.08 13.24,22.86 2.44,12.23 -0.73,22.88 -5.76,28.49 -6.9,7.61 -14.38,5.46 -18.84,-1.29 -3.89,-5.63 -5.32,-14.68 -4.89,-22.31 0.57,-9.48 3.88,-19.85 8.63,-26.9 0.58,-0.71 1.01,-1.44 1.58,-2 v 0 c -11.07,-8.65 -27.18,-13.95 -46.02,-18.13 -99.97,-21.58 -192.3,44.74 -289.25,62.3 -28.61,5.14 -87.3,6.02 -126.57,-17.86 -31.78,-19.42 -53.92,-64.85 -18.55,-100.54 33.66,-34.08 82.28,-38.11 121.54,-30.49 27.61,5.34 55.23,23.74 59.83,48.34 4.17,22.27 -7.19,37.24 -22.43,46.75 -35.39,21.86 -84.72,15.52 -115.65,-17.28 -5.32,-8.9 1.44,-13.52 7.63,-7.04 21,22.31 52.78,32.35 81.12,27.2 14.67,-2.75 41.57,-11.11 41.57,-37.98 -0.15,-24.31 -23.45,-38.56 -50.06,-45.19 -24.45,-6.01 -51.63,-6.73 -76.08,-1.7 -14.97,3.01 -29.64,8.62 -42.29,21.29 -30.92,31.07 -10.5,75.21 18.56,90.89 36.96,20 92.61,12.37 121.38,7.62 97.08,-16.1 189.28,-71.34 289.25,-50.2 18.98,3.89 35.81,10.38 47.89,19.57 v 0 c 8.64,-9.79 21,-15.1 30.35,-17.68 37.68,-10.23 96.08,3.87 109.59,6.9 84.29,19.12 166.27,69.59 253.14,71.33 119.1,1.87 192.16,-69.33 360.88,-44.3 v 0"
         style="fill:#362117;fill-opacity:1;fill-rule:evenodd;stroke:none"
         id="path44" /><path
         d="m 4615.2,1596.72 c 4.01,0.85 9.05,0.85 13.06,0.26 12.8,-2.01 22.6,-12.79 22.6,-25.72 0,-12.96 -9.8,-23.75 -22.6,-25.76 -4.73,-0.72 -10.5,-0.57 -14.95,0.72 -11.21,3.17 -19.4,13.23 -19.4,25.04 0,12.5 9.2,22.84 21.29,25.46 z m 11.21,-6.49 c -10.49,0 -18.99,-8.48 -18.99,-18.97 0,-10.52 8.5,-18.99 18.99,-18.99 10.49,0 19.12,8.47 19.12,18.99 0,10.49 -8.63,18.97 -19.12,18.97 z m 66.16,-18.97 c 14.53,-5.47 20.43,-15.12 24.88,-20.73 7.19,3.88 123.4,18.42 203.81,20.57 -20.57,0 -168.28,9.49 -203.81,20.72 -3.15,-4.62 -10.07,-15.11 -24.88,-20.56 z m -33.81,0 c 31.22,5.3 44.44,22.27 48.92,28.76 10.92,-4.48 95.78,-18.57 209.99,-22.3 240.34,-7.63 610.7,-0.29 696.4,-2.87 3.6,0 3.33,-7.34 0,-7.5 -85.85,-2.57 -457.22,4.33 -697.56,-3.29 -113.63,-3.75 -197.91,-17.12 -208.99,-21.57 -9.35,12.64 -25.3,25.74 -48.76,28.77 z m -530.29,25.46 c -4.05,0.85 -8.93,0.85 -13.1,0.26 -12.79,-2.01 -22.58,-12.79 -22.58,-25.72 0,-12.96 9.79,-23.75 22.58,-25.76 4.76,-0.72 10.5,-0.57 15.12,0.72 11.06,3.17 19.26,13.23 19.26,25.04 0,12.5 -9.2,22.84 -21.28,25.46 z m -11.22,-6.49 c 10.5,0 19.13,-8.48 19.13,-18.97 0,-10.52 -8.63,-18.99 -19.13,-18.99 -10.5,0 -18.98,8.47 -18.98,18.99 0,10.49 8.48,18.97 18.98,18.97 z m -66.17,-18.97 c -14.37,-5.47 -20.43,-15.12 -24.88,-20.73 -7.05,3.88 -123.39,18.42 -203.8,20.57 20.73,0 168.42,9.49 203.8,20.72 3.17,-4.62 10.07,-15.11 24.88,-20.56 z m 33.8,0 c -31.21,5.3 -44.44,22.27 -48.77,28.76 -11.06,-4.48 -95.9,-18.57 -210.1,-22.3 -240.36,-7.63 -610.42,-0.29 -696.28,-2.87 -3.61,0 -3.3,-7.34 0,-7.5 86,-2.57 457.23,4.33 697.42,-3.29 113.63,-3.75 197.9,-17.12 208.96,-21.57 9.37,12.64 25.47,25.74 48.77,28.77 v 0"
         style="fill:#362117;fill-opacity:1;fill-rule:evenodd;stroke:none"
         id="path46" /><path
         d="m 4430.08,1609.5 c -64.01,11.5 -187.7,-66.02 -215.45,-49.62 31.49,-29.77 167.57,48.05 215.45,49.62 z m -104.14,-76.51 c 64.01,-11.52 187.7,66.02 215.46,49.63 -31.49,29.76 -167.56,-48.04 -215.46,-49.63 z m -34.08,17.12 c 27.04,7.32 101.55,37.53 143.82,48.61 39,10.2 90.63,17.83 126.59,0.15 22.86,-11.36 28.6,-30.8 14.22,-46.18 -22.87,-24.45 -83.4,-23.59 -108.86,-11.93 -9.08,4.74 -4.76,11.51 1.71,7.33 6.48,-3.31 29.92,-16.26 66.31,-9.79 19.57,3.47 40.27,15.11 39.69,32.65 -0.57,14.39 -15.09,27.06 -37.81,31.23 -38.27,7.18 -72.93,-7.21 -103.57,-18.85 -41.27,-15.68 -106.15,-42.87 -169,-49.05 -33.8,-3.3 -67.61,0.72 -86.28,11.51 -24.74,14.09 -25.92,36.53 -2.62,51.34 31.38,19.57 81.57,13.38 96.23,3.18 5.19,-3.03 2.01,-9.35 -3.6,-6.21 -33.94,17.84 -96.8,12.68 -99.09,-21.13 -1.15,-15.68 17.83,-27.76 41.72,-31.49 30.93,-4.75 57.97,2.58 80.54,8.63 v 0"
         style="fill:#362117;fill-opacity:1;fill-rule:evenodd;stroke:none"
         id="path48" /><path
         d="m 4196.79,4567.95 c -68.61,5.33 -133.32,31.5 -202.08,54.23 9.35,7.48 19.85,11.07 30.63,12.23 14.96,1.43 30.63,-2.02 45.74,-7.2 28.91,-10.06 51.77,-28.05 78.67,-42.43 14.96,-8.05 30.63,-13.66 47.04,-16.83 z m 350.08,0 c 16.38,3.17 32.07,8.78 47.18,16.83 26.75,14.38 49.61,32.37 78.66,42.43 14.97,5.18 30.79,8.63 45.6,7.2 10.93,-1.16 21.3,-4.75 30.78,-12.23 -68.88,-22.73 -133.62,-48.9 -202.22,-54.23 z m -175.04,69.33 c 3.01,-3.74 8.05,-10.79 20.43,-19.27 -6.92,-4.17 -13.66,-8.06 -20.43,-11.65 -6.61,3.59 -13.52,7.48 -20.29,11.65 12.38,8.78 17.84,15.82 20.29,19.27 z m 0,17.11 c -5.18,-9.63 -17.97,-30.34 -31.79,-35.23 8.78,-5.76 17.41,-10.93 26.03,-15.82 -16.69,-8.63 -33.08,-15.4 -48.88,-20.71 -9.36,-2.74 -18.28,-4.03 -26.77,-3.46 -9.64,0.72 -20.13,3.88 -27.03,9.35 -7.77,6.47 -13.11,17.55 -3.03,25.9 6.17,5.17 15.54,4.3 20.57,-6.05 -0.72,6.62 -4.32,11.22 -8.48,14.09 -14.97,10.36 -35.67,-3.44 -29.94,-20.28 6.2,-17.83 30.65,-24.73 47.47,-25.88 1.75,-0.15 3.6,-0.15 5.61,-0.15 -20.7,-5.32 -40.84,-8.05 -60.38,-8.92 -23.33,0.87 -42.45,4.75 -57.25,13.81 -9.93,6.05 -19.43,15.1 -23.59,24.89 -4.9,11.07 -4.33,25.74 10.91,29.05 9.35,2.01 18.7,-3.89 18.42,-17.69 3.02,7.47 2.01,14.38 -1.31,19.7 -10.06,16.69 -36.24,10.65 -39.4,-8.2 -3.17,-19.27 10.95,-35.23 25.9,-45.88 -6.05,2.73 -12.08,5.75 -17.98,8.93 -26.9,14.37 -51.07,31.92 -79.83,42.71 -11.08,4.02 -27.33,7.9 -44.16,7.19 -17.11,-0.58 -35.66,-5.04 -48.18,-14.53 -9.34,3.02 -18.68,5.9 -28.18,8.63 -94.93,26.9 -181.37,4.17 -282.2,-11.65 -118.22,-18.4 -241.2,-31.49 -369.92,-30.49 -53.65,0.43 -115.21,8.77 -163.83,15.25 -9.35,0.72 -10.34,-10.5 -0.28,-11.08 189.42,-16.54 366.47,-11.07 534.03,15.24 66.6,10.36 127,23.88 187.7,24.03 -6.62,-1.3 -12.8,-3.17 -18.26,-5.32 -8.35,-3.45 -16.83,-9.64 -20.43,-17.4 -3.45,-7.63 -1.58,-16.55 3.89,-20.58 8.77,-6.61 20.42,0.29 23.3,8.34 -8.93,-8.91 -21.86,-3.44 -20.71,7.34 1.29,13.23 17.98,21.15 29.2,24.31 6.47,1.72 13.09,2.58 19.26,3.02 25.75,-1.01 51.64,-4.6 78.25,-12.23 6.62,-1.87 13.23,-3.88 19.7,-5.9 -4.6,-6.18 -7.05,-13.81 -6.47,-23.01 0.87,-10.78 7.48,-16.39 13.64,-18.83 12.39,-5.04 28.34,2.44 33.54,14.96 -5.61,-5.33 -17.13,-7.63 -23.16,-2.74 -2.88,2.3 -4.61,5.03 -5.34,8.05 -1.28,5.76 0.45,11.51 4.04,16.55 126.85,-40.57 238.46,-93.36 385.32,-13.53 146.85,-79.83 258.6,-27.04 385.46,13.53 3.45,-5.04 5.17,-10.79 3.87,-16.55 -0.72,-3.02 -2.42,-5.75 -5.31,-8.05 -6.05,-4.89 -17.54,-2.59 -23.16,2.74 5.17,-12.52 21.29,-20 33.67,-14.96 6.03,2.44 12.64,8.05 13.51,18.83 0.73,9.2 -1.87,16.83 -6.47,23.01 6.62,2.02 13.22,4.03 19.85,5.9 26.46,7.63 52.49,11.22 78.23,12.23 6.07,-0.44 12.82,-1.3 19.29,-3.02 11.21,-3.16 27.77,-11.08 29.19,-24.31 1.01,-10.78 -11.94,-16.25 -20.71,-7.34 2.73,-8.05 14.53,-14.95 23.15,-8.34 5.61,4.03 7.48,12.95 3.9,20.58 -3.6,7.76 -12.08,13.95 -20.3,17.4 -5.61,2.15 -11.78,4.02 -18.26,5.32 60.69,-0.15 120.96,-13.67 187.56,-24.03 167.71,-26.31 344.76,-31.78 534.18,-15.24 10.07,0.58 9.06,11.8 -0.15,11.08 -48.75,-6.48 -110.33,-14.82 -163.96,-15.25 -128.74,-1 -251.84,12.09 -370.07,30.49 -100.7,15.82 -187.26,38.55 -282.05,11.65 -9.65,-2.73 -18.98,-5.61 -28.33,-8.63 -12.52,9.49 -31.08,13.95 -48.19,14.53 -16.68,0.71 -33.08,-3.17 -44.02,-7.19 -28.76,-10.79 -53.07,-28.34 -79.95,-42.71 -5.91,-3.18 -11.81,-6.2 -17.85,-8.93 14.97,10.65 28.92,26.76 25.75,45.88 -3.16,18.85 -29.2,24.89 -39.42,8.2 -3.14,-5.32 -4.17,-12.23 -1.29,-19.7 -0.27,13.8 9.06,19.7 18.42,17.69 15.24,-3.31 15.82,-17.98 11.06,-29.05 -4.17,-9.79 -13.65,-18.84 -23.72,-24.89 -14.81,-9.06 -33.94,-12.94 -57.1,-13.81 -19.7,0.87 -39.85,3.6 -60.42,8.92 1.88,0 3.75,0 5.62,0.15 16.7,1.15 41.13,8.05 47.31,25.88 5.91,16.84 -14.95,30.64 -29.75,20.28 -4.33,-2.87 -7.92,-7.47 -8.5,-14.09 5.03,10.35 14.23,11.22 20.42,6.05 10.07,-8.35 4.76,-19.43 -3.01,-25.9 -6.77,-5.47 -17.27,-8.63 -27.05,-9.35 -8.48,-0.57 -17.25,0.72 -26.75,3.46 -15.83,5.31 -32.09,12.08 -48.76,20.71 8.5,4.89 17.12,10.06 25.88,15.82 -13.79,4.89 -26.6,25.6 -31.77,35.23 v 0 0 0 0"
         style="fill:#362117;fill-opacity:1;fill-rule:evenodd;stroke:none"
         id="path50" /><path
         d="m 4583.11,4096.12 c -7.33,0.29 -6.47,9.2 0,9.06 125.28,-5.18 236.02,-4.32 277.89,25.75 5.31,-3.17 9.34,-14.96 -5.18,-22.3 82.11,22.59 157.77,-3.59 237.18,-5.17 3.59,0 516.18,0 519.77,0 5.34,0.14 5.05,-5.76 0,-5.62 -3.59,0 -516.18,0 -519.77,0 -79.55,-1.57 -155.07,-27.75 -237.18,-5.16 14.52,-7.35 10.49,-19.29 5.18,-22.3 -41.87,30.06 -152.61,30.92 -277.89,25.74 z m -422.57,0 c 7.34,0.29 6.62,9.2 0,9.06 -125.12,-5.18 -236.02,-4.32 -277.87,25.75 -5.32,-3.17 -9.35,-14.96 5.17,-22.3 -81.97,22.59 -157.63,-3.59 -237.17,-5.17 -3.59,0 -515.9,0 -519.64,0 -5.33,0.14 -5.04,-5.76 0,-5.62 3.74,0 516.2,0 519.78,0 79.4,-1.57 155.06,-27.75 237.03,-5.16 -14.52,-7.35 -10.49,-19.29 -5.17,-22.3 41.85,30.06 152.75,30.92 277.87,25.74 v 0"
         style="fill:#362117;fill-opacity:1;fill-rule:evenodd;stroke:none"
         id="path52" /><path
         d="m 4292.14,4100.86 c -51.79,18.13 -111.18,25.18 -164.53,23.46 -21.72,-0.73 -47.17,-3.75 -64.29,-9.79 -10.5,-3.74 -17.12,-9.35 -18.12,-15.24 -3.47,-17.84 33.22,-23.74 44.43,-25.03 37.67,-4.6 81.55,-3.6 118.94,1.72 29.62,4.18 57.96,13.38 83.57,24.88 z m 159.5,-1 c 51.64,-18.12 111.04,-25.16 164.42,-23.3 21.7,0.73 47.16,3.6 64.29,9.64 9.05,3.16 23.71,12.08 16.82,23.44 -7.04,11.65 -33.79,15.82 -43,16.83 -37.7,4.6 -81.71,3.59 -119.11,-1.72 -29.46,-4.04 -57.8,-13.38 -83.42,-24.89 v 0 z m -74.64,29.92 c -17.84,-12.37 -39.12,-23.3 -63,-32.51 2.74,-1.3 5.33,-2.59 7.91,-3.88 15.97,-7.92 31.36,-15.25 44.89,-22.44 17.69,12.37 38.96,23.3 62.85,32.51 -2.59,1.29 -5.32,2.59 -7.9,3.88 -15.99,7.91 -31.22,15.24 -44.75,22.44 z m -5.03,-77.67 c -9.63,12.08 -31.22,28.91 -61.84,41.85 -0.72,0.29 -1.59,0.58 -2.3,1.01 v 0 c -29.93,-11.07 -63.72,-19.27 -99.11,-24.31 -24.01,-3.3 -49.18,-5.32 -77.23,-4.6 -14.67,0.43 -30.21,1.44 -44.88,4.17 -13.23,2.3 -48.6,8.92 -46.74,28.19 3.03,30.78 70.62,39.99 122.41,37.83 56.8,-2.3 98.79,-17.84 116.34,-24.16 6.91,-2.59 13.52,-5.18 20.15,-8.05 h 0.14 c 12.52,5.89 24.15,12.21 34.95,18.84 13.37,7.91 25.17,17.11 37.68,26.32 12.51,-14.97 35.24,-30.07 61.99,-42.43 0.72,-0.29 1.6,-0.59 2.32,-1.01 v 0 c 30.04,11.07 63.69,19.27 99.21,24.3 24.02,3.32 49.06,5.33 77.1,4.61 14.68,-0.44 30.21,-1.44 44.89,-4.03 13.38,-2.44 48.61,-9.06 46.73,-28.34 -3.01,-30.78 -70.62,-39.98 -122.26,-37.82 -56.95,2.3 -98.94,17.83 -116.49,24.3 -6.76,2.45 -13.52,5.04 -20.13,7.92 h -0.15 c -15.82,-7.49 -30.5,-15.82 -43.58,-24.17 -7.19,-4.6 -23.16,-15.96 -29.2,-20.42 v 0"
         style="fill:#362117;fill-opacity:1;fill-rule:evenodd;stroke:none"
         id="path54" /><path
         d="m 1598.31,4597.21 c -13.1,0 -24.02,-7.19 -26.47,-16.82 5.19,6.33 15.1,10.64 26.47,10.64 11.36,0 21.29,-4.31 26.6,-10.49 -2.44,9.48 -13.51,16.67 -26.6,16.67 z m 0,6.47 c -17.26,0 -31.36,-10.77 -31.36,-24.16 0,-13.37 14.1,-24.16 31.36,-24.16 17.4,0 31.49,10.79 31.49,24.16 0,13.39 -14.09,24.16 -31.49,24.16 z m 0,2.74 c -20.14,0 -36.53,-14.38 -36.53,-31.93 0,-17.55 16.39,-31.78 36.53,-31.78 20.13,0 36.68,14.23 36.68,31.78 0,17.55 -16.55,31.93 -36.68,31.93 z m 98.95,-29.2 c 27.33,5.04 51.78,16.11 70.91,23.02 17.55,6.47 29.19,10.5 43.58,-4.32 5.32,-5.61 11.21,-16.25 19.13,-21.87 -7.92,-5.6 -13.81,-16.25 -19.13,-21.85 -14.39,-14.67 -26.03,-10.65 -43.58,-4.32 -19.13,7.05 -43.58,18.13 -70.91,23.16 l -15.1,2.87 15.1,3.31 z m 85.01,15.39 c 15.39,0 28.04,-8.34 28.04,-18.56 0,-10.2 -12.65,-18.4 -28.04,-18.4 -6.05,0 -11.65,1.15 -16.25,3.31 1.86,-0.44 3.88,-0.72 5.89,-0.72 10.92,0 19.7,7.19 19.7,15.81 0,8.78 -8.78,15.83 -19.7,15.83 -2.01,0 -4.03,-0.15 -5.89,-0.72 4.6,2.16 10.2,3.45 16.25,3.45 z m -282.92,-15.39 c -27.33,5.04 -51.78,16.11 -70.91,23.02 -17.54,6.47 -29.05,10.5 -43.44,-4.32 -5.46,-5.61 -11.35,-16.25 -19.26,-21.87 7.91,-5.6 13.8,-16.25 19.26,-21.85 14.39,-14.67 25.9,-10.65 43.44,-4.32 19.13,7.05 43.58,18.13 70.91,23.16 l 15.24,2.87 -15.24,3.31 z m 39.27,0.15 -5.18,1.01 c -0.43,0 -0.87,0.14 -1.3,0.14 -6.04,3.16 -11.65,8.91 -16.96,15.25 -0.16,0.28 -0.44,0.57 -0.73,1 -7.18,12.52 -1,26.18 11.08,26.76 6.76,0.29 10.79,-5.04 11.51,-10.94 0.71,-7.05 -4.75,-9.35 -8.64,-4.45 -4.16,2.3 -6.75,-3.03 -4.02,-6.33 3.45,-3.89 9.78,-2.45 13.09,0.28 8.19,6.47 6.61,19.85 -0.58,26.47 -6.9,6.32 -17.4,4.74 -23.44,-2.74 -4.31,-5.45 -6.62,-13.37 -5.18,-21.28 -0.29,0.43 -0.43,0.71 -0.72,1.14 -3.88,5.33 -7.34,10.94 -12.37,14.69 -4.32,3.45 -9.5,5.45 -14.81,3.87 -4.74,-1.43 -8.78,-5.32 -10.65,-11.07 -2.59,-7.92 1.15,-14.1 7.48,-13.38 -0.86,6.05 1.73,12.66 6.19,15.25 4.16,2.45 8.48,0 12.08,-2.88 7.34,-5.76 13.08,-15.82 18.98,-23.01 2.01,-2.3 4.18,-4.46 6.34,-6.33 -34.96,7.63 -66.17,20.71 -91.2,29.2 -20.71,7.19 -35.81,12.22 -51.77,3.02 -28.77,-2.74 -57.82,2.3 -91.19,16.1 -5.04,2.02 -9.21,-5.03 -1.29,-7.91 31.35,-12.22 59.83,-14.38 87.01,-11.64 -2.02,-1.58 -4.17,-3.45 -6.33,-5.47 -2.88,-2.88 -5.89,-6.61 -9.06,-10.65 -53.21,-4.74 -105.29,18.56 -157.35,29.5 -42.72,8.77 -88.31,14.66 -140.52,6.17 -24.3,-3.88 -48.46,-10.5 -72.629,-15.38 -19.273,-4.03 -38.547,-7.62 -57.824,-10.36 -43.727,-6.04 -81.696,-5.75 -124.696,6.05 -5.324,1.43 -10.644,2.87 -16.109,4.31 -8.059,2.15 -11.367,-5.9 -1.156,-8.19 80.258,-20.29 160.519,-9.5 240.774,7.61 65.16,14.53 120.38,12.08 172.16,3.6 51.21,-8.49 102.12,-30.78 154.04,-27.33 -4.6,-5.61 -9.78,-11.36 -15.67,-15.4 0,0 0,0 0.14,0 -66.73,-8.91 -140.95,32.66 -227.53,31.65 -44.88,-0.57 -84.15,-17.25 -127.004,-30.78 -74.363,-23.44 -151.316,-39.69 -227.832,-24.74 -47.027,9.07 -94.066,20.14 -141.672,26.32 -87.012,11.37 -173.316,9.93 -258.746,-8.05 -2.445,-0.57 -1.867,-3.74 0,-3.46 85.43,18.14 171.734,10.94 258.746,-0.28 47.606,-6.19 94.211,-20.57 141.672,-26.46 94.496,-11.51 194.027,19.27 294.426,47.32 114.77,31.06 209.12,-28.63 291.69,-14.39 4.16,-3.59 8.04,-7.91 11.49,-12.22 -28.47,-12.23 -60.4,-11.51 -93.62,-6.33 -48.33,7.62 -94.35,27.76 -143.84,23.44 -31.93,-2.73 -62.7,-13.94 -92.19,-35.24 -5.04,-4.45 -0.72,-9.05 2.87,-6.76 4.18,2.6 7.48,5.9 11.51,8.64 21.43,14.67 43.01,23 67.74,25.31 48.19,4.46 95.08,-8.2 142.1,-18.27 38.99,-8.34 75.95,-10.5 108.03,6.19 3.6,-4.46 6.9,-8.78 10.06,-11.8 0.72,-0.71 1.44,-1.43 2.16,-2.01 -24.59,-14.53 -57.24,-16.83 -95.5,-10.35 -5.18,0.28 -8.06,-8.64 0,-10.93 39.99,-5.04 73.64,1.15 98.53,18.69 18.69,-14.81 34.94,-9.49 58.38,-1.43 25.03,8.62 56.24,21.71 91.2,29.34 -2.16,-1.88 -4.33,-4.04 -6.34,-6.48 -5.9,-7.19 -11.64,-17.26 -18.98,-23.01 -3.6,-2.87 -7.92,-5.18 -12.08,-2.87 -4.46,2.59 -7.05,9.34 -6.19,15.23 -6.33,0.88 -10.07,-5.31 -7.48,-13.37 1.87,-5.75 5.91,-9.49 10.65,-10.93 5.31,-1.72 10.49,0.29 14.81,3.74 5.03,3.88 8.49,9.49 12.37,14.81 0.29,0.29 0.43,0.72 0.72,1.01 -1.44,-7.76 0.87,-15.82 5.18,-21.14 6.04,-7.62 16.54,-9.06 23.44,-2.87 7.19,6.61 8.77,20.13 0.58,26.61 -3.31,2.58 -9.64,4.02 -13.09,0.14 -2.73,-3.17 -0.14,-8.63 4.02,-6.34 3.89,4.9 9.35,2.59 8.64,-4.45 -0.72,-5.75 -4.75,-11.22 -11.51,-10.93 -12.08,0.72 -18.26,14.23 -11.08,26.9 0.29,0.28 0.57,0.57 0.73,0.86 5.31,6.32 10.92,12.08 16.96,15.24 0.43,0.15 0.87,0.15 1.3,0.29 l 5.18,0.86 c 2.3,-26.89 28.19,-48.32 59.69,-48.32 31.49,0 57.53,21.43 59.68,48.32 l 5.19,-0.86 c 0.43,-0.14 0.86,-0.14 1.29,-0.29 6.18,-3.16 11.79,-8.92 16.97,-15.24 0.29,-0.29 0.58,-0.58 0.86,-0.86 7.05,-12.67 0.87,-26.18 -11.22,-26.9 -6.76,-0.29 -10.79,5.18 -11.36,10.93 -0.86,7.04 4.75,9.35 8.63,4.45 4.17,-2.29 6.76,3.17 3.89,6.34 -3.31,3.88 -9.64,2.44 -13.09,-0.14 -8.06,-6.48 -6.62,-20 0.57,-26.61 6.91,-6.19 17.55,-4.75 23.59,2.87 4.32,5.32 6.47,13.38 5.03,21.14 0.29,-0.29 0.58,-0.72 0.87,-1.01 3.89,-5.32 7.33,-10.93 12.22,-14.81 4.46,-3.45 9.64,-5.46 14.96,-3.74 4.61,1.44 8.78,5.18 10.64,10.93 2.45,8.06 -1.29,14.25 -7.62,13.37 0.87,-5.89 -1.73,-12.64 -6.04,-15.23 -4.17,-2.31 -8.62,0 -12.23,2.87 -7.33,5.75 -13.08,15.82 -18.98,23.01 -2.01,2.44 -4.03,4.6 -6.33,6.48 34.95,-7.63 66.16,-20.72 91.19,-29.34 23.44,-8.06 39.69,-13.38 58.4,1.43 24.88,-17.54 58.67,-23.73 98.52,-18.69 8.05,2.29 5.32,11.21 0,10.93 -38.27,-6.48 -70.92,-4.18 -95.36,10.35 0.71,0.58 1.29,1.3 2.01,2.01 3.31,3.02 6.62,7.34 10.21,11.8 31.93,-16.69 69.04,-14.53 108.02,-6.19 47.03,10.07 93.77,22.73 141.96,18.27 24.73,-2.31 46.45,-10.64 67.88,-25.31 3.89,-2.74 7.19,-6.04 11.37,-8.64 3.6,-2.29 7.91,2.31 2.88,6.76 -29.34,21.3 -60.27,32.51 -92.2,35.24 -49.33,4.32 -95.5,-15.82 -143.83,-23.44 -33.08,-5.18 -65,-5.9 -93.63,6.33 3.59,4.31 7.33,8.63 11.5,12.22 82.7,-14.24 177.06,45.45 291.83,14.39 100.25,-28.05 199.78,-58.83 294.28,-47.32 47.46,5.89 94.06,20.27 141.81,26.46 87.02,11.22 173.32,18.42 258.9,0.28 1.87,-0.28 2.44,2.89 0,3.46 -85.58,17.98 -171.88,19.42 -258.9,8.05 -47.75,-6.18 -94.63,-17.25 -141.81,-26.32 -76.52,-14.95 -153.32,1.3 -227.82,24.74 -42.87,13.53 -81.99,30.21 -127.01,30.78 -86.44,1.01 -160.8,-40.56 -227.39,-31.65 0,0 0,0 0.14,0 -5.9,4.04 -11.07,9.79 -15.82,15.4 52.06,-3.45 102.84,18.84 154.18,27.33 51.64,8.48 106.87,10.93 172.17,-3.6 80.26,-17.11 160.51,-27.9 240.77,-7.61 10.07,2.29 6.76,10.34 -1.16,8.19 -5.45,-1.44 -10.92,-2.88 -16.24,-4.31 -43.01,-11.8 -80.83,-12.09 -124.71,-6.05 -19.26,2.74 -38.54,6.33 -57.81,10.36 -24.17,4.88 -48.33,11.5 -72.49,15.38 -52.36,8.49 -97.81,2.6 -140.53,-6.17 -52.06,-10.94 -104.27,-34.24 -157.35,-29.5 -3.31,4.04 -6.32,7.77 -9.2,10.65 -2.16,2.02 -4.17,3.89 -6.33,5.47 27.19,-2.74 55.66,-0.58 87.02,11.64 7.91,2.88 3.89,9.93 -1.15,7.91 -33.37,-13.8 -62.57,-18.84 -91.19,-16.1 -16.11,9.2 -31.21,4.17 -51.92,-3.02 -25.03,-8.49 -56.24,-21.57 -91.19,-29.2 2.3,1.87 4.32,4.03 6.33,6.33 5.9,7.19 11.65,17.25 18.98,23.01 3.61,2.88 8.06,5.33 12.23,2.88 4.31,-2.59 6.91,-9.2 6.04,-15.25 6.33,-0.72 10.07,5.46 7.62,13.38 -1.86,5.75 -6.03,9.64 -10.64,11.07 -5.32,1.58 -10.5,-0.42 -14.96,-3.87 -4.89,-3.75 -8.33,-9.36 -12.22,-14.69 -0.29,-0.43 -0.58,-0.71 -0.87,-1.14 1.44,7.91 -0.71,15.83 -5.03,21.28 -6.04,7.48 -16.68,9.06 -23.59,2.74 -7.19,-6.62 -8.63,-20 -0.57,-26.47 3.45,-2.73 9.78,-4.17 13.09,-0.28 2.87,3.3 0.28,8.63 -3.89,6.33 -3.88,-4.9 -9.49,-2.6 -8.63,4.45 0.57,5.9 4.6,11.23 11.36,10.94 12.09,-0.58 18.27,-14.24 11.22,-26.76 -0.28,-0.43 -0.57,-0.72 -0.86,-1 -5.18,-6.34 -10.79,-12.09 -16.97,-15.25 -0.43,0 -0.86,-0.14 -1.29,-0.14 l -5.05,-1.01 c -1.72,27.33 -27.9,49.33 -59.82,49.33 -31.79,0 -58.11,-22 -59.69,-49.33 z m -124.12,15.24 c 6.04,0 11.64,-1.29 16.1,-3.45 -1.87,0.57 -3.74,0.72 -5.89,0.72 -10.79,0 -19.71,-7.05 -19.71,-15.83 0,-8.62 8.92,-15.81 19.71,-15.81 2.15,0 4.02,0.28 5.89,0.72 -4.6,-2.16 -10.06,-3.31 -16.1,-3.31 -15.54,0 -28.2,8.2 -28.2,18.4 0,10.22 12.66,18.56 28.2,18.56 z m 183.81,24.45 c 26.9,0 48.9,-19.12 48.9,-42.57 0,-23.45 -22,-42.43 -48.9,-42.43 -26.9,0 -48.76,18.98 -48.76,42.43 0,23.45 21.86,42.57 48.76,42.57 v 0"
         style="fill:#362117;fill-opacity:1;fill-rule:evenodd;stroke:none"
         id="path56" /><path
         d="m 1767.88,4026.32 c -26.46,-17.12 -66.45,-30.34 -120.82,-36.67 -32.65,-3.88 -64.86,-3.88 -97.51,0 -54.22,6.33 -94.21,19.55 -120.82,36.67 60.13,-7.19 119.67,-10.79 169.58,-10.2 49.91,-0.59 109.6,3.01 169.57,10.2 z m 36.53,27.05 c 11.22,21.43 11.66,43 4.04,60.12 22,4.74 46.15,8.49 74.35,10.64 55.37,4.17 110.32,3.73 163.39,-2.15 7.05,-0.73 14.1,-1.59 21,-2.45 -3.02,-2.59 -6.33,-5.03 -9.93,-7.48 -42.13,-27.76 -142.09,-47.76 -252.85,-58.68 z m -674.99,66.16 c 6.9,0.86 13.95,1.72 21,2.45 53.08,5.88 108.16,6.32 163.4,2.15 28.19,-2.15 52.49,-5.9 74.5,-10.64 -7.77,-17.12 -7.2,-38.69 3.88,-60.12 -110.75,10.92 -210.71,30.92 -252.71,58.68 -3.74,2.45 -7.05,4.89 -10.07,7.48 z m 469.46,57.82 11.94,-71.06 20.57,57.25 c -2.02,0.43 -3.46,2.44 -3.46,4.75 0,2.72 2.02,5.03 4.46,5.03 2.6,0 4.61,-2.31 4.61,-5.03 0,-2.59 -2.01,-4.75 -4.47,-4.89 l 0.3,-63.86 30.63,46.89 c -1.3,0.86 -2.16,2.29 -2.16,4.02 0,2.73 2.02,5.03 4.61,5.03 2.44,0 4.46,-2.3 4.46,-5.03 0,-2.59 -2.02,-4.89 -4.46,-4.89 -0.43,0 -0.72,0 -1.01,0.15 l -20.57,-78.09 c -30.49,5.31 -60.98,5.02 -91.47,0 l -20.72,78.38 c -0.43,-0.15 -0.86,-0.15 -1.29,-0.15 -2.59,0 -4.6,2.16 -4.6,4.89 0,2.74 2.01,4.89 4.6,4.89 2.45,0 4.46,-2.15 4.46,-4.89 0,-1.58 -0.72,-3.16 -1.87,-4.03 l 30.93,-47.17 0.13,64.14 c -0.13,0 -0.28,0 -0.42,0 -2.59,0 -4.61,2.16 -4.61,4.89 0,2.73 2.02,4.89 4.61,4.89 2.44,0 4.46,-2.16 4.46,-4.89 0,-2.16 -1.3,-4.02 -3.02,-4.6 l 20.56,-56.81 11.8,70.19 c -2.31,0.28 -4.03,2.44 -4.03,5.03 0,2.73 2.01,4.89 4.46,4.89 2.59,0 4.6,-2.16 4.6,-4.89 0,-2.59 -1.87,-4.75 -4.03,-5.03 z m -677.431,-92.63 c 65.442,12.08 128.871,24.74 199.061,33.8 0.86,-1 1.86,-2.01 2.88,-3.02 38.68,-39.26 161.81,-70.48 286.93,-86.87 25.17,-26.18 68.89,-49.05 136.06,-59.25 34.67,-5.34 69.33,-5.34 103.85,0 67.31,10.2 110.89,33.07 136.06,59.25 125.14,16.39 248.25,47.61 287.09,86.87 1,1.01 1.87,2.02 2.73,3.02 70.33,-9.06 133.62,-21.72 199.06,-33.8 h 0.14 c 137.21,-24.03 186.83,-28.77 280.76,-27.33 108.16,1.59 214.15,22.44 284.49,55.96 5.32,2.58 1.01,3.02 -0.57,2.44 -50.05,-19.42 -97.09,-35.53 -171.31,-41.13 -55.36,-4.32 -110.31,-3.74 -163.39,2.01 -82.56,8.92 -154.32,23.45 -228.98,37.24 h -0.14 c -86.44,15.11 -138.07,22.59 -187.84,25.76 4.46,15.67 -1.14,28.62 -7.33,33.51 -2.74,2.3 -4.17,0.43 -2.02,-2.17 7.2,-9.19 8.49,-20.13 3.89,-31.06 -27.47,1.58 -54.79,1.87 -87.6,1.44 -66.44,-1 -132.03,-9.35 -189.13,-23.45 -2.45,4.46 -5.47,8.49 -9.06,12.09 -19.56,19.27 -45.16,24.16 -71.77,4.74 -0.86,-1.72 0.72,-2.59 1.72,-2.01 31.5,21.72 61.42,8.77 74.36,-15.96 -33.94,-8.49 -64.58,-19.14 -90.46,-31.51 -5.47,-2.59 -1.01,-3.02 0.57,-2.44 29.63,11.51 58.26,21.86 92.05,29.62 6.76,-16.25 6.62,-36.52 -4.17,-55.08 -0.86,-1.59 -2.02,-3.16 -3.02,-4.74 -65.87,-6.19 -135.2,-9.2 -198.05,-8.93 -62.86,-0.27 -132.04,2.74 -198.06,8.93 -1,1.58 -2,3.15 -3.02,4.74 -10.79,18.56 -10.93,38.83 -4.02,55.08 33.8,-7.76 62.28,-18.11 91.9,-29.62 1.58,-0.58 6.05,-0.15 0.72,2.44 -25.89,12.37 -56.67,23.02 -90.61,31.51 13.09,24.73 43,37.68 74.5,15.96 0.87,-0.58 2.45,0.29 1.58,2.01 -26.46,19.42 -52.06,14.53 -71.63,-4.74 -3.59,-3.6 -6.61,-7.63 -9.2,-12.09 -56.95,14.1 -122.69,22.45 -189.13,23.45 -32.65,0.43 -60.12,0.14 -87.59,-1.44 -4.47,10.93 -3.31,21.87 3.88,31.06 2.16,2.6 0.72,4.47 -2.01,2.17 -6.04,-4.89 -11.8,-17.84 -7.34,-33.51 -49.77,-3.17 -101.4,-10.65 -187.842,-25.76 v 0 c -74.641,-13.79 -146.555,-28.32 -228.977,-37.24 -53.066,-5.75 -108.164,-6.33 -163.391,-2.01 -74.215,5.6 -121.25,21.71 -171.156,41.13 -1.578,0.58 -6.039,0.14 -0.719,-2.44 70.481,-33.52 176.192,-54.37 284.348,-55.96 94.07,-1.44 143.543,3.3 280.906,27.33 v 0 0"
         style="fill:#362117;fill-opacity:1;fill-rule:evenodd;stroke:none"
         id="path58" /><path
         d="m 2002.9,2057.75 c -10.21,-1 -12.08,-11.49 0,-13.08 105.43,0.56 199.92,3.02 269.53,6.62 -69.61,3.6 -164.1,5.9 -269.53,6.46 z m 0,55.68 c -10.21,-1.02 -12.08,-11.52 0,-12.95 105.43,0.43 199.92,2.88 269.53,6.47 -69.61,3.59 -164.1,6.04 -269.53,6.48 z m -247.1,3.14 c -110.32,3.6 -110.32,-77.21 0,-73.62 60.84,2.02 119.23,7.32 181.23,-0.29 41.85,-5.19 79.53,-14.54 115.49,-33.23 1.29,-0.71 0.43,-2 -0.58,-1.72 -30.48,8.63 -73.64,11.35 -96.65,11.5 -65.3,0.3 -126.57,-7.92 -193.6,-1.01 -129.01,13.23 -129.01,109.89 0,123.12 67.03,6.9 128.3,-1.44 193.6,-1 23.01,0.14 66.17,2.72 96.65,11.37 1.01,0.27 1.87,-1.03 0.58,-1.59 -35.96,-18.72 -73.64,-28.06 -115.49,-33.23 -62,-7.61 -120.39,-2.3 -181.23,-0.3 z m -58.68,-25.46 c 365.9,-0.98 917.63,-5.16 1158.97,-11.35 -241.34,-6.18 -793.07,-10.36 -1158.97,-11.35 -15.25,0.85 -15.97,21.13 0,22.7 z m -503.27,-33.36 c -105.56,-0.56 -200.057,-2.86 -269.67,-6.46 69.613,-3.6 164.11,-6.06 269.67,-6.62 11.95,1.59 10.22,12.08 0,13.08 z m 0,55.68 c -105.56,-0.44 -200.057,-2.89 -269.67,-6.48 69.613,-3.59 164.11,-6.04 269.67,-6.47 11.95,1.43 10.22,11.93 0,12.95 z m 247.11,3.14 c -60.98,-2 -119.38,-7.31 -181.37,0.3 -41.71,5.17 -79.55,14.51 -115.5,33.23 -1.29,0.56 -0.42,1.86 0.58,1.59 30.64,-8.65 73.64,-11.23 96.65,-11.37 65.44,-0.44 126.57,7.9 193.6,1 129.02,-13.23 129.16,-109.89 0,-123.12 -66.88,-6.91 -128.16,1.31 -193.6,1.01 -23.01,-0.15 -66.01,-2.87 -96.65,-11.5 -1,-0.28 -1.87,1.01 -0.58,1.72 35.95,18.69 73.79,28.04 115.5,33.23 61.99,7.61 120.39,2.31 181.37,0.29 110.17,-3.59 110.17,77.22 0,73.62 z m 58.53,-25.46 c -365.9,-0.98 -917.478,-5.16 -1158.826,-11.35 241.348,-6.18 792.926,-10.36 1158.826,-11.35 15.39,0.85 15.97,21.13 0,22.7 z m 115.07,-57.22 c 0,8.92 -7.34,16.23 -16.25,16.23 -8.92,0 -16.11,-7.31 -16.11,-16.23 0,-8.92 7.19,-16.12 16.11,-16.12 8.91,0 16.25,7.2 16.25,16.12 z m 0,91.63 c 0,-8.95 -7.34,-16.13 -16.25,-16.13 -8.92,0 -16.11,7.18 -16.11,16.13 0,8.9 7.19,16.24 16.11,16.24 8.91,0 16.25,-7.34 16.25,-16.24 z m 31.5,-54.67 c -7.62,4.46 -17.69,1.87 -22.15,-5.89 -4.46,-7.77 -1.73,-17.7 6.04,-22.15 7.62,-4.47 17.55,-1.75 22,5.89 4.46,7.76 1.88,17.69 -5.89,22.15 z m -79.25,45.88 c -7.77,4.47 -17.7,1.73 -22.15,-6.04 -4.46,-7.63 -1.88,-17.56 5.9,-22.01 7.76,-4.46 17.69,-1.87 22.15,5.9 4.46,7.77 1.72,17.69 -5.9,22.15 z m 63.14,0 c -7.77,-4.46 -10.5,-14.52 -6.04,-22.15 4.46,-7.77 14.53,-10.36 22.15,-5.9 7.77,4.45 10.35,14.38 5.89,22.01 -4.45,7.77 -14.38,10.51 -22,6.04 z m -79.39,-45.88 c -7.78,-4.46 -10.36,-14.39 -5.9,-22.15 4.45,-7.64 14.38,-10.36 22.15,-5.89 7.62,4.45 10.36,14.38 5.9,22.15 -4.46,7.76 -14.39,10.35 -22.15,5.89 z m 37.68,26.18 c 9.64,5.6 21.86,2.3 27.47,-7.35 5.47,-9.48 2.15,-21.87 -7.34,-27.33 -9.63,-5.46 -21.86,-2.3 -27.46,7.35 -5.48,9.49 -2.16,21.87 7.33,27.33 v 0"
         style="fill:#362117;fill-opacity:1;fill-rule:evenodd;stroke:none"
         id="path60" /><path
         d="m 3146.98,2606.97 c 10.79,0 19.86,-7.92 21.58,-18.15 341.45,2.16 725.48,3.6 1134.52,4.17 -5.17,6.63 -15.82,11.52 -32.07,10.8 -29.34,-1.15 -710.23,-4.17 -740,0.15 -20.13,2.87 -38.27,8.19 -55.66,18.69 -0.57,0.43 -0.15,1.16 0.43,1.01 14.67,-4.89 35.38,-6.33 46.46,-6.48 31.34,-0.15 713.66,4.47 745.89,0.57 23.73,-2.86 38.11,-13.07 43.3,-24.74 2.72,0 5.45,0 8.18,0 -4.74,19.85 -23.71,37.12 -57.1,35.25 l -385.59,0.44 c -28.63,0.41 -54.37,10.64 -78.96,31.06 -0.87,0.72 -0.29,2.16 0.43,1.86 20.85,-9.47 50.34,-12.35 66.01,-12.5 44.58,-0.42 348.35,8.63 394.11,1.14 42.27,-6.47 65.72,-30.92 70.31,-57.25 4.47,0 9.06,0 13.52,0 4.17,12.38 15.81,21.16 29.49,21.16 13.67,0 25.31,-8.78 29.62,-21.16 4.46,0 8.93,0 13.38,0 4.76,26.33 28.06,50.78 70.34,57.25 45.73,7.49 349.5,-1.56 394.08,-1.14 15.83,0.15 45.16,3.03 66.03,12.5 0.73,0.3 1.29,-1.14 0.42,-1.86 -24.59,-20.42 -50.33,-30.65 -78.81,-31.06 l -385.75,-0.44 c -33.37,1.87 -52.35,-15.4 -57.12,-35.25 2.75,0 5.63,0 8.35,0 5.04,11.67 19.57,21.88 43.16,24.74 32.22,3.9 714.54,-0.72 746.04,-0.57 11.07,0.15 31.79,1.59 46.46,6.48 0.44,0.15 0.87,-0.58 0.29,-1.01 -17.27,-10.5 -35.53,-15.82 -55.53,-18.69 -29.91,-4.32 -710.81,-1.3 -740.14,-0.15 -16.11,0.72 -26.89,-4.17 -31.92,-10.8 406.88,-0.57 789.75,-2.01 1132.5,-4.01 1.87,10.22 10.79,17.99 21.44,17.99 12.09,0 22.01,-9.93 22.01,-22.02 0,-12.08 -9.92,-21.85 -22.01,-21.85 -9.2,0 -17.12,5.74 -20.42,13.94 -342.9,-2.01 -726.19,-3.45 -1133.52,-4.02 5.03,-6.63 15.81,-11.51 31.92,-10.8 29.33,1.14 710.23,4.17 740.14,-0.14 20,-3.02 38.26,-8.19 55.53,-18.84 0.58,-0.3 0.15,-1.02 -0.29,-0.87 -14.67,4.89 -35.39,6.33 -46.46,6.48 -31.5,0.15 -713.82,-4.47 -746.04,-0.57 -23.59,2.88 -38.12,13.08 -43.16,24.74 -2.72,0 -5.6,0 -8.35,0 4.77,-19.85 23.75,-37.12 57.12,-35.25 l 385.75,-0.43 c 28.48,-0.57 54.22,-10.8 78.81,-31.07 0.87,-0.72 0.31,-2.16 -0.42,-1.86 -20.87,9.34 -50.2,12.22 -66.03,12.36 -44.58,0.58 -348.35,-8.63 -394.08,-0.99 -42.02,6.45 -65.58,30.77 -70.34,57.24 -4.45,0 -8.92,0 -13.38,0 -4.31,-12.39 -15.95,-21.29 -29.62,-21.29 -13.68,0 -25.32,8.9 -29.49,21.29 -4.6,0 -9.05,0 -13.52,0 -4.74,-26.47 -28.19,-50.79 -70.31,-57.24 -45.76,-7.64 -349.53,1.57 -394.11,0.99 -15.67,-0.14 -45.16,-3.02 -66.01,-12.36 -0.72,-0.3 -1.3,1.14 -0.43,1.86 24.59,20.27 50.33,30.5 78.96,31.07 l 385.59,0.43 c 33.39,-1.87 52.36,15.4 57.1,35.25 -2.73,0 -5.46,0 -8.18,0 -5.19,-11.66 -19.57,-21.86 -43.3,-24.74 -32.23,-3.9 -714.55,0.72 -745.89,0.57 -11.08,-0.15 -31.79,-1.59 -46.46,-6.48 -0.58,-0.15 -1,0.57 -0.43,0.87 17.39,10.65 35.53,15.82 55.66,18.84 29.77,4.31 710.66,1.28 740,0.14 16.25,-0.71 26.9,4.17 32.07,10.8 -409.49,0.57 -793.94,2.01 -1135.52,4.17 -3.17,-8.22 -11.22,-14.09 -20.58,-14.09 -12.08,0 -21.86,9.77 -21.86,21.85 0,12.09 9.78,22.02 21.86,22.02"
         style="fill:#362117;fill-opacity:1;fill-rule:evenodd;stroke:none"
         id="path62" /><path
         d="m 1438.22,1010.24 c -3.16,-0.15 -3.16,-0.72 0,-1.75 1.16,-0.26 116.36,-32.631 321.46,99.97 28.05,17.99 67.17,34.67 96.66,10.81 7.04,-5.63 10.93,-13.39 12.22,-21.74 h -22.44 c -2.73,9.65 -11.65,16.83 -22.28,16.83 -12.66,0 -23.17,-10.5 -23.17,-23.29 0,-12.66 10.51,-23.17 23.17,-23.17 10.63,0 19.55,7.05 22.28,16.71 h 22.01 c -1.88,-9.66 -7.48,-18.87 -16.39,-25.05 -0.58,-0.41 0.14,-1.72 1.44,-1.44 7.47,1.75 16.24,14.4 18.98,26.49 h 925.54 c 2.88,-9.66 11.79,-16.71 22.3,-16.71 10.49,0 19.41,7.05 22.29,16.71 h 0.86 v 6.46 6.46 h -0.86 c -2.88,9.65 -11.8,16.83 -22.29,16.83 -10.51,0 -19.42,-7.18 -22.3,-16.83 h -924.97 c -2.59,21.29 -20.43,37.54 -40.41,43.44 -38.41,11.37 -77.67,-1.73 -112.91,-17.53 -66.88,-29.78 -181.51,-107.31 -281.19,-113.2 z m -6.47,54.65 c 58.54,28.92 112.77,60.7 177.49,78.97 43.57,12.22 85.44,17.69 130.45,11.5 1.58,-0.28 1.44,-2.16 0.14,-2.3 -34.37,-3.18 -77.81,-18.98 -100.39,-28.9 -64.15,-28.08 -119.66,-64.75 -188.84,-85.88 -32.94,-10.07 -66.16,-14.67 -98.39,-2.74 -26.6,9.78 -38.55,30.07 -38.83,49.07 H 399.059 c -2.731,-9.66 -11.653,-16.71 -22.145,-16.71 -12.812,0 -23.305,10.51 -23.305,23.17 0,12.79 10.493,23.29 23.305,23.29 10.492,0 19.414,-7.18 22.145,-16.83 h 916.051 c 3.74,13.39 13.52,24.47 27.9,28.92 1.44,0.43 2.16,-1.73 1.3,-2.03 -12.23,-4.44 -22.02,-14.8 -24.6,-26.89 h 30.78 c 2.87,9.65 11.8,16.83 22.3,16.83 10.49,0 19.41,-7.18 22.29,-16.83 h 0.86 v -6.46 -6.46 h -0.86 c -2.88,-9.66 -11.8,-16.71 -22.29,-16.71 -10.5,0 -19.43,7.05 -22.3,16.71 h -30.92 c 0.14,-0.88 0.43,-1.75 0.71,-2.46 4.47,-15.24 15.39,-26.91 30.07,-32.07 28.19,-10.07 56.38,2.44 81.4,14.81 v 0"
         style="fill:#362117;fill-opacity:1;fill-rule:evenodd;stroke:none"
         id="path64" /><path
         d="m 4176.06,511.313 c -90.73,10.476 -150.43,28.179 -150.43,48.179 0,19.828 59.83,37.528 150.58,48.18 -140.66,-9.07 -237.3,-27.192 -237.3,-48.18 0,-21.012 96.64,-39.281 237.15,-48.179 z m 391.51,96.359 c 90.77,-10.652 150.45,-28.352 150.45,-48.18 0,-20 -59.68,-37.703 -150.45,-48.179 140.54,8.898 237.2,27.167 237.2,48.179 0,20.988 -96.66,39.11 -237.2,48.18 z M 4155.22,548.98 v 20.86 c -5.18,-3.301 -7.92,-6.75 -7.92,-10.348 0,-3.59 2.74,-7.191 7.92,-10.512 z m 20.13,-8.769 v 38.418 c -3.46,-1.02 -6.46,-2.16 -9.34,-3.328 V 543.66 c 2.88,-1.129 5.88,-2.301 9.34,-3.449 z m 20.15,-5.32 v 49.199 c -3.31,-0.871 -6.33,-1.598 -9.36,-2.32 v -44.579 c 3.03,-0.859 6.05,-1.582 9.36,-2.3 z M 4215.62,531 v 56.969 c -3.15,-0.598 -6.33,-1.16 -9.34,-1.727 v -53.64 c 3.01,-0.59 6.19,-1.161 9.34,-1.602 z m 20.15,-3.148 v 63.128 c -3.18,-0.429 -6.33,-0.871 -9.35,-1.281 v -60.547 c 3.02,-0.461 6.17,-0.871 9.35,-1.3 z m 20.12,-2.45 v 68.039 c -3.15,-0.3 -6.17,-0.73 -9.21,-1.019 v -65.891 c 3.04,-0.41 6.06,-0.711 9.21,-1.129 z m 20.15,-1.871 v 71.918 c -3.02,-0.308 -6.2,-0.578 -9.2,-0.867 v -70.203 c 3,-0.27 6.18,-0.566 9.2,-0.848 z m 20.27,-1.429 v 74.777 c -3.17,-0.137 -6.33,-0.43 -9.34,-0.719 v -73.488 c 3.01,-0.301 6.17,-0.442 9.34,-0.57 z m 20.14,-1.172 v 77.101 c -3.16,-0.152 -6.32,-0.422 -9.34,-0.57 v -76.082 c 3.02,-0.137 6.18,-0.297 9.34,-0.449 z m 20.14,-0.719 v 78.539 c -3.16,-0.148 -6.33,-0.289 -9.34,-0.289 V 520.52 c 3.01,-0.161 6.18,-0.161 9.34,-0.309 z m 20.15,-0.422 v 79.25 c -3.19,0 -6.2,0 -9.37,-0.148 v -78.95 c 3.17,0 6.18,-0.152 9.37,-0.152 z m 231.83,50.051 v -20.86 c 5.04,3.321 7.9,6.922 7.9,10.512 0,3.598 -2.86,7.047 -7.9,10.348 z m -20.12,8.789 v -38.418 c 3.3,1.148 6.46,2.32 9.2,3.449 v 31.641 c -2.74,1.168 -5.9,2.308 -9.2,3.328 z m -20.29,5.461 v -49.199 c 3.3,0.718 6.47,1.441 9.35,2.3 v 44.579 c -2.88,0.722 -6.05,1.449 -9.35,2.32 z m -20.14,3.879 V 531 c 3.31,0.441 6.33,1.012 9.35,1.602 v 53.64 c -3.02,0.567 -6.04,1.129 -9.35,1.727 z m -20.12,3.011 v -63.128 c 3.15,0.429 6.32,0.839 9.34,1.3 v 60.547 c -3.02,0.41 -6.19,0.852 -9.34,1.281 z m -20.16,2.461 v -68.039 c 3.18,0.418 6.33,0.719 9.36,1.129 v 65.891 c -3.03,0.289 -6.18,0.719 -9.36,1.019 z m -20.11,2.008 v -71.918 c 3.14,0.282 6.18,0.578 9.34,0.848 v 70.203 c -3.16,0.289 -6.2,0.559 -9.34,0.867 z m -20.16,1.43 v -74.777 c 3.18,0.128 6.2,0.269 9.36,0.57 v 73.488 c -3.16,0.289 -6.18,0.582 -9.36,0.719 z m -20.12,1.152 V 520.93 c 3.02,0.152 6.18,0.312 9.21,0.449 v 76.082 c -3.03,0.148 -6.19,0.418 -9.21,0.57 z m -20.14,0.719 v -78.539 c 3.01,0.148 6.19,0.148 9.2,0.309 v 77.941 c -3.01,0 -6.19,0.141 -9.2,0.289 z m -31.08,-78.961 v 79.391 c -1.43,0 -2.87,0 -4.3,0 -1.45,0 -2.88,0 -4.31,0 v -79.391 c 1.43,-0.148 2.86,-0.148 4.31,-0.148 1.43,0 2.87,0 4.3,0.148 z m 10.8,79.25 v -79.25 c 3.17,0 6.33,0.152 9.36,0.152 v 78.95 c -3.03,0.148 -6.19,0.148 -9.36,0.148 z M 3837.8,552.59 c 6.47,0 12.95,0 19.41,0 13.23,-8.777 51.34,-16.688 107.58,-23.438 -38.68,9.047 -60.83,19.25 -60.83,30.34 0,10.918 22.15,21.278 60.83,30.207 -56.24,-6.64 -94.35,-14.668 -107.58,-23.457 -6.46,0 -12.94,0 -19.41,0 -232.29,0 -449.9,-1.14 -636.3,-3.012 -5.32,9.911 -32.37,19.11 -74.36,26.469 25.89,-8.929 40.7,-19.289 40.7,-30.207 0,-11.09 -14.81,-21.293 -40.7,-30.34 41.99,7.457 69.04,16.52 74.36,26.598 186.4,-2.008 404.01,-3.16 636.3,-3.16 z m 1068.2,0 c -6.61,0 -13.08,0 -19.54,0 -13.1,-8.777 -51.35,-16.688 -107.46,-23.438 38.69,9.047 60.84,19.25 60.84,30.34 0,10.918 -22.15,21.278 -60.84,30.207 56.11,-6.64 94.36,-14.668 107.46,-23.457 6.46,0 12.93,0 19.54,0 232.15,0 449.77,-1.14 636.31,-3.012 5.46,9.911 32.36,19.11 74.37,26.469 -25.91,-8.929 -40.72,-19.289 -40.72,-30.207 0,-11.09 14.81,-21.293 40.72,-30.34 -42.01,7.457 -68.91,16.52 -74.37,26.598 -186.39,-2.008 -404.16,-3.16 -636.31,-3.16 z m -534.17,58.68 c 161.23,0 292.69,-23.301 292.69,-51.778 0,-28.633 -131.46,-51.793 -292.69,-51.793 -161.23,0 -292.7,23.16 -292.7,51.793 0,28.477 131.47,51.778 292.7,51.778 v 0"
         style="fill:#362117;fill-opacity:1;fill-rule:evenodd;stroke:none"
         id="path66" /><path
         d="m 4379.88,1094.56 19.42,17.41 -5.47,-25.46 25.46,5.45 -17.4,-19.39 24.74,-7.92 -24.74,-8.06 17.4,-19.41 -25.46,5.45 5.47,-25.45 -19.42,17.4 -8.05,-63.279 -8.05,63.279 -19.28,-17.4 5.32,25.45 -25.45,-5.45 17.53,19.41 -24.87,8.06 24.87,7.92 -17.53,19.39 25.45,-5.45 -5.32,25.46 19.28,-17.41 8.05,64.88 z m 1082.45,-15.82 -525.27,17.25 -523.53,17.27 27.2,-27.19 496.33,-3.58 525.27,-3.75 z m 0,-28.33 -525.27,-17.27 -523.53,-17.24 27.2,27.16 496.33,3.61 525.27,3.74 z m 154.35,9.64 -301.04,-2.16 -866.58,-6.47 13.23,13.23 -13.23,13.09 866.58,-6.48 301.04,-2.14 v -9.07 z m -2335.22,18.69 525.13,17.25 523.52,17.27 -27.03,-27.19 -496.49,-3.58 -525.13,-3.75 z m 0,-28.33 525.13,-17.27 523.52,-17.24 -27.03,27.16 -496.49,3.61 -525.13,3.74 z m -154.32,9.64 300.89,-2.16 866.56,-6.47 -13.09,13.23 13.09,13.09 -866.56,-6.48 -300.89,-2.14 v -9.07 0"
         style="fill:#362117;fill-opacity:1;fill-rule:evenodd;stroke:none"
         id="path68" /></g></g></svg>
