<?xml version="1.0" encoding="utf-8"?>
<!-- Generator: Adobe Illustrator 26.0.0, SVG Export Plug-In . SVG Version: 6.00 Build 0)  -->
<svg version="1.1" id="Ebene_1" xmlns="http://www.w3.org/2000/svg" xmlns:xlink="http://www.w3.org/1999/xlink" x="0px" y="0px"
	 width="453.5433044px" height="159.4374237px" viewBox="0 0 453.5433044 159.4374237"
	 style="enable-background:new 0 0 453.5433044 159.4374237;" xml:space="preserve">
<style type="text/css">
	.st0{fill:#6EC16C;}
	.st1{fill:#FFFFFF;}
	.st2{fill:#026234;}
	.st3{fill:#02873C;}
	.st4{fill:#35A94A;}
</style>
<g>
	<g>
		<g>
			
				<rect x="170.9391174" y="44.9505501" transform="matrix(0.9902681 -0.1391733 0.1391733 0.9902681 -12.093646 28.1926842)" class="st0" width="49.2016411" height="111.2385025"/>
			<g>
				<path class="st1" d="M204.4643097,127.6112747l-10.7251892,1.5073318l0.0211639,11.795105l-8.6138611,1.2106018
					l1.3193054-60.4693222l12.5832672-1.7684631l17.9358215,57.7631912l-9.2896729,1.3055878L204.4643097,127.6112747z
					 M202.1544037,119.7539749l-8.4123077-29.2175598l0.0516815,30.3925705L202.1544037,119.7539749z"/>
			</g>
		</g>
		<g>
			<rect x="0.5001491" y="19.7659836" class="st2" width="49.2016411" height="139.0481415"/>
			<g>
				<path class="st1" d="M20.41012,83.2012482h9.3816986v59.6972351H20.41012V83.2012482z"/>
			</g>
		</g>
		<g>
			<rect x="57.3704224" y="0.5131634" class="st3" width="49.2016411" height="158.3009644"/>
			<g>
				<path class="st1" d="M67.9849243,128.7419128v-3.4114609h8.8694992v4.0931625
					c0,4.2641449,1.8756027,5.7992554,4.8610916,5.7992554c2.9847488,0,4.9458389-1.5351105,4.9458389-5.9694977
					c0-4.946579-2.0465775-8.0168152-8.1870575-13.3893661c-7.8458405-6.9076767-10.4893723-11.8542557-10.4893723-18.6764374
					c0-9.3809662,4.861084-14.8390045,13.9863205-14.8390045s13.6450958,5.4580383,13.6450958,15.0092468v2.4732895h-8.8694992
					v-3.0702438c0-4.2641373-1.7053604-5.8840103-4.6908493-5.8840103c-2.9847488,0-4.7755966,1.619873-4.7755966,5.713768
					c0,4.3488922,2.1320648,7.419136,8.2725449,12.7924271c7.8458405,6.9076691,10.4046249,11.7687607,10.4046249,19.1878967
					c0,9.7221832-4.946579,15.1802216-14.1573029,15.1802216C72.5902786,143.7511597,67.9849243,138.2931213,67.9849243,128.7419128
					z"/>
			</g>
		</g>
		<g>
			<rect x="114.2406921" y="19.7659836" class="st4" width="49.2016411" height="139.0481415"/>
			<g>
				<path class="st1" d="M134.1506653,91.7295227h-9.8069305v-8.5282745h28.9955597v8.5282745h-9.807663v51.1689606h-9.3809662
					V91.7295227z"/>
			</g>
		</g>
	</g>
	<g>
		<path class="st2" d="M261.9572754,23.4723225v17.5577068c0,0.9720688,0.1599121,1.5881805,0.4797668,1.8483353
			c0.3205872,0.2608871,1.107666,0.4620819,2.3642273,0.6043167v1.2440147h-10.9116669v-1.2440147
			c1.2558136-0.1422348,2.0436401-0.3434296,2.3634796-0.6043167c0.3198547-0.2601547,0.4797668-0.8762665,0.4797668-1.8483353
			V23.4723225c0-0.9713345-0.1599121-1.5874462-0.4797668-1.8483353c-0.3198395-0.2601528-1.107666-0.4620838-2.3634796-0.6043205
			v-1.2440147h10.9116669v1.2440147c-1.2565613,0.1422367-2.0436401,0.3441677-2.3642273,0.6043205
			C262.1171875,21.8848763,261.9572754,22.500988,261.9572754,23.4723225z"/>
		<path class="st2" d="M281.4348145,41.9895706V31.6114807c0-1.0420837-0.2137451-1.818119-0.6404419-2.3281059
			c-0.4259644-0.5092506-1.1253662-0.7642441-2.0967102-0.7642441c-1.2322083,0-2.5587769,0.4864044-3.9804077,1.457737v12.0127029
			c0,0.5932655,0.1473999,0.9897575,0.444397,1.1909523c0.2955322,0.201931,0.8703918,0.3257446,1.7237854,0.3729095v1.1732635
			h-9.3124084v-1.1732635c0.8762512-0.0471649,1.4687805-0.1709785,1.7768555-0.3729095
			c0.3080444-0.2011948,0.4620667-0.5976868,0.4620667-1.1909523V29.4079227l-2.1320496-1.2440147v-0.6750698l6.3615723-1.9551964
			h0.8180237l-0.1422424,3.4829464c1.9898376-2.3214722,4.1816101-3.4829464,6.5753174-3.4829464
			c3.3878784,0,5.0821838,1.9316139,5.0821838,5.7933655v10.6625633c0,0.5932655,0.1540222,0.9897575,0.4620667,1.1909523
			c0.308075,0.201931,0.8887939,0.3257446,1.7414856,0.3729095v1.1732635h-9.311676v-1.1732635
			c0.8526611-0.0471649,1.4267578-0.1709785,1.7237854-0.3729095
			C281.2859192,42.9793282,281.4348145,42.5828362,281.4348145,41.9895706z"/>
		<path class="st2" d="M297.8546143,45.0819206c-2.6538391,0-4.7866516-0.5917931-6.3976746-1.7768478l-0.2137451-4.8691978
			h1.3155212c0.4023743,1.6346092,1.0664062,2.9442177,1.9905701,3.9273415
			c0.9241638,0.9831276,2.0377197,1.4746895,3.3406982,1.4746895c0.9956665,0,1.8063354-0.242466,2.434967-0.7281342
			c0.6271667-0.4856644,0.941864-1.2027435,0.941864-2.1504936c0-0.9005852-0.308075-1.5992355-0.9241638-2.0974312
			c-0.6168518-0.4974594-1.6825256-1.0185013-3.1992188-1.5638618c-2.0141602-0.6868629-3.4770508-1.480587-4.3894348-2.3811684
			c-0.9123535-0.8998489-1.3685608-2.1438637-1.3685608-3.7320461c0-1.7532635,0.6043396-3.1328831,1.8129578-4.1403275
			c1.2086487-1.0067101,2.8078918-1.5108013,4.7984619-1.5108013c2.2507019,0,4.1815796,0.52178,5.7933655,1.5638618v4.3009911
			h-1.2086487c-0.3080444-1.3744602-0.8475342-2.4880295-1.6169128-3.3414478
			c-0.7701416-0.8526802-1.7591858-1.2793903-2.967804-1.2793903c-0.9006042,0-1.6058655,0.2373066-2.1151123,0.7111816
			c-0.5092773,0.473875-0.7642517,1.101778-0.7642517,1.8837109c0,0.7819309,0.2844543,1.4157295,0.8534241,1.9013958
			c0.5689392,0.4856682,1.5638428,0.9897575,2.9854736,1.5107994c2.10849,0.7340279,3.6546631,1.5579681,4.6385193,2.4696045
			c0.9823914,0.9123764,1.4747009,2.1858711,1.4747009,3.8212204c0,1.8719177-0.6522217,3.3407097-1.9544678,4.4071121
			C301.8114319,44.5490875,300.0581665,45.0819206,297.8546143,45.0819206z"/>
		<path class="st2" d="M314.4874268,21.2687645v4.6201h4.6208191v1.6353493h-4.6208191v11.7643414
			c0,2.0613213,0.829071,3.09235,2.4880066,3.09235c0.9006042,0,1.7886353-0.3316383,2.6656494-0.9949188l0.4266968,0.6396942
			c-1.3037109,2.0377388-3.1277161,3.0562401-5.4735107,3.0562401c-1.5638428,0-2.7960815-0.444397-3.6966553-1.3324509
			c-0.9006042-0.8887939-1.3501587-2.2802048-1.3501587-4.1764412V27.5242138h-2.2042847v-0.8173065
			c2.3929749-1.0664043,4.4189148-2.879364,6.0778503-5.4381428H314.4874268z"/>
		<path class="st2" d="M328.8459167,25.5336418v16.4559288c0,0.5932655,0.1540222,0.9897575,0.4620667,1.1909523
			c0.308075,0.201931,0.9005737,0.3257446,1.7775879,0.3729095v1.1732635h-9.3831787v-1.1732635
			c0.8762817-0.0471649,1.468811-0.1709785,1.7768555-0.3729095c0.3080444-0.2011948,0.4620972-0.5976868,0.4620972-1.1909523
			V29.4079227l-2.1328125-1.2440147v-0.6750698l6.2554321-1.9551964H328.8459167z M326.3225098,23.400835
			c-0.829834,0-1.5166931-0.2778397-2.0613403-0.8349934c-0.5453491-0.5564175-0.8172913-1.2137985-0.8172913-1.9728832
			c0-0.7819309,0.2719421-1.4444733,0.8172913-1.9898338c0.5446472-0.5453625,1.2315063-0.8180428,2.0613403-0.8180428
			c0.8533936,0,1.552063,0.2726803,2.0974121,0.8180428c0.5446472,0.5453606,0.8173218,1.2079029,0.8173218,1.9898338
			c0,0.7590847-0.2726746,1.4164658-0.8173218,1.9728832C327.8745728,23.1229954,327.1759033,23.400835,326.3225098,23.400835z"/>
		<path class="st2" d="M340.4326477,21.2687645v4.6201h4.6208191v1.6353493h-4.6208191v11.7643414
			c0,2.0613213,0.829071,3.09235,2.4880066,3.09235c0.9006042,0,1.7886353-0.3316383,2.6656494-0.9949188l0.4266968,0.6396942
			c-1.3037109,2.0377388-3.1277161,3.0562401-5.4735107,3.0562401c-1.5638428,0-2.7960815-0.444397-3.6966553-1.3324509
			c-0.9006042-0.8887939-1.3501587-2.2802048-1.3501587-4.1764412V27.5242138h-2.2042847v-0.8173065
			c2.3929749-1.0664043,4.4189148-2.879364,6.0778503-5.4381428H340.4326477z"/>
		<path class="st2" d="M365.7027893,29.7277699v11.2315083c0,0.6632767,0.0766296,1.1017799,0.2306824,1.3147659
			c0.1540222,0.2137222,0.551239,0.3441658,1.1909485,0.3913345l0.8887939,0.0707474v1.0664024l-6.4691772,1.2793922h-0.8880615
			l0.1061096-3.4121971c-0.9234009,1.0435562-1.8719177,1.872654-2.8432312,2.4880295
			c-0.971344,0.6161118-2.0848999,0.9241676-3.3407288,0.9241676c-1.6117554,0-2.8734436-0.473877-3.7850952-1.421627
			c-0.912384-0.9470139-1.3685608-2.3929596-1.3685608-4.3363647v-9.2409363c0-0.6153736-0.1068726-1.0715618-0.3198547-1.3685627
			c-0.2129822-0.2955284-0.6522217-0.5026188-1.3147583-0.6220074l-0.5689392-0.1061249v-1.0664043l6.539917-1.3508759h0.7819214
			l-0.1776123,4.2295036v8.8857136c0,2.2986259,0.9234314,3.4475708,2.7717896,3.4475708
			c1.0428162,0,2.2507019-0.4495544,3.6251526-1.3501396V30.0829926c0-0.6153736-0.1061096-1.0715618-0.3198242-1.3685627
			c-0.2129822-0.2955284-0.6514893-0.5026188-1.3147583-0.6220074l-0.5328369-0.1061249v-1.0664043l6.4684143-1.3508759h0.7819519
			L365.7027893,29.7277699z"/>
		<path class="st2" d="M376.7205811,21.2687645v4.6201h4.6208191v1.6353493h-4.6208191v11.7643414
			c0,2.0613213,0.829071,3.09235,2.4880066,3.09235c0.9006042,0,1.7886353-0.3316383,2.6656494-0.9949188l0.4266968,0.6396942
			c-1.3037109,2.0377388-3.1277161,3.0562401-5.4735107,3.0562401c-1.5638428,0-2.7960815-0.444397-3.6966553-1.3324509
			c-0.9006042-0.8887939-1.3501587-2.2802048-1.3501587-4.1764412V27.5242138h-2.2042847v-0.8173065
			c2.3929749-1.0664043,4.4189148-2.879364,6.0778503-5.4381428H376.7205811z"/>
		<path class="st2" d="M392.2515869,25.5336418c2.3222046,0,4.1108398,0.6875992,5.3674011,2.0613213
			c1.2550659,1.3744602,1.8836975,3.1638355,1.8836975,5.3673935v0.8173065h-11.586731
			c-0.0714722,2.4408607,0.4495544,4.3717384,1.5638733,5.7933655c1.1128235,1.4216232,2.5587769,2.1328049,4.3356323,2.1328049
			c2.2035522,0,3.9685974-0.9595413,5.2958984-2.879364l0.5689392,0.3198471
			c-0.4746094,1.8247528-1.3626709,3.2699623-2.6656494,4.3363647c-1.3037109,1.0664062-2.9501038,1.5992393-4.9406738,1.5992393
			c-2.5587769,0-4.6326294-0.8585777-6.2200623-2.5764656c-1.5874634-1.7178917-2.3811646-3.9509277-2.3811646-6.6998482
			c0-2.9854851,0.8467712-5.4433002,2.5410767-7.3749142C387.7081299,26.4998169,389.7871399,25.5336418,392.2515869,25.5336418z
			 M391.8963623,26.849144c-1.137146,0-2.0377197,0.5092506-2.7010193,1.52775
			c-0.6640015,1.0192375-1.0664062,2.3819046-1.2086182,4.0872669h7.1081238
			C395.0948486,28.7210617,394.0291748,26.849144,391.8963623,26.849144z"/>
		<path class="st2" d="M419.0856018,45.0819206c-2.7246094,0-4.9281616-0.8526802-6.6106873-2.5587807
			c-1.6824951-1.7060966-2.5233765-3.9686127-2.5233765-6.7890167c0-3.0083351,0.8710938-5.4609909,2.6125793-7.3572292
			c1.7414551-1.8955002,3.9501648-2.8432522,6.6283569-2.8432522c2.7245789,0,4.9281311,0.8652096,6.6106567,2.5948925
			c1.6825256,1.729681,2.523407,3.9929333,2.523407,6.7882824c0,2.9854851-0.8703613,5.4263496-2.6118469,7.3218498
			C423.9732056,44.1349068,421.763031,45.0819206,419.0856018,45.0819206z M419.2632141,43.8025284
			c1.2801208,0,2.2337646-0.6750679,2.8616638-2.0259438c0.6271667-1.3508759,0.941864-3.2345848,0.941864-5.6511307
			c0-2.7953453-0.3375244-5.0409107-1.0133362-6.735218c-0.6750793-1.6943073-1.6876831-2.5410919-3.0385437-2.5410919
			c-1.2793884,0-2.2389526,0.6750698-2.8786316,2.0252094c-0.6404419,1.3508759-0.9602966,3.2227917-0.9602966,5.6157551
			c0,2.7968216,0.3434448,5.0475426,1.0310364,6.753643C416.8938293,42.9498482,417.9130859,43.8025284,419.2632141,43.8025284z"/>
		<path class="st2" d="M438.1010437,27.5242138v14.1816196c0,0.6875992,0.2004395,1.1430511,0.6043091,1.3678284
			c0.4024048,0.2255135,1.196106,0.385437,2.3811646,0.4797707v1.1732635h-10.1297302v-1.1732635
			c0.8526917-0.0471649,1.4334412-0.1709785,1.7414856-0.3729095c0.3080444-0.2011948,0.4620972-0.5976868,0.4620972-1.1909523
			V27.5242138h-2.5949097v-0.9595432l2.5949097-0.8534164v-1.4923763c0-2.3929596,0.6750488-4.2118149,2.0259399-5.4558296
			c1.3508606-1.2440147,3.1277161-1.8660221,5.3312683-1.8660221c3.1041565,0,4.6562195,1.0074444,4.6562195,3.0208626
			c0,0.9477501-0.4031372,1.6117649-1.2086487,1.9905701h-2.5941467c0.0943298-0.5210419,0.14151-0.9949169,0.14151-1.4216251
			c0-1.5638618-0.497467-2.3457928-1.4924011-2.3457928c-1.2793884,0-1.9190674,1.04282-1.9190674,3.1277237v4.6201h4.3717346
			v1.6353493H438.1010437z"/>
		<path class="st2" d="M262.2063599,83.4223404c-1.6345825,0-3.1513062-0.2188873-4.5493469-0.6573868
			c-1.3980408-0.4377594-2.5115967-1.0008087-3.3406982-1.6884079l-0.3198395-6.0778427h1.4923706
			c0.4495544,2.1807175,1.2440033,3.8919754,2.3811798,5.1359863c1.1378784,1.2440186,2.5823364,1.8660202,4.3363342,1.8660202
			c1.4452209,0,2.5882874-0.3611145,3.4299011-1.0840912c0.8408813-0.7222366,1.2616882-1.6994629,1.2616882-2.9324265
			c0-1.2793884-0.414917-2.2801971-1.2440186-3.0031738c-0.829834-0.7222366-2.3457642-1.4864807-4.5493469-2.2919922
			c-2.2986145-0.8055115-4.0223999-1.7775879-5.1713409-2.9147415c-1.1496887-1.1371536-1.7237854-2.6892242-1.7237854-4.6562119
			c0-2.1799698,0.7583466-3.9509239,2.2743073-5.313591c1.5166931-1.3619308,3.519043-2.0436325,6.0070801-2.0436325
			c3.0326538,0,5.4963684,0.6993904,7.3926086,2.0966949V65.15345h-1.3147583
			c-0.3323975-1.9190865-1.0133667-3.3937721-2.0436401-4.4248009c-1.0310364-1.0310287-2.3760071-1.5461769-4.0342102-1.5461769
			c-1.2322083,0-2.216095,0.3441696-2.9501038,1.0310287c-0.7347717,0.6875992-1.1017761,1.5992393-1.1017761,2.736393
			c0,1.2086372,0.3670044,2.1504936,1.1017761,2.8255653c0.7340088,0.6758041,2.0848999,1.3685608,4.0518799,2.0797424
			c2.6302795,0.9477539,4.5611572,2.0023651,5.7933655,3.1631012c1.2314758,1.1614685,1.8483276,2.7842941,1.8483276,4.869194
			c0,2.3936996-0.8533936,4.2471924-2.5595093,5.5626907C266.9687195,82.7649536,264.8123169,83.4223404,262.2063599,83.4223404z"/>
		<path class="st2" d="M278.3063354,72.226944c0,2.345787,0.5092468,4.2118149,1.5285034,5.5973282
			c1.0184937,1.3862534,2.4172668,2.0797424,4.1941223,2.0797424c2.1328125,0,3.7909851-0.8762589,4.9760437-2.6302643
			l0.6043396,0.3552246c-0.5453796,1.9190826-1.4459534,3.3650284-2.7017517,4.3363647
			c-1.2558289,0.9720688-2.8078918,1.4570007-4.6554871,1.4570007c-2.4172668,0-4.401947-0.8349991-5.9532776-2.505722
			c-1.5528259-1.6699829-2.328125-3.8794403-2.328125-6.6283569c0-3.0090714,0.8409119-5.4971008,2.523407-7.4640884
			c1.6817932-1.9662476,3.909668-2.9501114,6.6821594-2.9501114c1.8004456,0,3.2338562,0.3618546,4.3002625,1.0840912
			c1.0664062,0.7229691,1.5992432,1.7473679,1.5992432,3.0746613c0,1.1607361-0.4503174,1.9544601-1.3501587,2.3811646h-2.7017517
			c0.0943298-0.7583466,0.1422424-1.3383484,0.1422424-1.7414703c0-2.2978897-0.8652039-3.4475708-2.5941467-3.4475708
			c-1.327301,0-2.3701172,0.6573792-3.1277161,1.9721451C278.6851501,68.5125809,278.3063354,70.1892014,278.3063354,72.226944z"/>
		<path class="st2" d="M298.9202881,63.8740616v16.455925c0,0.5932693,0.1547546,0.9897614,0.4627991,1.1909561
			c0.308075,0.2019272,0.9006042,0.3257446,1.7775879,0.3729095v1.1732635h-9.3839111v-1.1732635
			c0.8762817-0.0471649,1.468811-0.1709824,1.7768555-0.3729095c0.308075-0.2011948,0.4628296-0.5976868,0.4628296-1.1909561
			V67.7483444l-2.1328125-1.2440186v-0.6750717l6.2554626-1.9551926H298.9202881z M296.3968811,61.7412529
			c-0.829834,0-1.5166931-0.2778397-2.0605774-0.8349953c-0.5453796-0.5564156-0.8180542-1.2137985-0.8180542-1.9728813
			c0-0.7819328,0.2726746-1.4444733,0.8180542-1.9898338c0.5438843-0.5453644,1.2307434-0.8180428,2.0605774-0.8180428
			c0.8534241,0,1.552063,0.2726784,2.0974121,0.8180428c0.5453796,0.5453606,0.8180542,1.207901,0.8180542,1.9898338
			c0,0.7590828-0.2726746,1.4164658-0.8180542,1.9728813C297.9489441,61.4634132,297.2503052,61.7412529,296.3968811,61.7412529z"/>
		<path class="st2" d="M312.3553467,63.8740616c2.3222046,0,4.1108398,0.6875992,5.3674011,2.0613174
			c1.2550659,1.3744583,1.8836975,3.1638412,1.8836975,5.3673935v0.8173065h-11.586731
			c-0.0714722,2.4408646,0.4495544,4.3717422,1.5638733,5.7933655c1.1128235,1.4216232,2.5587769,2.1328049,4.3356018,2.1328049
			c2.2035828,0,3.9686279-0.9595413,5.295929-2.879364l0.5689392,0.3198471
			c-0.4746094,1.8247528-1.3626709,3.2699661-2.6656494,4.3363647c-1.3037109,1.0664062-2.9501038,1.5992432-4.9406738,1.5992432
			c-2.5587769,0-4.6326294-0.8585815-6.2200623-2.5764694c-1.5874634-1.7178879-2.3811951-3.9509277-2.3811951-6.6998444
			c0-2.9854889,0.8468018-5.443306,2.5411072-7.3749161C307.8118896,64.8402328,309.8908997,63.8740616,312.3553467,63.8740616z
			 M312.0001221,65.1895599c-1.137146,0-2.0377502,0.5092545-2.7010193,1.5277557
			c-0.6640015,1.0192337-1.0664062,2.3819046-1.2086487,4.087265h7.1081543
			C315.1986084,67.0614777,314.1329346,65.1895599,312.0001221,65.1895599z"/>
		<path class="st2" d="M336.0262451,80.3299866V69.9518967c0-1.0420837-0.2129822-1.8181152-0.639679-2.3281021
			c-0.4259644-0.5092545-1.1253662-0.7642441-2.0967102-0.7642441c-1.2322083,0-2.5587769,0.4864044-3.9811401,1.4577332v12.0127029
			c0,0.5932693,0.1481323,0.9897614,0.444397,1.1909561c0.2962646,0.2019272,0.8711243,0.3257446,1.7237854,0.3729095v1.1732635
			h-9.311676v-1.1732635c0.8762512-0.0471649,1.4687805-0.1709824,1.7768555-0.3729095
			c0.3080444-0.2011948,0.4620667-0.5976868,0.4620667-1.1909561V67.7483444l-2.1328125-1.2440186v-0.6750717l6.3623352-1.9551926
			h0.8172913l-0.1422424,3.4829483c1.9905701-2.3214798,4.1823425-3.4829483,6.5753174-3.4829483
			c3.3886108,0,5.0829163,1.9316101,5.0829163,5.7933655v10.6625595c0,0.5932693,0.1540222,0.9897614,0.4620667,1.1909561
			c0.307312,0.2019272,0.8887939,0.3257446,1.7414856,0.3729095v1.1732635h-9.312439v-1.1732635
			c0.8534241-0.0471649,1.4275208-0.1709824,1.7237854-0.3729095
			C335.8781128,81.3197479,336.0262451,80.9232559,336.0262451,80.3299866z"/>
		<path class="st2" d="M349.9234009,72.226944c0,2.345787,0.5092468,4.2118149,1.5277405,5.5973282
			c1.0185242,1.3862534,2.4172974,2.0797424,4.1941528,2.0797424c2.132782,0,3.7909851-0.8762589,4.9760437-2.6302643
			l0.6043091,0.3552246c-0.5453491,1.9190826-1.4459229,3.3650284-2.7010193,4.3363647
			c-1.2565308,0.9720688-2.8078613,1.4570007-4.656189,1.4570007c-2.4172974,0-4.401947-0.8349991-5.9533081-2.505722
			c-1.552063-1.6699829-2.3280945-3.8794403-2.3280945-6.6283569c0-3.0090714,0.8408813-5.4971008,2.523407-7.4640884
			c1.6825256-1.9662476,3.909668-2.9501114,6.6821594-2.9501114c1.800415,0,3.2338562,0.3618546,4.3002625,1.0840912
			c1.0663757,0.7229691,1.5999451,1.7473679,1.5999451,3.0746613c0,1.1607361-0.4510193,1.9544601-1.3508606,2.3811646h-2.7010193
			c0.0943298-0.7583466,0.1422424-1.3383484,0.1422424-1.7414703c0-2.2978897-0.8652039-3.4475708-2.5948792-3.4475708
			c-1.327301,0-2.3693848,0.6573792-3.1277466,1.9721451C350.3022156,68.5125809,349.9234009,70.1892014,349.9234009,72.226944z"/>
		<path class="st2" d="M372.2427063,63.8740616c2.3222046,0,4.1108398,0.6875992,5.3674011,2.0613174
			c1.2550659,1.3744583,1.8836975,3.1638412,1.8836975,5.3673935v0.8173065h-11.586731
			c-0.0714722,2.4408646,0.4495544,4.3717422,1.5638733,5.7933655c1.1128235,1.4216232,2.5587769,2.1328049,4.3356323,2.1328049
			c2.2035522,0,3.9685974-0.9595413,5.2958984-2.879364l0.5689392,0.3198471
			c-0.4746094,1.8247528-1.3626709,3.2699661-2.6656494,4.3363647c-1.3037109,1.0664062-2.9501038,1.5992432-4.9406738,1.5992432
			c-2.5587769,0-4.6326294-0.8585815-6.2200623-2.5764694c-1.5874634-1.7178879-2.3811646-3.9509277-2.3811646-6.6998444
			c0-2.9854889,0.8467712-5.443306,2.5410767-7.3749161C367.6992493,64.8402328,369.7782593,63.8740616,372.2427063,63.8740616z
			 M371.8874817,65.1895599c-1.137146,0-2.0377502,0.5092545-2.7010193,1.5277557
			c-0.6640015,1.0192337-1.0664062,2.3819046-1.2086487,4.087265h7.1081543
			C375.085968,67.0614777,374.0202942,65.1895599,371.8874817,65.1895599z"/>
		<path class="st2" d="M405.1184387,69.7027969v9.4192886c0,1.3272934,0.3905945,1.98983,1.1725159,1.98983
			c0.4267273,0,0.9006042-0.1179123,1.4223633-0.355217l0.2130127,0.781929
			c-1.0664062,1.256546-2.4172974,1.8837128-4.0519104,1.8837128c-0.9477539,0-1.7296753-0.2726822-2.3457947-0.8173065
			c-0.6160889-0.5446243-1.0192261-1.3147659-1.2086182-2.3104172c-1.5638733,2.0384674-3.4114685,3.0569687-5.544281,3.0569687
			c-1.4459534,0-2.6066895-0.4090195-3.4829407-1.226326c-0.8770142-0.8173065-1.3154907-1.9367676-1.3154907-3.3591309
			c0-1.3973083,0.4208069-2.4813995,1.2616882-3.2515411c0.8408813-0.770134,2.0436401-1.4511032,3.6074829-2.0436325
			l5.3674011-1.9551926v-3.0208664c0-2.3222122-0.8416138-3.4836807-2.523407-3.4836807
			c-1.5881653,0-2.381897,0.9956512-2.381897,2.9862213c0,0.6396942,0.0943298,1.3744583,0.2844849,2.2035599l-2.9501343,0.3905945
			c-1.0428162-0.355217-1.5638428-1.1017761-1.5638428-2.2389297c0-1.4216232,0.6514893-2.523407,1.9551697-3.305336
			c1.3029785-0.781929,2.9855042-1.1732635,5.046814-1.1732635c2.3457947,0,4.10495,0.4620819,5.2782288,1.3862534
			C404.5317993,66.1844788,405.1184387,67.665802,405.1184387,69.7027969z M397.4767456,80.5790863
			c0.8055115,0,1.7178955-0.3788071,2.7371216-1.1371536v-6.6467819l-3.0569763,1.2440109
			c-0.8055115,0.3080597-1.4098206,0.7111816-1.8122253,1.2086411c-0.4038696,0.4974594-0.6043091,1.2204361-0.6043091,2.1681824
			c0,0.9720688,0.2306824,1.741478,0.692749,2.3104172C395.8952026,80.2946167,396.5761719,80.5790863,397.4767456,80.5790863z"/>
		<path class="st2" d="M423.4573364,80.3299866V69.9518967c0-1.0420837-0.2129822-1.8181152-0.639679-2.3281021
			c-0.4259949-0.5092545-1.1253662-0.7642441-2.0967102-0.7642441c-1.2322083,0-2.5587769,0.4864044-3.9811401,1.4577332v12.0127029
			c0,0.5932693,0.1481323,0.9897614,0.444397,1.1909561c0.2962646,0.2019272,0.8710938,0.3257446,1.7237854,0.3729095v1.1732635
			h-9.311676v-1.1732635c0.8762512-0.0471649,1.4687805-0.1709824,1.776825-0.3729095
			c0.308075-0.2011948,0.4620972-0.5976868,0.4620972-1.1909561V67.7483444l-2.1328125-1.2440186v-0.6750717l6.3623047-1.9551926
			h0.8173218l-0.1422424,3.4829483c1.9905701-2.3214798,4.1823425-3.4829483,6.5752869-3.4829483
			c3.3886108,0,5.0829163,1.9316101,5.0829163,5.7933655v10.6625595c0,0.5932693,0.1540527,0.9897614,0.4620972,1.1909561
			c0.307312,0.2019272,0.8887939,0.3257446,1.7414551,0.3729095v1.1732635h-9.3124084v-1.1732635
			c0.8534241-0.0471649,1.4275208-0.1709824,1.7237854-0.3729095
			C423.3092041,81.3197479,423.4573364,80.9232559,423.4573364,80.3299866z"/>
		<path class="st2" d="M445.7420044,58.7918777l-2.1320801-1.1017799v-0.7465553l6.2908325-1.7061005h0.7819214v24.0622559
			c0,0.6632767,0.0766602,1.1017761,0.2306824,1.3147659c0.1540222,0.2137222,0.5512695,0.344162,1.1909485,0.3913345
			l0.8887939,0.0707474v1.0663986l-6.4691772,1.2793961h-0.9234314l0.14151-3.305336
			c-1.5402832,2.2035522-3.4475708,3.305336-5.7218933,3.305336c-2.1563721,0-3.8919678-0.8047791-5.2067261-2.4165421
			c-1.3154907-1.6110306-1.9728699-3.7674255-1.9728699-6.4691772c0-3.2699585,0.8526611-5.8523178,2.5587769-7.7478256
			c1.7060852-1.8955002,3.8742676-2.8432503,6.5045471-2.8432503c1.6582031,0,2.9375916,0.4141808,3.8381653,1.2440147V58.7918777z
			 M442.436676,65.4732971c-1.4695435,0-2.6243896,0.6640167-3.465271,1.9905701
			c-0.8408813,1.3272934-1.2616882,3.1159363-1.2616882,5.3666611c0,2.2278748,0.444397,4.04673,1.3331909,5.4558258
			c0.888031,1.4105682,2.1143799,2.1151199,3.6782227,2.1151199c1.1843262,0,2.1917725-0.3788071,3.020874-1.1371536v-9.3831711
			c0-1.3980408-0.2837524-2.482132-0.8526917-3.2522736S443.5030823,65.4732971,442.436676,65.4732971z"/>
		<path class="st2" d="M253.9603577,96.4564896h21.9294434l0.5335693,8.21064h-1.137146
			c-1.2329712-2.8432465-2.1925049-4.7092743-2.879364-5.5980606c-0.6876221-0.8887939-1.6825256-1.3331909-2.9855042-1.3331909
			h-1.8836975v20.0818481c0,0.9241638,0.2012024,1.5049057,0.6043091,1.7414703
			c0.4024048,0.2373047,1.2676086,0.4384995,2.5949097,0.6043243v1.2440109h-11.5874634v-1.2440109
			c0.7347412-0.0943375,1.2499084-0.1658249,1.5461731-0.2129898s0.6043091-0.1540298,0.9241638-0.3198471
			c0.3198242-0.1658173,0.5210266-0.385437,0.6043091-0.6581192c0.08255-0.2719421,0.1245422-0.6573792,0.1245422-1.1548386
			V97.735878h-1.8836975c-0.6875916,0-1.2617188,0.0950699-1.7237854,0.2844696
			c-0.4620972,0.1901398-0.9300537,0.6043243-1.4039307,1.2440186c-0.4746094,0.6396942-0.8887939,1.3213959-1.2440186,2.0436325
			c-0.3552246,0.7229691-0.8652191,1.8431778-1.5284882,3.3591309h-1.1371613L253.9603577,96.4564896z"/>
		<path class="st2" d="M285.0953674,102.2144775c2.3214722,0,4.1101074,0.6875992,5.3666382,2.0613174
			c1.2557983,1.3744659,1.883728,3.1638412,1.883728,5.3673935v0.8173065h-11.586731
			c-0.0715027,2.4408646,0.4495544,4.3717422,1.5638428,5.7933655c1.1135864,1.4216309,2.5587769,2.1328125,4.3363647,2.1328125
			c2.2035522,0,3.9678955-0.9595413,5.295166-2.879364l0.5689697,0.3198471
			c-0.4746399,1.8247528-1.3626709,3.2699585-2.6656494,4.3363647c-1.3037109,1.0663986-2.9501038,1.5992355-4.9406738,1.5992355
			c-2.5587769,0-4.6326294-0.8585739-6.2193604-2.5764694c-1.5881653-1.7178879-2.381897-3.9509277-2.381897-6.6998444
			c0-2.9854889,0.8475342-5.4432983,2.5418396-7.3749161C280.551178,103.1806564,282.630188,102.2144775,285.0953674,102.2144775z
			 M284.7394104,103.5299759c-1.1371765,0-2.0377502,0.5092545-2.7010193,1.5277557
			c-0.6632996,1.0192337-1.0664062,2.3819046-1.2086487,4.087265h7.1088562
			C287.9385986,105.4018936,286.8721924,103.5299759,284.7394104,103.5299759z"/>
		<path class="st2" d="M299.6322021,110.5673599c0,2.3457947,0.5092468,4.2118149,1.5277405,5.5973282
			c1.0184937,1.3862534,2.4172974,2.0797424,4.1941223,2.0797424c2.1328125,0,3.7910156-0.8762589,4.9760742-2.6302643
			l0.6043091,0.3552246c-0.5453491,1.9190826-1.4459534,3.3650284-2.7010193,4.3363647
			c-1.2565308,0.9720688-2.8078613,1.4570007-4.656189,1.4570007c-2.4172974,0-4.4019775-0.8349915-5.9533081-2.5057144
			c-1.552063-1.6699905-2.3280945-3.8794403-2.3280945-6.6283646c0-3.0090714,0.8408813-5.4971008,2.523407-7.4640884
			c1.6824951-1.9662476,3.9096375-2.9501114,6.6821594-2.9501114c1.800415,0,3.2338257,0.3618546,4.3002319,1.0840912
			c1.0664062,0.7229767,1.5999756,1.7473679,1.5999756,3.0746613c0,1.1607361-0.4510193,1.9544601-1.3508606,2.3811722h-2.7010193
			c0.0943298-0.7583542,0.1422424-1.3383484,0.1422424-1.741478c0-2.2978897-0.8652039-3.4475708-2.5949097-3.4475708
			c-1.3272705,0-2.3693542,0.6573868-3.1277161,1.9721451C300.0110168,106.8530045,299.6322021,108.5296249,299.6322021,110.5673599
			z"/>
		<path class="st2" d="M315.0924683,118.6704025V97.1322937l-2.1320801-1.1017761v-0.7465591l6.2908325-1.7061005h0.7819214
			v12.1195679c1.942688-2.3214722,4.1226501-3.4829483,6.539917-3.4829483c3.4114685,0,5.1175842,1.9434052,5.1175842,5.828743
			v10.627182c0,0.5932693,0.1540222,0.9897614,0.4620667,1.1909561c0.3080444,0.2019348,0.8887939,0.3257446,1.7414856,0.3729095
			v1.1732635h-9.3117065v-1.1732635c0.8526917-0.0471649,1.4267883-0.1709747,1.7237854-0.3729095
			c0.2955322-0.2011948,0.444397-0.5976868,0.444397-1.1909561v-10.3780899c0-2.0613174-0.9241638-3.0923462-2.7724915-3.0923462
			c-1.2086487,0-2.523407,0.4864044-3.9450378,1.4577408v12.0126953c0,0.5932693,0.1473999,0.9897614,0.444397,1.1909561
			c0.2955322,0.2019348,0.8703918,0.3257446,1.7237854,0.3729095v1.1732635h-9.3124084v-1.1732635
			c0.8534241-0.0471649,1.4334106-0.1709747,1.7414551-0.3729095
			C314.938446,119.6601639,315.0924683,119.2636719,315.0924683,118.6704025z"/>
		<path class="st2" d="M350.6338501,118.6704025v-10.3780899c0-1.0420837-0.2129822-1.8181152-0.6397095-2.3281021
			c-0.4259644-0.5092545-1.1253357-0.7642441-2.0966797-0.7642441c-1.2322388,0-2.5587769,0.4864044-3.9811401,1.4577408v12.0126953
			c0,0.5932693,0.1481323,0.9897614,0.444397,1.1909561c0.2962646,0.2019348,0.8710938,0.3257446,1.7237854,0.3729095v1.1732635
			h-9.311676v-1.1732635c0.8762512-0.0471649,1.4687805-0.1709747,1.776825-0.3729095
			c0.308075-0.2011948,0.4620972-0.5976868,0.4620972-1.1909561v-12.5816422l-2.1328125-1.2440186v-0.6750641l6.3623047-1.9552002
			h0.8173218l-0.1422424,3.4829483c1.9905701-2.3214722,4.1823425-3.4829483,6.5752869-3.4829483
			c3.3886108,0,5.0829163,1.9316101,5.0829163,5.7933655v10.6625595c0,0.5932693,0.1540222,0.9897614,0.4620972,1.1909561
			c0.307312,0.2019348,0.8887939,0.3257446,1.7414551,0.3729095v1.1732635h-9.3124084v-1.1732635
			c0.8534241-0.0471649,1.4275208-0.1709747,1.7237854-0.3729095
			C350.4857178,119.6601639,350.6338501,119.2636719,350.6338501,118.6704025z"/>
		<path class="st2" d="M369.3287048,121.7627563c-2.7246094,0-4.9281616-0.852684-6.6106567-2.5587769
			c-1.6825256-1.7061005-2.523407-3.9686203-2.523407-6.7890244c0-3.0083313,0.8710938-5.4609909,2.6125793-7.3572235
			c1.7414551-1.8955002,3.9501648-2.8432541,6.6283569-2.8432541c2.7245789,0,4.9281311,0.8652115,6.6106567,2.5948944
			c1.6825256,1.7296753,2.523407,3.9929276,2.523407,6.7882767c0,2.9854889-0.8703613,5.4263535-2.6118469,7.3218536
			C374.2163086,120.8157425,372.006134,121.7627563,369.3287048,121.7627563z M369.5063171,120.4833679
			c1.2801208,0,2.2337646-0.6750717,2.8616638-2.0259476c0.6271667-1.3508759,0.941864-3.2345886,0.941864-5.6511307
			c0-2.7953491-0.3375244-5.0409088-1.0133362-6.7352219c-0.6750793-1.6943054-1.6876831-2.5410919-3.0385437-2.5410919
			c-1.2793884,0-2.2389526,0.6750717-2.8786316,2.0252151c-0.6404419,1.3508759-0.9602966,3.2227936-0.9602966,5.6157532
			c0,2.7968216,0.3434448,5.0475464,1.0310364,6.7536392C367.1369324,119.6306839,368.156189,120.4833679,369.5063171,120.4833679z"
			/>
		<path class="st2" d="M388.2372742,93.577858v25.0925446c0,0.5932693,0.1540222,0.9897614,0.4620972,1.1909561
			c0.307312,0.2019348,0.8887939,0.3257446,1.7414551,0.3729095v1.1732635h-9.3477783v-1.1732635
			c0.8534241-0.0471649,1.4334106-0.1709747,1.7414551-0.3729095c0.308075-0.2011948,0.4620972-0.5976868,0.4620972-1.1909561
			V97.1322937l-2.1320801-1.1017761v-0.7465591l6.2908325-1.7061005H388.2372742z"/>
		<path class="st2" d="M402.0621948,121.7627563c-2.7245789,0-4.9281311-0.852684-6.6106567-2.5587769
			c-1.6825256-1.7061005-2.523407-3.9686203-2.523407-6.7890244c0-3.0083313,0.8710938-5.4609909,2.6125793-7.3572235
			c1.7414856-1.8955002,3.9501953-2.8432541,6.6283569-2.8432541c2.7246094,0,4.9281616,0.8652115,6.6106567,2.5948944
			c1.6825256,1.7296753,2.523407,3.9929276,2.523407,6.7882767c0,2.9854889-0.8703613,5.4263535-2.6118469,7.3218536
			C406.9498291,120.8157425,404.739624,121.7627563,402.0621948,121.7627563z M402.2398071,120.4833679
			c1.2801208,0,2.2337952-0.6750717,2.8616943-2.0259476c0.6271667-1.3508759,0.9418335-3.2345886,0.9418335-5.6511307
			c0-2.7953491-0.3375244-5.0409088-1.0133362-6.7352219c-0.6750793-1.6943054-1.6876831-2.5410919-3.0385437-2.5410919
			c-1.2793884,0-2.2389221,0.6750717-2.8786316,2.0252151c-0.6404419,1.3508759-0.9602661,3.2227936-0.9602661,5.6157532
			c0,2.7968216,0.3434143,5.0475464,1.0310059,6.7536392C399.8704529,119.6306839,400.889679,120.4833679,402.2398071,120.4833679z"
			/>
		<path class="st2" d="M422.4277954,114.6900024c-1.327301,0-2.523407-0.1894073-3.5898132-0.5689468
			c-0.8055115,0.7590866-1.2086487,1.4695282-1.2086487,2.1328049c0,0.8055191,0.4141846,1.2086411,1.2440186,1.2086411h7.3218384
			c2.0377502,0,3.5898132,0.4208145,4.6562195,1.2617035s1.5992432,2.0436325,1.5992432,3.6074982
			c0,2.1799698-0.9720764,3.8860703-2.9147339,5.1182938c-1.942688,1.2314911-4.4306946,1.8483276-7.4633484,1.8483276
			c-2.6302795,0-4.6915894-0.385437-6.1847229-1.1555786c-1.4923706-0.770134-2.2389221-1.8660126-2.2389221-3.2876434
			c0-1.5402756,1.1135864-2.6538467,3.3407288-3.3407059c-0.6876221-0.2608948-1.2263489-0.6809692-1.6169434-1.2617035
			c-0.3913269-0.5807343-0.5866394-1.238121-0.5866394-1.9728851c0-1.5874481,1.1017761-3.0798187,3.3053589-4.4785995
			c-2.1799927-1.0664062-3.2699585-2.7599716-3.2699585-5.0821838c0-1.9905701,0.7229614-3.5721207,2.1681824-4.7453842
			c1.4451904-1.1725311,3.3053284-1.7591629,5.5803528-1.7591629c0.9241943,0,1.9780579,0.1658173,3.1631165,0.4974594
			l6.0063477-0.1422348v2.0620575h-1.4570007l-2.4880371-0.1068649c0.663269,0.426712,1.2027588,1.0015488,1.6169434,1.7237854
			c0.414917,0.7229767,0.6219788,1.5108032,0.6219788,2.3634796c0,1.8483353-0.7052612,3.3230286-2.1143799,4.4248047
			C426.5091553,114.1387405,424.6784973,114.6900024,422.4277954,114.6900024z M426.1237183,121.9764786h-8.5651245
			c-0.4502869,0.5203018-0.6758118,1.219696-0.6758118,2.0966949c0,1.1843185,0.4856567,2.1261749,1.4577332,2.8255615
			c0.971344,0.6986542,2.2978821,1.0487213,3.9804077,1.0487213c1.8719177,0,3.4416809-0.3257446,4.709259-0.9772339
			c1.2676086-0.6522217,1.9013977-1.6058655,1.9013977-2.8616714
			C428.9315796,122.6869202,427.995636,121.9764786,426.1237183,121.9764786z M422.6407776,113.5167389
			c1.8247375,0,2.7371216-1.5992432,2.7371216-4.7977142c0-1.5159607-0.2608948-2.7783966-0.7819214-3.7851105
			c-0.5217896-1.0074387-1.2683411-1.5107956-2.2396851-1.5107956c-1.8719177,0-2.8078613,1.5756531-2.8078613,4.7269592
			c0,1.5402832,0.2667847,2.8204041,0.800354,3.8389053C420.8816223,113.0074844,421.6458435,113.5167389,422.6407776,113.5167389z"
			/>
		<path class="st2" d="M445.2098999,116.4668503l3.9811401-10.5203247c0.1651001-0.4023895,0.2483521-0.7340317,0.2483521-0.9949188
			c0-0.4031296-0.1599121-0.6758118-0.4797668-0.8180466c-0.3198242-0.1422348-0.9654236-0.2719421-1.9367676-0.3905945v-1.1732635
			h6.1132202v1.1732635c-0.5925293,0.1658173-1.0015564,0.337532-1.2263184,0.5151443
			c-0.2255249,0.1776123-0.4208374,0.4569244-0.5866394,0.8357315l-7.8193054,19.6905136
			c-0.6161194,1.5395432-1.2793884,2.6656418-1.9905701,3.376091c-0.7104492,0.7111816-1.6110229,1.066391-2.7010193,1.066391
			c-0.6161194,0-1.1850586-0.1481323-1.7061157-0.444397c-0.5210266-0.2962494-0.8652039-0.692749-1.0302734-1.1902084v-1.8129578
			c0.8998413,0.2129822,1.7060852,0.3198471,2.4165344,0.3198471c1.0184937,0,1.8247681-0.1776123,2.4172974-0.5328369
			c0.5917664-0.355957,1.0656433-1.0074463,1.4216003-1.9551926l0.6043396-1.5284882l-7.6416931-16.9887619
			c-0.1665649-0.4031219-0.3559875-0.6875992-0.5689697-0.8534164c-0.2129822-0.1650848-0.6278992-0.3316422-1.2440186-0.4974594
			v-1.1732635h9.6676636v1.1732635c-0.9477539,0.1186523-1.5874634,0.2483597-1.9190979,0.3905945
			c-0.3323669,0.1422348-0.4981995,0.414917-0.4981995,0.8180466c0,0.2365646,0.0715027,0.5682068,0.2137451,0.9949188
			L445.2098999,116.4668503z"/>
		<path class="st2" d="M270.4162903,154.6642914l-1.634613-4.01651h-9.560791l-1.5284729,3.9811401
			c-0.2130127,0.5453644-0.3198547,1.0074463-0.3198547,1.3862457c0,0.5682068,0.2314148,0.9654388,0.6934814,1.1902161
			c0.4620972,0.2255096,1.249176,0.3618622,2.3634949,0.4090271v1.2440186h-7.3218536v-1.2440186
			c0.5689392-0.070755,1.0126038-0.1952972,1.3324432-0.3729095c0.3198547-0.1776123,0.5748444-0.4915619,0.7642517-0.941864
			l7.7485657-19.9042358l-1.1017761-2.6656342h5.5442505l9.1348267,22.56987
			c0.2837219,0.7104492,0.9823608,1.1489563,2.0966797,1.3147736v1.2440186h-10.8762817v-1.2440186
			c1.0899963-0.0471649,1.8601379-0.1835175,2.3104248-0.4090271c0.4502869-0.2247772,0.6758118-0.6094818,0.6758118-1.1548462
			C270.7368774,155.6481628,270.6300049,155.1860657,270.4162903,154.6642914z M263.9124756,138.4213562l-4.1226501,10.6986694
			h8.3875122L263.9124756,138.4213562z"/>
		<path class="st2" d="M297.2510376,143.8594971v11.2315063c0,0.6632843,0.0766296,1.1017761,0.2306519,1.3147583
			c0.1540527,0.2137299,0.5512695,0.3441772,1.190979,0.3913422l0.8887939,0.0707397v1.0664062l-6.4691772,1.2793884h-0.8880615
			l0.1068726-3.4121857c-0.9249268,1.0435486-1.8726807,1.8726501-2.8439941,2.4880219
			c-0.9720764,0.6161194-2.0856323,0.9241638-3.3407288,0.9241638c-1.6117554,0-2.8734436-0.473877-3.7858276-1.4216156
			c-0.912384-0.9470215-1.3678284-2.3929596-1.3678284-4.3363647v-9.2409363c0-0.615387-0.1068726-1.0715637-0.3198547-1.368576
			c-0.2137146-0.295517-0.6522217-0.5026093-1.3154907-0.621994l-0.5682068-0.1061249v-1.0664062l6.5391846-1.3508759h0.7819214
			l-0.1776123,4.2294922v8.8857269c0,2.2986145,0.9241638,3.4475708,2.7724915,3.4475708
			c1.0420837,0,2.2507324-0.4495544,3.625946-1.3501434v-10.6986694c0-0.615387-0.1068726-1.0715637-0.3205872-1.368576
			c-0.2129822-0.295517-0.6522217-0.5026093-1.3147583-0.621994l-0.5335999-0.1061249v-1.0664062l6.4691772-1.3508759h0.7819519
			L297.2510376,143.8594971z"/>
		<path class="st2" d="M309.228363,159.2136383c-2.6538696,0-4.7866516-0.5917816-6.3977051-1.7768402l-0.2129822-4.8692017
			h1.3147888c0.4023743,1.634613,1.0663757,2.9442139,1.9905701,3.9273376
			c0.9241638,0.983139,2.0377197,1.4747009,3.3406982,1.4747009c0.995636,0,1.8063354-0.2424774,2.434967-0.7281342
			c0.6271667-0.485672,0.941864-1.2027435,0.941864-2.1504974c0-0.900589-0.308075-1.5992432-0.9241943-2.0974274
			c-0.6168213-0.497467-1.6824951-1.0185089-3.1991882-1.5638733c-2.0141602-0.6868591-3.4770508-1.4805756-4.3894348-2.3811646
			c-0.912384-0.8998413-1.3678284-2.1438599-1.3678284-3.7320404c0-1.7532654,0.6035767-3.1328888,1.8122253-4.1403351
			c1.2086487-1.0066986,2.8078918-1.5108032,4.7984619-1.5108032c2.2507019,0,4.1815796,0.5217896,5.793335,1.5638733v4.3009796
			h-1.2086182c-0.308075-1.3744507-0.8475342-2.4880219-1.6169434-3.3414459
			c-0.7701416-0.8526764-1.7591553-1.2793884-2.9677734-1.2793884c-0.9006042,0-1.605896,0.2373047-2.1151428,0.7111816
			s-0.7642212,1.1017761-0.7642212,1.8837128s0.2844543,1.4157257,0.8533936,1.9013977
			c0.5689697,0.485672,1.5638733,0.9897614,2.9855042,1.5108032c2.10849,0.734024,3.6546631,1.5579681,4.6385193,2.4696045
			c0.9823914,0.9123688,1.4747009,2.1858673,1.4747009,3.8212128c0,1.8719177-0.6522522,3.3407135-1.9544678,4.4071198
			C313.1851807,158.6808167,311.4319153,159.2136383,309.228363,159.2136383z"/>
		<path class="st2" d="M325.8618774,135.4004822v4.6201019h4.6208496v1.6353607h-4.6208496v11.764328
			c0,2.0613251,0.8291016,3.0923615,2.4880371,3.0923615c0.9006042,0,1.7886353-0.3316498,2.6656494-0.9949188l0.4266968,0.6396942
			c-1.3037109,2.037735-3.1277161,3.0562286-5.4735107,3.0562286c-1.5638733,0-2.7960815-0.444397-3.6966553-1.3324432
			c-0.9006042-0.8887939-1.3501587-2.2802124-1.3501587-4.1764374v-12.0488129h-2.2042847v-0.8173065
			c2.3929443-1.0664062,4.4189148-2.879364,6.0778503-5.4381561H325.8618774z"/>
		<path class="st2" d="M340.3979797,146.0276794v9.8098755c0,0.6876068,0.2070923,1.1430511,0.6220093,1.3678284
			c0.414917,0.2255096,1.2145386,0.385437,2.3995972,0.4797668v1.1732788h-10.1651001v-1.1732788
			c0.8762817-0.0471649,1.468811-0.1709747,1.7768555-0.3729095c0.3080444-0.2011871,0.4620667-0.5976868,0.4620667-1.1909485
			v-12.5816498l-2.132782-1.2440033v-0.6750793l6.3623047-1.9552002h0.8172913l-0.1422424,5.2605438
			c0.8770142-1.9905701,1.6530457-3.3643036,2.328125-4.1233826c0.6758118-0.7576141,1.522583-1.1371613,2.5418091-1.1371613
			c0.7104492,0,1.2315063,0.2019348,1.5638733,0.6043243v3.838913h-0.6758118c-1.3272705,0-2.411377,0.1127472-3.2522583,0.3375244
			C342.0628357,144.6716461,341.2270813,145.1985779,340.3979797,146.0276794z"/>
		<path class="st2" d="M356.0712585,139.6653595v16.4559326c0,0.5932617,0.1540222,0.9897614,0.4620667,1.1909485
			c0.308075,0.2019348,0.9006042,0.3257446,1.7775879,0.3729095v1.1732788h-9.3831787v-1.1732788
			c0.8762817-0.0471649,1.468811-0.1709747,1.7768555-0.3729095c0.308075-0.2011871,0.4620972-0.5976868,0.4620972-1.1909485
			v-12.5816498l-2.1328125-1.2440033v-0.6750793l6.2554321-1.9552002H356.0712585z M353.5478516,137.5325623
			c-0.829834,0-1.5166931-0.2778473-2.0613098-0.8349915c-0.5453796-0.556427-0.8173218-1.2138062-0.8173218-1.9728851
			c0-0.7819366,0.2719421-1.4444733,0.8173218-1.9898376c0.5446167-0.5453644,1.2314758-0.8180389,2.0613098-0.8180389
			c0.8534241,0,1.552063,0.2726746,2.0974426,0.8180389c0.5446167,0.5453644,0.8172913,1.207901,0.8172913,1.9898376
			c0,0.759079-0.2726746,1.4164581-0.8172913,1.9728851C355.0999146,137.254715,354.4012756,137.5325623,353.5478516,137.5325623z"
			/>
		<path class="st2" d="M375.8686218,145.4941101v9.419281c0,1.3272858,0.3905945,1.9898376,1.1725159,1.9898376
			c0.4267273,0,0.9006042-0.1179199,1.4223633-0.3552246l0.2130127,0.7819366
			c-1.0664062,1.2565308-2.4172974,1.8836975-4.0519104,1.8836975c-0.9477539,0-1.7296753-0.2726746-2.3457947-0.8173065
			c-0.6161194-0.5446167-1.0192261-1.3147583-1.2086182-2.3104095c-1.5638733,2.0384674-3.4114685,3.0569763-5.544281,3.0569763
			c-1.4459534,0-2.6066895-0.4090271-3.4829407-1.2263336c-0.8770142-0.8173065-1.3155212-1.9367676-1.3155212-3.3591309
			c0-1.3973083,0.4208374-2.4813995,1.2617188-3.2515411s2.0436401-1.4510956,3.6074829-2.0436249l5.3674011-1.9552002v-3.0208588
			c0-2.3222198-0.8416138-3.4836884-2.523407-3.4836884c-1.5881653,0-2.381897,0.9956512-2.381897,2.9862213
			c0,0.6396942,0.0943298,1.3744659,0.2844543,2.2035522l-2.9501038,0.3906097
			c-1.0428162-0.3552246-1.5638428-1.1017914-1.5638428-2.2389374c0-1.4216309,0.6514587-2.523407,1.9551697-3.3053284
			c1.3029785-0.7819366,2.9855042-1.1732788,5.046814-1.1732788c2.3457947,0,4.10495,0.4620972,5.2782288,1.386261
			C375.2819824,141.9757843,375.8686218,143.4571075,375.8686218,145.4941101z M368.2269287,156.3703918
			c0.8055115,0,1.7178955-0.3787994,2.7371216-1.137146v-6.6467896l-3.0569763,1.2440186
			c-0.8055115,0.3080444-1.4098206,0.7111816-1.8122253,1.2086334c-0.4038696,0.497467-0.6043091,1.2204285-0.6043091,2.1681824
			c0,0.9720764,0.2306824,1.7414703,0.692749,2.3104248C366.6453857,156.0859222,367.326355,156.3703918,368.2269287,156.3703918z"
			/>
	</g>
</g>
</svg>
