<?xml version="1.0" encoding="utf-8"?>
<!-- Generator: Adobe Illustrator 26.0.3, SVG Export Plug-In . SVG Version: 6.00 Build 0)  -->
<svg version="1.0" id="Layer_1" xmlns="http://www.w3.org/2000/svg" xmlns:xlink="http://www.w3.org/1999/xlink" x="0px" y="0px"
	 viewBox="0 0 249 179.6" style="enable-background:new 0 0 249 179.6;" xml:space="preserve">
<style type="text/css">
	.st0{fill:#0071BB;}
</style>
<polygon class="st0" points="203.1,117.4 221,113.6 204.8,108.5 "/>
<path class="st0" d="M201.3,109.8h-126c-3,0-4.3,3.4-5.6,6.6c-0.4,1.3-1,2.5-1.7,3.6c-1-1-1.7-5.6-1.9-7.4l-0.2-1
	c-1-6.2-1.8-12.8-2.7-19.1C59.5,64.8,57.8,55.1,52.6,55c-6.5-0.1-8.8,11.3-15.6,45.3l-0.9,4.5c-1,5-3.3,5-4.3,5h-3.1l-0.8,4.4h3.8
	c2.6,0,7.1-1.1,8.6-8.6l0.9-4.4c4.2-21,8.2-40.7,11-41.7c2.4,2.6,4.8,20.5,6.6,33.7c0.8,6.4,1.7,13,2.7,19.2l0.2,1
	c0.8,5,1.7,11.3,6.4,11.3c3,0,4.3-3.4,5.6-6.6c0.4-1.3,1.1-2.6,1.8-3.8h125L201.3,109.8z"/>
<polygon class="st0" points="83.9,76.4 100.4,76.4 101,92 101.2,92 108,76.4 124.5,76.4 118.6,105 108.6,105 113.3,82.5 113,82.5 
	102.6,105 93.4,105 92.4,82.5 92.2,82.5 87.5,105 78,105 "/>
<polygon class="st0" points="140.6,76.4 134.4,105 122.7,105 128.9,76.4 "/>
<path class="st0" d="M153.1,90.7h2.9c4.5,0,6.1-2.3,6.1-4.2c0-0.9-0.5-2.9-4.1-2.9h-3.3L153.1,90.7z M162.8,76.4
	c6.1,0,10,3.6,10,8.5c0,5.3-4.3,12-14.6,12h-6.4L150,105h-11.2l6-28.5L162.8,76.4z"/>
<polygon class="st0" points="204.9,76.4 203.2,84.8 193.5,84.8 189.4,105 178.3,105 182.4,84.8 172.7,84.8 174.5,76.4 "/>
</svg>
