<?xml version="1.0" encoding="utf-8"?>
<!-- Generator: Adobe Illustrator 26.3.1, SVG Export Plug-In . SVG Version: 6.00 Build 0)  -->
<svg version="1.1" id="Layer_1" xmlns="http://www.w3.org/2000/svg" xmlns:xlink="http://www.w3.org/1999/xlink" x="0px" y="0px"
	 viewBox="0 0 173.8 64" style="enable-background:new 0 0 173.8 64;" xml:space="preserve">
<style type="text/css">
	.st0{fill:#1C4975;stroke:#FFFFFF;stroke-width:2.5625;}
	.st1{fill:#052D52;stroke:#FFFFFF;stroke-width:2.5625;}
	.st2{fill:#052D52;stroke:#FFFFFF;stroke-width:2.1354;}
</style>
<path class="st0" d="M44,29l-0.6,0.4l0,0.7l0,10.5L3.8,9.2L1.7,7.5l0,2.6l0,41.9l0,0.6l0.5,0.4l7.2,5.7l2.1,1.6l0-2.6l0-30.4
	l39.7,31.4l2.1,1.6l0-2.6l0-32.4l0-2.3l-2,1.2L44,29z"/>
<path class="st0" d="M54.6,3l-0.7-0.6l-0.8,0.5L29.9,17.6l-1.5,1l1.4,1.1l6.1,4.9l0.7,0.6l0.8-0.5L60.6,9.9l1.5-1l-1.4-1.1L54.6,3z"
	/>
<path class="st1" d="M12.8,28.2l-2.1-1.6l0,2.6l0,28.8l0,2.3l2-1.2l7.3-4.5l0.6-0.4l0-0.7l0-18.7l0-0.6L20,33.8L12.8,28.2z"/>
<path class="st1" d="M61.7,54.3l0.6-0.4v-0.7v-43V7.8l-2,1.2L37.4,23.6l-1.5,1l1.4,1.1l5.3,4.3l0.7,0.6l0.8-0.5l8.3-5.3l0,33.1
	l0,2.3l2-1.3L61.7,54.3z"/>
<path class="st2" d="M44,30.3l0-0.5l-0.4-0.3L11.8,4.3l-0.6-0.5l-0.6,0.4L4,8.2L2.7,9L3.9,10l38.4,30.4l1.7,1.4l0-2.2L44,30.3z"/>
<path d="M75.2,28.8V13.9h2.9l8.8,10.8h-1.4V13.9H89v14.9h-2.8l-8.8-10.8h1.4v10.8H75.2z M96,19.9h7.2v2.7H96V19.9z M96.2,26.1h8.1
	v2.8H92.8V13.9h11.3v2.8h-7.9V26.1z M114.1,29.1c-2.1,0-3.8-0.6-5-1.8c-1.2-1.2-1.8-2.9-1.8-5.1v-8.4h3.5v8.2c0,1.4,0.3,2.4,0.9,3.1
	s1.4,0.9,2.5,0.9c1.1,0,1.9-0.3,2.5-0.9c0.6-0.6,0.9-1.7,0.9-3.1v-8.2h3.4v8.4c0,2.2-0.6,3.9-1.8,5.1
	C117.9,28.5,116.2,29.1,114.1,29.1z M124.6,28.8V13.9h6.5c1.3,0,2.5,0.2,3.5,0.7c1,0.4,1.7,1,2.2,1.9c0.5,0.8,0.8,1.8,0.8,2.9
	c0,1.1-0.3,2.1-0.8,2.9c-0.5,0.8-1.3,1.4-2.2,1.8c-1,0.4-2.1,0.6-3.5,0.6h-4.5l1.5-1.5v5.7H124.6z M134.1,28.8l-3.7-5.4h3.7l3.8,5.4
	H134.1z M128.1,23.5l-1.5-1.6h4.4c1.1,0,1.9-0.2,2.4-0.7c0.5-0.5,0.8-1.1,0.8-1.9c0-0.8-0.3-1.5-0.8-1.9c-0.5-0.5-1.3-0.7-2.4-0.7
	h-4.4l1.5-1.6V23.5z M138.7,28.8l6.7-14.9h3.4l6.7,14.9h-3.6l-5.5-13.2h1.4l-5.5,13.2H138.7z M142,25.6l0.9-2.6h7.7l0.9,2.6H142z
	 M157.3,28.8V13.9h3.5V26h7.5v2.8H157.3z M75.2,50.8V35.9h2.9l6.4,10.5h-1.5l6.3-10.5H92l0,14.9h-3.2l0-10h0.6l-5,8.4h-1.6l-5.1-8.4
	h0.7v10H75.2z M94,50.8l6.7-14.9h3.4l6.7,14.9h-3.6l-5.5-13.2h1.4l-5.5,13.2H94z M97.3,47.6l0.9-2.6h7.7l0.9,2.6H97.3z M119.6,51.1
	c-1.2,0-2.3-0.2-3.3-0.6c-1-0.4-1.8-0.9-2.6-1.6c-0.7-0.7-1.3-1.5-1.7-2.5c-0.4-0.9-0.6-2-0.6-3.1c0-1.1,0.2-2.2,0.6-3.1
	c0.4-0.9,1-1.8,1.7-2.5c0.7-0.7,1.6-1.2,2.6-1.6c1-0.4,2.1-0.6,3.3-0.6c1.3,0,2.5,0.2,3.6,0.7c1.1,0.4,2,1.1,2.7,1.9l-2.2,2
	c-0.5-0.6-1.1-1-1.8-1.3c-0.6-0.3-1.3-0.4-2.1-0.4c-0.7,0-1.4,0.1-2,0.3c-0.6,0.2-1.1,0.6-1.6,1c-0.4,0.4-0.8,0.9-1,1.5
	c-0.2,0.6-0.3,1.2-0.3,1.9c0,0.7,0.1,1.3,0.3,1.9c0.2,0.6,0.6,1.1,1,1.5c0.4,0.4,1,0.8,1.5,1c0.6,0.2,1.3,0.3,2,0.3
	c0.7,0,1.3-0.1,2-0.3c0.7-0.2,1.3-0.6,1.9-1.1l2,2.5c-0.8,0.6-1.8,1.1-2.8,1.4C121.8,50.9,120.7,51.1,119.6,51.1z M122.5,48.7v-5.6
	h3.2v6.1L122.5,48.7z M129.2,50.8V35.9h3.5v14.9H129.2z M143.7,51.1c-1.2,0-2.2-0.2-3.2-0.6c-1-0.4-1.8-0.9-2.6-1.6
	c-0.7-0.7-1.3-1.5-1.7-2.5c-0.4-0.9-0.6-2-0.6-3.1c0-1.1,0.2-2.2,0.6-3.1c0.4-0.9,1-1.8,1.7-2.5c0.7-0.7,1.6-1.2,2.6-1.6
	c1-0.4,2.1-0.6,3.2-0.6c1.3,0,2.5,0.2,3.5,0.7c1.1,0.4,1.9,1.1,2.6,2l-2.2,2.1c-0.5-0.6-1.1-1-1.7-1.3c-0.6-0.3-1.3-0.4-2.1-0.4
	c-0.7,0-1.3,0.1-1.9,0.3c-0.6,0.2-1.1,0.6-1.5,1c-0.4,0.4-0.8,0.9-1,1.5c-0.2,0.6-0.3,1.2-0.3,1.9s0.1,1.4,0.3,1.9
	c0.2,0.6,0.6,1.1,1,1.5c0.4,0.4,0.9,0.8,1.5,1c0.6,0.2,1.2,0.3,1.9,0.3c0.7,0,1.4-0.1,2.1-0.4c0.6-0.3,1.2-0.7,1.7-1.3l2.2,2
	c-0.7,0.9-1.6,1.5-2.6,2C146.2,50.9,145,51.1,143.7,51.1z"/>
</svg>
