<?xml version="1.0" encoding="utf-8"?>
<!-- Generator: Adobe Illustrator 19.2.1, SVG Export Plug-In . SVG Version: 6.00 Build 0)  -->
<svg version="1.1" id="layer" xmlns="http://www.w3.org/2000/svg" xmlns:xlink="http://www.w3.org/1999/xlink" x="0px" y="0px"
	 viewBox="0 0 652 652" style="enable-background:new 0 0 652 652;" xml:space="preserve">
<style type="text/css">
	.st0{fill:#ED6D0B;}
	.st1{fill:#FFFFFF;}
</style>
<path class="st0" d="M55.6,373.6c8.7,11,18.8,20.8,30.1,29.2c11.3-8.4,21.4-18.2,30.1-29.2l-30.1-29.3L55.6,373.6z"/>
<path class="st0" d="M41.6,352.7l44.1-42.3l44.2,42.5c7.5-13.3,13-27.7,16.3-42.6c0.2-0.7,0.3-1.4,0.4-2.2H24.8
	C28.1,323.7,33.8,338.7,41.6,352.7z"/>
<path class="st0" d="M41.6,352.7c4.1,7.3,8.8,14.4,14.1,21l30-29.2l30.1,29.3c5.2-6.6,9.9-13.6,14-20.9l-44.2-42.5L41.6,352.7z"/>
<path d="M85.7,343.6l-30,29.2c-5-6.3-9.4-13-13.4-20l43.4-41.7l43.5,41.8c-3.9,7-8.4,13.7-13.4,20L85.7,343.6z"/>
<path d="M85.7,311.9l42.7,41.1c-3.8,6.6-8,13-12.7,19l-29.2-28.4l-0.8-0.8l-0.8,0.8l-29.1,28.3c-4.7-6-9-12.4-12.7-19L85.7,311.9
	 M85.7,310.3l-44.1,42.3c4.1,7.3,8.8,14.4,14.1,21l30-29.2l30.1,29.3c5.2-6.6,9.9-13.6,14-20.9L85.7,310.3L85.7,310.3z"/>
<path d="M149.4,262.9c-5.3,1.6-10.8,2.4-16.4,2.4c-19.3,0.1-37.2-9.9-47.3-26.4c-10.1,16.5-28,26.5-47.3,26.4
	c-5.5,0-11.1-0.8-16.4-2.4c-1.3,15.1-0.4,30.3,2.7,45.2h121.8C149.8,293.2,150.7,278,149.4,262.9z"/>
<path class="st1" d="M115.8,281.5v-5.2h-3.2v-3.7l-3.3-0.9H109v-3.1c0,0-1.1,1.4-6.4,1.4c-5,0-7.9-1.6-11.8-1.6
	c-1.9-0.2-3.8,0.6-5,2.2v1.3h-0.1v-1.3c-1.2-1.6-3-2.4-5-2.2c-4,0-6.9,1.6-11.8,1.6c-5.2,0-6.2-1.4-6.2-1.4v3.3h-0.2l-3.6,0.8v3.7
	h-3.2v5.2h3.2v8.4h-3.2v5.2h3.2v6.4c3.4,0.5,6.8,0.8,10.3,0.8c5.8,0,9.2-0.8,13-0.9v1.6c1.1,0.5,2.3,0.8,3.6,0.8
	c1.3,0,2.5-0.3,3.7-0.8v-1.6c3.8,0.1,7.1,0.9,13,0.9c3.4-0.1,6.8-0.3,10.2-0.8v-6.4h3.2v-5.2h-3.2v-8.4H115.8z"/>
<path d="M109.5,271.4l0-4l-1,1c0,0-1.2,1.2-6,1.2l-6.5-0.9l-5.3-0.7c-1.9-0.1-3.7,0.6-5,1.9c-1.3-1.4-3.2-2.1-5-1.9l-5.3,0.8
	l-6.5,0.9c-4.7,0-5.7-1.1-5.7-1.1l-1-1.2l0,1.5v2.7l-3.9,0.8v29.8l0.5,0.1c3.4,0.5,6.9,0.8,10.3,0.8c4.2-0.1,8.3-0.4,12.4-0.9v1.4
	l0.3,0.2c1.2,0.5,2.5,0.8,3.8,0.8c1.3,0,2.7-0.3,3.9-0.8l0.3-0.2v-1.4c4.1,0.5,8.3,0.8,12.4,0.9c3.5-0.1,6.9-0.3,10.3-0.8l0.5-0.1
	v-29.7L109.5,271.4z M86.3,271.1c1.1-1.4,2.8-2.1,4.5-1.9l5.1,0.7l6.7,0.9c2,0.1,4-0.2,5.9-1V298c-1.9,0.6-3.9,0.9-5.9,0.9l-6.5-0.9
	l-5.3-0.7c-1.6-0.1-3.2,0.4-4.5,1.4L86.3,271.1z M63.2,269.9c1.8,0.7,3.7,1,5.6,0.9l6.7-0.9l5.1-0.7c1.7-0.2,3.4,0.5,4.5,1.9v27.6
	c-1.3-1-2.9-1.5-4.5-1.4l-5.3,0.8l-6.5,0.9c-4.7,0-5.7-1.1-5.7-1.1C63.1,297.7,63.2,271.8,63.2,269.9L63.2,269.9z M112,301.2
	c-3.2,0.5-6.4,0.7-9.7,0.8c-4.3-0.1-8.6-0.4-12.9-0.9l-0.6-0.1v1.9c-1,0.4-2.1,0.6-3.1,0.6c-1,0-2-0.2-3-0.6V301l-0.6,0.1
	c-4.3,0.5-8.6,0.8-12.9,0.9c-3.2,0-6.5-0.3-9.7-0.8v-27.9c0.5-0.1,2-0.4,2.8-0.6V298c0.3,0.6,1.4,1.9,6.7,1.9l6.7-0.9l5.1-0.7
	c1.7-0.2,3.5,0.5,4.5,1.9l0.2-0.1h0.8l0.2,0.1c1.1-1.4,2.8-2.1,4.5-1.9l5.1,0.7l6.7,0.9c5.4,0,6.7-1.4,6.8-1.6l0.1-25.8
	c0.7,0.2,2,0.6,2.4,0.7V301.2z"/>
<path d="M71,274.8c-0.4,0-0.7,0.2-0.8,0.6l-1.8,3.9c0,0-0.1,0.1-0.1,0.1c-0.1,0-0.1-0.1-0.2-0.2s-0.3-0.7-0.7-1.8l-0.6-1.3
	c-0.2-0.5-0.4-0.8-0.4-0.9c-0.2-0.3-0.4-0.4-0.7-0.4c0,0,0-0.1,0-0.1c0,0,0-0.1,0-0.1h0.3c0.3,0,0.6,0,0.9,0c0.3,0,0.8,0,1.1,0h0.2
	c0,0,0,0.1,0,0.1c0,0,0,0.1,0,0.1c-0.2,0-0.7,0-0.7,0.3c0,0.1,0,0.2,0,0.3l1.2,2.8l1-2.3c0.1-0.2,0.1-0.4,0.1-0.6
	c0-0.3-0.2-0.4-0.7-0.4c0,0,0-0.1,0-0.1c0,0,0-0.1,0-0.1h0.1c0.2,0,0.4,0,0.9,0c0.1,0,0.4,0,0.6,0H71c0,0,0,0.1,0,0.1
	C71.1,274.8,71.1,274.8,71,274.8z"/>
<path d="M76,279.3c-1.4,0-2.2,0-2.4,0c-0.2,0-0.5,0-0.7,0c-0.2,0-0.6,0-1.1,0h-0.3c0,0,0-0.1,0-0.1c0,0,0-0.1,0-0.1
	c0.2,0,0.5-0.1,0.7-0.2c0.1-0.2,0.2-0.5,0.2-0.7c0-0.2,0-0.5,0-0.7c0-0.4,0-0.8,0-1.3v-0.7c0-0.5-0.3-0.5-0.8-0.6c0,0,0-0.1,0-0.1
	c0,0,0-0.1,0-0.1h0.3c0.2,0,0.6,0,1.5,0c0.8,0,1.6,0,1.8,0c0.1,0,0.4,0,0.5,0c0.1,0,0.2,0,0.2,0.1l0.1,1.1c-0.1,0-0.1,0-0.1,0
	c0,0-0.1,0-0.1,0c-0.2-0.3-0.4-0.6-0.7-0.8c-0.1-0.1-0.3-0.1-0.4-0.1c-0.1,0-0.2,0-0.6,0c-0.3,0-0.5,0-0.5,0c0,0,0,0-0.1,0.2
	c0,0.1,0,0.3,0,0.9v0.6h0.2c0.2,0,0.4,0,0.5-0.1c0.2-0.1,0.4-0.2,0.5-0.3c0-0.1,0.1-0.3,0.1-0.4c0,0,0.1,0,0.2,0c0,0,0.1,0,0.1,0
	c0,0.2,0,0.6,0,1c0,0.2,0,0.7,0,0.9c0,0-0.1,0-0.1,0c0,0-0.1,0-0.1,0c0-0.4-0.1-0.7-0.4-0.8c-0.2-0.1-0.3-0.1-0.5-0.1
	c-0.1,0-0.2,0-0.3,0v1.2c0,0.2,0,0.4,0.1,0.6c0.1,0.1,0.2,0.2,0.3,0.3c0.1,0,0.3,0,0.4,0h0.7c0.2,0,0.3,0,0.5-0.1
	c0.3-0.3,0.6-0.6,0.7-1c0,0,0.1,0,0.1,0c0,0,0.1,0,0.1,0v1.2C76.2,279.2,76.2,279.3,76,279.3z"/>
<path d="M81.6,276.1c0,0-0.1,0-0.1,0c-0.1-0.2-0.2-0.5-0.3-0.7c-0.2-0.3-0.5-0.4-0.9-0.5c-0.1,0-0.4,0-0.5,0v2.1c0,0.3,0,0.7,0,1.4
	c0,0.5,0.2,0.5,0.8,0.6c0,0,0,0.1,0,0.1c0,0,0,0.1,0,0.1h-0.2c-0.3,0-1,0-1.2,0c-0.1,0-0.9,0-1.2,0c0,0,0-0.1,0-0.1c0,0,0-0.1,0-0.1
	c0.7-0.1,0.8-0.2,0.8-0.4c0-0.2,0-0.8,0-1.4v-1.7c0-0.2,0-0.4,0-0.6c-0.2,0-0.5,0-0.7,0.1c-0.4,0.2-0.8,0.6-0.9,1c0,0-0.1,0-0.1,0
	c0,0-0.1,0-0.1,0v-1.2c0-0.1,0-0.1,0.1-0.1c0.1,0,0.3,0,0.5,0c0.2,0,0.8,0,1.7,0c1.1,0,2,0,2.2,0c0.1,0,0.2,0,0.2,0
	c0,0.1,0,0.1,0,0.2v1.2C81.7,276,81.7,276.1,81.6,276.1z"/>
<path d="M70.8,283.4c0,0-0.1,0-0.1,0c-0.1-0.2-0.2-0.5-0.3-0.7c-0.2-0.3-0.5-0.4-0.9-0.5c-0.1,0-0.4,0-0.5,0v2.1c0,0.3,0,0.7,0,1.4
	c0,0.5,0.3,0.5,0.8,0.6c0,0,0,0.1,0,0.1c0,0,0,0.1,0,0.1h-0.2c-0.3,0-1,0-1.2,0c-0.1,0-0.9,0-1.2,0c0,0,0-0.1,0-0.1c0,0,0-0.1,0-0.1
	c0.7-0.1,0.8-0.2,0.9-0.4c0-0.2,0-0.8,0-1.4v-1.7c0-0.2,0-0.4,0-0.6c-0.2,0-0.5,0-0.7,0.1c-0.4,0.2-0.8,0.6-0.9,1c0,0-0.1,0-0.1,0
	c0,0-0.1,0-0.1,0V282c0-0.1,0-0.1,0.1-0.1s0.3,0,0.5,0c0.2,0,0.9,0,1.7,0c1.1,0,2,0,2.2,0c0.1,0,0.2,0,0.2,0c0,0,0,0.1,0,0.2
	L70.8,283.4C70.9,283.3,70.9,283.4,70.8,283.4z"/>
<path d="M76.2,286.6c-1.4,0-2.2,0-2.4,0c-0.2,0-0.5,0-0.7,0c-0.2,0-0.6,0-1.1,0h-0.3c0,0,0-0.1,0-0.1c0-0.1,0-0.1,0-0.2
	c0.2,0,0.5-0.1,0.7-0.2c0.1-0.1,0.1-0.3,0.2-0.7c0-0.2,0-0.5,0-0.7c0-0.4,0-0.8,0-1.3c0-0.4,0-0.6,0-0.7c0-0.5-0.2-0.5-0.8-0.6
	c0,0,0-0.1,0-0.1c0,0,0-0.1,0.1-0.1h0.2c0.2,0,0.6,0,1.5,0c0.8,0,1.6,0,1.8,0h0.5c0.1,0,0.2,0,0.2,0.1l0.1,1.1c0,0-0.1,0-0.1,0
	c0,0-0.1,0-0.1,0c-0.2-0.3-0.4-0.6-0.7-0.8c-0.1-0.1-0.3-0.1-0.4-0.1c-0.1,0-0.2,0-0.6,0c-0.3,0-0.5,0-0.5,0s-0.1,0-0.1,0.2
	c0,0.1,0,0.3,0,0.9v0.6h0.2c0.2,0,0.4,0,0.5-0.1c0.2-0.1,0.4-0.2,0.5-0.3c0-0.1,0.1-0.3,0.1-0.4c0,0,0.1,0,0.2,0c0,0,0.1,0,0.1,0
	c0,0.2-0.1,0.6-0.1,1c0,0.2,0,0.7,0,0.9c0,0-0.1,0-0.1,0c0,0-0.1,0-0.1,0c0-0.4-0.1-0.7-0.4-0.8c-0.2-0.1-0.3-0.1-0.5-0.1
	c-0.1,0-0.2,0-0.3,0v1.2c0,0.2,0,0.4,0.1,0.6c0,0.1,0.2,0.2,0.3,0.3c0.1,0,0.3,0,0.4,0h0.7c0.2,0,0.3,0,0.5-0.1
	c0.3-0.3,0.6-0.6,0.8-1c0,0,0.1,0,0.1,0c0,0,0.1,0,0.1,0v1.2C76.4,286.6,76.3,286.6,76.2,286.6z"/>
<path d="M79.4,286.7c-0.4,0-0.7-0.1-1.1-0.3c-0.1,0-0.1,0-0.2,0c-0.1,0-0.2,0.1-0.3,0.2c-0.1,0-0.2,0-0.3-0.1c0-0.1,0.1-0.4,0.1-0.6
	c0-0.1,0-0.6,0-0.8c0-0.1,0.1-0.1,0.2-0.1h0.1c0.1,0.3,0.3,0.6,0.4,0.9c0.3,0.3,0.6,0.5,1,0.5c0.3,0,0.5-0.1,0.8-0.2
	c0.2-0.1,0.3-0.3,0.3-0.6c0-0.2,0-0.3-0.1-0.4c-0.1-0.2-0.3-0.3-0.5-0.3c-0.2-0.1-0.9-0.3-1.2-0.4c-0.2-0.1-0.5-0.3-0.6-0.5
	c-0.2-0.2-0.3-0.5-0.3-0.9c0-0.7,0.6-1.3,1.4-1.3c0,0,0.1,0,0.1,0c0.4,0,0.8,0.1,1.1,0.3c0.1-0.1,0.2-0.2,0.3-0.3
	c0.1,0,0.2,0,0.2,0.1c0,0.2-0.1,0.4-0.1,0.6c0,0.1,0.1,0.6,0.1,0.7c-0.1,0-0.1,0.1-0.2,0.1c0,0-0.1,0-0.1,0
	c-0.1-0.2-0.2-0.6-0.4-0.8c-0.2-0.3-0.6-0.4-0.9-0.4c-0.4,0-0.8,0.3-0.8,0.7c0,0,0,0,0,0c0,0.4,0.3,0.6,0.6,0.7
	c0.2,0.1,0.4,0.2,0.7,0.2c0.3,0.1,0.5,0.2,0.7,0.3c0.5,0.2,0.8,0.7,0.8,1.2C81,286.1,80.3,286.7,79.4,286.7
	C79.5,286.7,79.5,286.7,79.4,286.7z"/>
<path d="M72.7,293.9c-1.4,0-2.2,0-2.4,0c-0.2,0-0.5,0-0.7,0s-0.6,0-1.1,0h-0.3c0,0,0-0.1,0-0.1c0,0,0-0.1,0-0.1
	c0.2,0,0.5-0.1,0.7-0.2c0.1-0.2,0.2-0.5,0.2-0.7c0-0.2,0-0.5,0-0.7c0-0.4,0-0.8,0-1.3v-0.7c0-0.5-0.3-0.5-0.8-0.6c0,0,0-0.1,0-0.1
	c0,0,0-0.1,0-0.1h0.3c0.2,0,0.6,0,1.5,0c0.8,0,1.6,0,1.8,0c0.1,0,0.4,0,0.5,0c0.1,0,0.2,0,0.2,0.1l0.1,1.1c-0.1,0-0.1,0-0.1,0
	c0,0-0.1,0-0.1,0c-0.2-0.3-0.4-0.6-0.7-0.8c-0.1-0.1-0.3-0.1-0.4-0.1c-0.1,0-0.2,0-0.6,0c-0.3,0-0.5,0-0.5,0s0,0-0.1,0.2
	c0,0.1,0,0.3,0,0.9v0.6h0.2c0.2,0,0.4,0,0.5-0.1c0.2-0.1,0.4-0.2,0.5-0.3c0-0.1,0.1-0.3,0.1-0.4c0,0,0.1,0,0.2,0c0,0,0.1,0,0.1,0
	c0,0.2,0,0.6,0,1c0,0.2,0,0.7,0,0.9c0,0-0.1,0-0.1,0c0,0-0.1,0-0.1,0c0-0.4-0.1-0.7-0.4-0.8c-0.2-0.1-0.3-0.1-0.5-0.1
	c-0.1,0-0.2,0-0.3,0v1.2c0,0.2,0,0.4,0.1,0.6c0.1,0.1,0.2,0.2,0.3,0.3c0.1,0,0.3,0,0.4,0h0.7c0.2,0,0.3,0,0.5-0.1
	c0.3-0.3,0.6-0.6,0.7-1c0.1,0,0.2,0,0.3,0v1.2C72.9,293.9,72.9,293.9,72.7,293.9z"/>
<path d="M79.5,289.5c-0.5,0-0.9,0.3-0.9,1v2.4c0,0.1,0,0.8,0,1c-0.1,0-0.1,0.1-0.2,0.1c0,0-0.1,0-0.1-0.1l-3.3-3.5l0,0.7v1.3
	c0,0.1,0,0.3,0,0.5c0,0.2,0.1,0.4,0.2,0.5c0.2,0.1,0.4,0.2,0.6,0.2c0,0,0,0.1,0,0.1c0,0,0,0.1,0,0.1h-0.4c-0.3,0-0.5,0-0.9,0
	c-0.2,0-0.5,0-0.7,0h-0.2c0,0,0-0.1,0-0.1c0,0,0-0.1,0-0.1c0.3,0,0.5-0.1,0.7-0.3c0.1-0.2,0.1-0.4,0.1-0.6v-1.7c0-0.3,0-0.4,0-0.7
	c0-0.2-0.1-0.4-0.2-0.5c-0.1-0.1-0.1-0.2-0.2-0.2c-0.2-0.1-0.3-0.2-0.5-0.2c0,0,0-0.1,0-0.1c0,0,0-0.1,0-0.1h0.1c0.1,0,0.6,0,1,0
	h0.2c0.1,0,0.1,0.1,0.1,0.1l2.4,2.7c0.2,0.2,0.4,0.5,0.6,0.6v-1.9c0-0.3,0-0.4,0-0.5c0-0.2-0.1-0.3-0.1-0.5
	c-0.1-0.1-0.5-0.2-0.8-0.2c0,0,0-0.1,0-0.1c0,0,0-0.1,0-0.1h0.1c0.2,0,0.6,0,0.8,0c0.6,0,0.7,0,1,0h0.2c0,0,0,0.1,0,0.1
	C79.5,289.4,79.5,289.4,79.5,289.5z"/>
<path d="M94.9,274.8c-0.5,0-0.9,0.3-0.9,1v2.4c0,0.1,0,0.8,0,1c-0.1,0-0.1,0.1-0.2,0.1c0,0-0.1,0-0.1-0.1l-3.3-3.5l0,0.7v1.3
	c0,0.1,0,0.3,0,0.5c0,0.2,0.1,0.4,0.2,0.5c0.2,0.1,0.4,0.2,0.6,0.2c0,0,0,0.1,0,0.1c0,0,0,0.1,0,0.1H91c-0.3,0-0.5,0-0.9,0
	c-0.2,0-0.5,0-0.7,0h-0.2c0,0,0-0.1,0-0.1c0,0,0-0.1,0-0.1c0.3,0,0.5-0.1,0.7-0.3c0.1-0.2,0.1-0.4,0.1-0.6v-1.7c0-0.3,0-0.4,0-0.7
	c0-0.2-0.1-0.4-0.2-0.5c-0.1-0.1-0.1-0.2-0.2-0.2c-0.2-0.1-0.3-0.2-0.5-0.2c0,0,0-0.1,0-0.1c0,0,0-0.1,0-0.1h0.1c0.1,0,0.6,0,1,0
	h0.2c0.1,0,0.1,0.1,0.2,0.1l2.4,2.7c0.2,0.2,0.4,0.5,0.6,0.6v-1.9c0-0.2,0-0.4,0-0.5c0-0.2-0.1-0.3-0.1-0.5
	c-0.1-0.1-0.5-0.2-0.8-0.2c0,0,0-0.1,0-0.1c0,0,0-0.1,0-0.1h0.1c0.2,0,0.6,0,0.8,0c0.6,0,0.7,0,1,0h0.2c0,0,0,0.1,0,0.1
	C94.9,274.7,94.9,274.8,94.9,274.8z"/>
<path d="M99.8,278.7c-0.9,0.9-2.4,0.9-3.3,0c0,0,0,0,0,0c-0.9-1-0.9-2.5,0-3.5c0.4-0.4,1-0.7,1.6-0.7c0.4,0,0.9,0.1,1.2,0.3
	c0.7,0.4,1.1,1.2,1.1,2.1C100.5,277.5,100.2,278.2,99.8,278.7z M99,275.2c-0.2-0.3-0.6-0.5-0.9-0.5c-0.4,0-0.7,0.2-0.9,0.5
	c-0.3,0.5-0.5,1.1-0.4,1.7c0,0.6,0.1,1.1,0.4,1.6c0.2,0.3,0.5,0.5,0.9,0.5c0.4,0,0.8-0.2,1-0.6c0.2-0.5,0.3-1,0.3-1.5
	C99.5,276.3,99.3,275.7,99,275.2z"/>
<path d="M106.4,274.8c-0.4,0-0.7,0.2-0.8,0.6l-1.8,3.9c0,0-0.1,0.1-0.1,0.1c-0.1,0-0.1-0.1-0.2-0.2s-0.3-0.7-0.7-1.8l-0.6-1.3
	c-0.2-0.5-0.4-0.8-0.4-0.9c-0.2-0.3-0.4-0.4-0.7-0.4c0,0,0-0.1,0-0.1c0,0,0-0.1,0-0.1h0.3c0.3,0,0.6,0,0.9,0c0.3,0,0.8,0,1.1,0h0.2
	c0,0,0.1,0.1,0.1,0.1c0,0,0,0.1,0,0.1c-0.2,0-0.7,0-0.7,0.3c0,0.1,0,0.2,0,0.3l1.2,2.8l1-2.3c0.1-0.2,0.1-0.4,0.1-0.6
	c0-0.3-0.2-0.4-0.7-0.4c0,0,0-0.1,0-0.1c0,0,0-0.1,0-0.1h0.1c0.2,0,0.4,0,0.9,0c0.1,0,0.4,0,0.6,0h0.3
	C106.5,274.7,106.5,274.8,106.4,274.8L106.4,274.8z"/>
<path d="M93.4,283.4c0,0-0.1,0-0.1,0c-0.1-0.2-0.2-0.5-0.3-0.7c-0.2-0.3-0.5-0.5-0.9-0.5c-0.1,0-0.4,0-0.5,0v2.1c0,0.3,0,0.7,0,1.4
	c0,0.5,0.3,0.5,0.8,0.6c0,0,0,0.1,0,0.1c0,0,0,0.1,0,0.1h-0.2c-0.3,0-1,0-1.2,0c-0.1,0-0.9,0-1.2,0c0,0,0-0.1,0-0.1c0,0,0-0.1,0-0.1
	c0.7-0.1,0.8-0.2,0.9-0.4c0-0.2,0-0.8,0-1.4v-1.7c0-0.2,0-0.4,0-0.6c-0.2,0-0.5,0-0.7,0.1c-0.4,0.2-0.8,0.6-0.9,1c0,0-0.1,0-0.1,0
	c0,0-0.1,0-0.1,0V282c0-0.1,0-0.1,0.1-0.1c0.1,0,0.3,0,0.5,0c0.2,0,0.9,0,1.7,0c1.1,0,2,0,2.2,0c0.1,0,0.2,0,0.2,0c0,0,0,0.1,0,0.2
	L93.4,283.4C93.5,283.3,93.4,283.4,93.4,283.4z"/>
<path d="M99,286.6h-0.4c-0.2,0-0.5,0-0.8,0c-0.4,0-1,0-1.2,0c0,0,0-0.1,0-0.1c0,0,0-0.1,0-0.1c0.5,0,0.6-0.1,0.6-0.3
	c0-0.2-0.1-0.4-0.1-0.6c-0.1-0.3-0.2-0.5-0.2-0.6c0,0,0-0.1-0.1-0.1h-1.5c-0.2,0.3-0.3,0.6-0.3,0.9c0,0.1,0,0.2,0,0.3
	c0,0.2,0.1,0.3,0.7,0.3c0,0,0,0.1,0,0.1c0,0,0,0.1,0,0.1h-0.1c-0.3,0-0.4,0-0.8,0c-0.2,0-0.8,0-1,0c0,0,0-0.1,0-0.1c0,0,0-0.1,0-0.1
	c0.3,0,0.5-0.1,0.7-0.3c0.2-0.4,0.4-0.8,0.6-1.2c0.3-0.6,0.6-1.4,0.7-1.7c0.2-0.4,0.3-0.5,0.3-0.7c0.1-0.2,0.2-0.4,0.2-0.5
	c0-0.1,0.1-0.1,0.2-0.1c0.1,0,0.2,0,0.2,0.1c0,0.1,0.1,0.1,0.1,0.2c0.3,0.6,0.5,1.2,0.8,2c0.2,0.4,0.3,0.7,0.4,1.1
	c0.1,0.3,0.2,0.5,0.3,0.7c0.2,0.4,0.5,0.4,0.7,0.4c0,0,0,0.1,0,0.1S99,286.5,99,286.6z M96,282.9L96,282.9c-0.1,0.2-0.3,0.6-0.3,0.8
	c-0.2,0.6-0.3,0.8-0.4,0.9h1.4C96.6,284.2,96.2,283.4,96,282.9z"/>
<path d="M106.2,286.6l-1.9,0h-0.5c0,0,0-0.1,0-0.1c0,0,0-0.1,0-0.1c0.2,0,0.3,0,0.5,0c0.2-0.1,0.3-0.3,0.3-0.6v-3.4l0,0l-1,2.2
	c-0.1,0.2-0.2,0.5-0.3,0.8c-0.2,0.3-0.3,0.7-0.4,1.1c0,0.1-0.1,0.1-0.2,0.1c-0.1,0-0.1,0-0.1-0.1c-0.1-0.3-0.2-0.5-0.3-0.6l-1.6-3.4
	h0v0.9l0,2.2c0,0.7,0.3,1,0.9,1c0,0,0,0.1,0,0.1c0,0,0,0.1,0,0.1c0,0-0.1,0-0.2,0c-0.1,0-0.4,0-0.9,0c-0.1,0-0.4,0-0.7,0h-0.3
	c0,0,0-0.1,0-0.1c0,0,0-0.1,0-0.1c0.2,0,0.5-0.1,0.7-0.2c0.1-0.1,0.2-0.3,0.2-0.8v-2.4c0-0.4-0.1-0.5-0.2-0.7
	c-0.2-0.1-0.4-0.1-0.6-0.1c0,0,0-0.1,0-0.1c0,0,0-0.1,0-0.1c0.2,0,0.5,0,0.8,0h1.1c0,0,0.1,0.1,0.1,0.1l1.4,3.2l0.2-0.6
	c0.2-0.5,0.5-1.3,1-2.1c0.1-0.2,0.2-0.4,0.3-0.5l1.8,0c0,0,0,0.1,0,0.1c0,0,0,0.1,0,0.1c-0.2,0-0.5,0-0.7,0.3
	c-0.1,0.1-0.1,0.2-0.1,0.6v2.3c0,0.9,0.2,1,0.3,1c0.2,0,0.3,0.1,0.5,0.1c0,0,0,0.1,0,0.1C106.2,286.5,106.2,286.5,106.2,286.6z"/>
<path d="M93.3,290.7c0,0-0.1,0-0.1,0c-0.1-0.2-0.2-0.5-0.3-0.7c-0.2-0.3-0.5-0.4-0.9-0.5c-0.1,0-0.4,0-0.5,0v2.1c0,0.3,0,0.7,0,1.4
	c0,0.5,0.3,0.5,0.8,0.6c0,0,0,0.1,0,0.1c0,0,0,0.1,0,0.1h-0.2c-0.3,0-1,0-1.2,0c-0.1,0-0.9,0-1.2,0c0,0,0-0.1,0-0.1c0,0,0-0.1,0-0.1
	c0.7-0.1,0.8-0.2,0.9-0.4c0-0.2,0-0.8,0-1.4v-1.7c0-0.2,0-0.4,0-0.6c-0.2,0-0.5,0-0.7,0.1c-0.4,0.2-0.8,0.6-0.9,1c0,0-0.1,0-0.1,0
	c0,0-0.1,0-0.1,0v-1.2c0-0.1,0-0.1,0.1-0.1s0.3,0,0.5,0c0.2,0,0.9,0,1.7,0c1.1,0,2,0,2.2,0c0.1,0,0.2,0,0.2,0c0,0,0,0.1,0,0.2
	L93.3,290.7C93.4,290.7,93.3,290.7,93.3,290.7z"/>
<path d="M99.1,289.5c-0.4,0-0.7,0.2-0.8,0.6l-1.8,3.9c0,0-0.1,0.1-0.1,0.1c-0.1,0-0.1-0.1-0.2-0.2c0-0.1-0.3-0.7-0.7-1.8l-0.6-1.3
	c-0.2-0.5-0.4-0.8-0.4-0.9c-0.2-0.3-0.4-0.4-0.7-0.4c0,0,0-0.1,0-0.1c0,0,0-0.1,0-0.1H94c0.3,0,0.6,0,0.9,0c0.3,0,0.8,0,1.1,0h0.2
	c0,0,0.1,0.1,0.1,0.1c0,0,0,0.1,0,0.1c-0.2,0-0.7,0-0.7,0.3c0,0.1,0,0.2,0,0.3l1.2,2.8l1-2.3c0.1-0.2,0.1-0.4,0.1-0.6
	c0-0.3-0.2-0.4-0.7-0.4c0,0,0-0.1,0-0.1c0,0,0-0.1,0-0.1h0.1c0.2,0,0.4,0,0.9,0c0.1,0,0.4,0,0.6,0h0.3
	C99.1,289.3,99.1,289.4,99.1,289.5L99.1,289.5z"/>
<path d="M106.3,293.9l-1.9,0h-0.5c0,0,0-0.1,0-0.1c0,0,0-0.1,0-0.1c0.2,0,0.3,0,0.5,0c0.2-0.1,0.3-0.3,0.3-0.6v-2.7c0,0,0-0.5,0-0.6
	h0l-1,2.2c-0.1,0.2-0.2,0.5-0.4,0.8c-0.2,0.5-0.3,0.9-0.4,1.1c0,0.1-0.1,0.1-0.2,0.1s-0.1,0-0.1-0.1c-0.1-0.3-0.2-0.5-0.2-0.6
	l-1.6-3.4h0v0.9l0,2.2c0,0.7,0.3,1,0.9,1c0,0,0,0.1,0,0.1c0,0,0,0.1,0,0.1c0,0-0.1,0-0.2,0c-0.1,0-0.4,0-0.9,0c-0.2,0-0.4,0-0.7,0
	h-0.3c0,0,0-0.1,0-0.1c0,0,0-0.1,0-0.1c0.2,0,0.5-0.1,0.7-0.2c0.1-0.2,0.2-0.5,0.2-0.8v-1.1v-1.3c0-0.4,0-0.5-0.2-0.7
	c-0.2-0.1-0.4-0.1-0.6-0.1c0,0,0-0.1,0-0.1c0,0,0-0.1,0-0.1c0.2,0,0.5,0,0.8,0h1.1c0,0,0.1,0.1,0.1,0.1l1.4,3.2l0.3-0.6
	c0.3-0.7,0.6-1.4,1-2.1c0.1-0.2,0.2-0.4,0.3-0.5l1.8,0c0,0,0.1,0.1,0.1,0.1c0,0,0,0.1,0,0.1c-0.2,0-0.5,0-0.7,0.3
	c-0.1,0.1-0.1,0.2-0.1,0.6v2.3c0,0.9,0.2,1,0.3,1c0.1,0,0.3,0.1,0.5,0.1c0,0,0,0.1,0,0.1C106.3,293.8,106.3,293.9,106.3,293.9z"/>
<path d="M620.5,265.8c0-0.3-0.1-0.6-0.2-0.8H619c-3,0-4.9,0.1-10.4,0.1c-1.9,0-4.6-0.1-5.3-0.1h-1.6c-0.2,0.1-0.2,0.8-0.2,1
	c0,0.4,0.1,0.7,0.3,1c2.1,0.3,4.2,0.9,6.2,1.7c1.1,1.9,1.8,4,1.8,6.2c0.1,0.9,0.1,1.8,0.1,4.3v12.6c0,0.9,0,1.7-0.1,2.6
	c-1-1.1-2.5-3.3-4.9-6l-20.2-22.3c-0.3-0.3-0.6-0.6-0.9-0.8c-0.5,0-1.3-0.1-1.8-0.1c-3.9,0-10.9-0.2-11.9-0.2
	c-0.1,0.3-0.2,0.5-0.2,0.8c0,0.4,0.1,0.8,0.2,1.2c1.7,0.3,3.3,1.1,4.5,2.3c1.2,1.1,2.3,2.4,3.2,3.8c0.2,0.6,0.3,1.3,0.2,1.9
	c0,3.1-0.2,7.5-0.2,11.8v12.3c0,1.5-0.1,3.1-0.4,4.6c-1.8,1.6-4,2.7-6.3,3.1c-0.1,0.3-0.2,0.7-0.2,1.1c0,0.2,0.1,0.8,0.2,0.8h1.1
	c1.2,0,4-0.2,5.8-0.2c2.7,0,4.5,0.2,6.9,0.2h3.6c0.2-0.1,0.3-0.8,0.3-1c0-0.3-0.1-0.7-0.2-1c-2.8-0.3-5.4-1.7-7.2-3.7
	c-0.5-2.5-0.8-5-0.8-7.5c0-1.9-0.1-4.6-0.1-8.1c0-4.8,0.1-8.9,0.1-11c0.4,0.4,0.8,1,1.1,1.3l27.9,31.3c0.5,0.3,1.1,0.4,1.7,0.4
	c0.2,0,0.5,0,0.7-0.1c0.4-0.9,0.5-1.8,0.5-2.7c0-1.7-0.1-3.6-0.1-4.5v-25.2c0-7.5,3.6-9.7,7.7-9.8
	C620.5,266.6,620.5,266.2,620.5,265.8 M551.4,285c0,9.1-2.5,17.1-6,20c-1.8,1.5-4.1,2.2-6.4,2.2c-3.2,0.2-6.3-1.4-8-4
	c-2.5-4.8-3.7-10.2-3.6-15.7c0-8.4,2.2-15,6-18.2c1.7-1.5,4-2.3,6.3-2.3c3.2,0,6.3,1.5,8.2,4.2C550.3,274.2,551.4,278.8,551.4,285
	 M562.3,286.2c0.3-7.8-3.8-15.1-10.7-18.8c-3.5-2-7.4-3.1-11.5-3.1c-8.2,0.1-15.9,4.3-20.3,11.2c-2.3,3.7-3.5,7.9-3.5,12.2
	c0,6.9,3.2,13.4,8.6,17.7c4,2.9,8.8,4.4,13.8,4.3c3.1,0,6.2-0.6,9.2-1.7c3.2-1.2,6.1-3.2,8.4-5.7
	C560.3,297.9,562.4,292.1,562.3,286.2 M509.3,278.6v-12.3c0-0.9-0.4-1.1-1.3-1.1c-1.8,0-11.3,0.2-21,0.2c-7.5,0-13.7-0.1-17.1-0.1
	h-4.5c-0.8,0-1,0.2-1,1v11.5c0.3,0.2,0.6,0.3,1,0.2c0.4,0,0.9,0,1.3-0.1c2.7-5.5,5.2-8.4,8.4-10.1c1.8-0.2,5.4-0.2,6.3-0.2
	c0.1,0.7,0.1,2.8,0.2,5.3c0.1,4.3,0.1,6.2,0.1,16.5c0,8.9-0.1,12.9-0.2,13.8c-0.2,1.7,0.1,3-7.2,3.3c-0.2,0.4-0.2,0.9-0.2,1.4
	c0,0.3,0,0.6,0.1,1h2.3c2.2,0,7.5-0.2,9.7-0.2c1.7,0,7.4,0.2,11,0.2h1.7c0.2-0.4,0.2-0.8,0.2-1.3c0-0.4-0.1-0.8-0.2-1.1
	c-2.1,0.2-4.3-0.2-6.2-1.1c-0.4-1.5-0.6-3-0.5-4.5c-0.1-6.5-0.1-9-0.1-13.3c0-5.6,0.1-9.4,0.1-19.8c0.8,0,2.8-0.1,4.6,0
	c2.9,0.6,5.4,2.2,7.2,4.6c1.3,2.1,2.4,4.3,3.2,6.6c0.3,0.1,0.7,0.1,1,0.1C508.5,278.8,508.9,278.7,509.3,278.6 M457.3,298.2
	c0-0.6,0-1.2-0.1-1.7c-0.3-0.2-0.6-0.2-0.9-0.2c-0.4,0-0.9,0-1.3,0.1c-1.4,3.6-3.7,6.7-6.6,9.2c-1.4,0.6-3,0.8-4.5,0.7h-4.9
	c-1.3,0-2.7-0.1-4-0.3c-0.9-0.2-1.9-1.6-2.3-2.6c-0.6-1.2-0.8-2.5-0.7-3.8v-13.2h2.2c1.3,0,2.5,0.3,3.7,0.8c1.2,0.5,2.1,1.4,2.7,2.5
	c0.5,1.6,0.9,3.3,1,5c0.5,0.2,1,0.3,1.6,0.2c0.4,0,0.8-0.1,1.2-0.3c0-1.6-0.4-6-0.4-8.4c0-3,0.4-7.2,0.6-9.3
	c-0.4-0.2-0.8-0.3-1.2-0.2c-0.5,0-1.1,0-1.6,0.2c-0.2,0.8-0.8,3.4-1,3.6c-0.9,1.5-2.4,2.6-4.1,3.1c-1.1,0.3-2.3,0.4-3.5,0.5H432
	v-5.6c0-5.8,0.1-7.7,0.2-8.8c0.1-0.7,0.2-1.5,0.2-2.1c1.2-0.1,2.4-0.2,3.6-0.1c3.5,0,5.1,0.1,5.7,0.1c1.4,0,2.7,0.4,3.9,1.2
	c2.4,2.1,4.3,4.6,5.8,7.5c0.4,0.1,0.8,0.1,1.3,0.1c0.4,0,0.4-0.1,0.9-0.4c0-3.7-0.2-8.4-0.4-10c-0.1-0.6-0.2-0.8-1.4-0.8
	c-0.5,0-2.8-0.1-5.2-0.1c-3.4,0-4.8,0.1-10.1,0.1c-2.8,0-8.7,0.1-11.2,0.1c-3.6,0-6.7-0.1-8.3-0.1H415c-0.2,0.3-0.3,0.6-0.3,1
	c0,0.4,0.1,0.8,0.3,1.2c1.5,0.1,3,0.3,4.4,0.7c1.3,0.9,2.1,2.3,2.2,3.9c0.1,1.3,0.2,4.8,0.2,7.5v12.4c0,2.5-0.1,6.2-0.1,7.7
	c-0.1,2-0.6,3.9-1.3,5.7c-1.7,0.6-3.6,0.9-5.4,0.9c-0.2,0.4-0.3,0.9-0.3,1.3c0,0.4,0.1,0.8,0.3,1.1h2c1.9,0,9.1-0.2,10.7-0.2
	c1.5,0,4.4,0.1,7.9,0.1c1.9,0,7.6,0.4,19.8,0.4c0.5,0,1.1,0,1.6-0.1c0.2-0.3,0.3-0.6,0.2-1C457.3,306.6,457.3,303.1,457.3,298.2
	 M406.2,300.3c-0.3-0.9-1.1-1.5-2.1-1.4c-0.1,0-0.3,0.1-0.4,0.1c-3.6,5.1-7.6,7.1-12.1,7.1c-5.3,0-10.1-3.1-12.2-8
	c-1.2-3.5-1.9-7.2-1.9-11c-0.1-3.6,0.5-7.2,1.8-10.6c2.7-7,6.5-9.2,11.2-9.2c3.9,0.2,7.5,2.2,9.7,5.4c1.4,2.3,2.4,4.7,3.1,7.3
	c0.4,0.1,0.9,0.2,1.3,0.2c0.5,0,1-0.2,1.4-0.5c-0.1-0.7-0.7-5.3-0.7-6.8c0-1.8,0.5-4.8,0.5-5.9c-0.7-0.4-1.5-0.6-2.3-0.7
	c-0.8,0.7-1.5,1.6-2.1,2.5c-3.8-3-8.6-4.5-13.4-4.3c-5.7-0.2-11.1,2-15.1,6c-4.4,4.5-6.7,10.7-6.5,17c-0.2,7,3,13.7,8.5,18
	c4.2,2.8,9.1,4.2,14.1,4c7.4,0,12.7-2.8,15.4-6.5C405.2,302.2,405.8,301.3,406.2,300.3 M359.3,265.8c0-0.3-0.1-0.6-0.2-0.8h-1.4
	c-3,0-4.9,0.1-10.4,0.1c-1.9,0-4.6-0.1-5.3-0.1h-1.6c-0.2,0.1-0.2,0.8-0.2,1c0,0.4,0.1,0.7,0.3,1c2.1,0.3,4.2,0.9,6.2,1.7
	c1.1,1.9,1.7,4,1.7,6.2c0.1,0.9,0.1,1.8,0.1,4.3v12.6c0,0.9,0,1.7-0.1,2.6c-1-1.1-2.5-3.3-4.9-6l-20.1-22.3
	c-0.3-0.3-0.6-0.6-0.9-0.8c-0.5,0-1.3-0.1-1.8-0.1c-3.9,0-10.9-0.2-11.9-0.2c-0.1,0.3-0.2,0.5-0.2,0.8c0,0.4,0.1,0.8,0.2,1.2
	c1.7,0.3,3.3,1.1,4.5,2.3c1.2,1.1,2.3,2.4,3.2,3.8c0.2,0.6,0.3,1.3,0.2,1.9c0,3.1-0.2,7.5-0.2,11.8v12.3c0,1.5-0.1,3.1-0.4,4.6
	c-1.8,1.6-4,2.7-6.3,3.1c-0.1,0.4-0.2,0.7-0.2,1.1c0,0.2,0.1,0.8,0.2,0.8h1.1c1.2,0,4-0.2,5.8-0.2c2.7,0,4.5,0.2,6.9,0.2h3.6
	c0.2-0.1,0.3-0.8,0.3-1c0-0.3-0.1-0.7-0.2-1c-2.8-0.3-5.3-1.7-7.2-3.7c-0.5-2.5-0.8-5-0.8-7.5c0-1.9-0.1-4.6-0.1-8.1
	c0-4.8,0.1-8.9,0.1-11c0.4,0.4,0.8,1,1.1,1.3l27.8,31.3c0.5,0.3,1.1,0.4,1.7,0.4c0.2,0,0.5,0,0.7-0.1c0.4-0.9,0.5-1.8,0.5-2.7
	c0-1.7-0.1-3.6-0.1-4.5v-25.2c0-7.5,3.6-9.7,7.7-9.8C359.2,266.6,359.3,266.2,359.3,265.8 M299.6,307.6c0-0.4-0.1-0.8-0.2-1.2
	c-1.5-0.1-3-0.3-4.5-0.5c-1.1-1.3-1.8-2.9-2.1-4.6c-0.1-2.9-0.1-8.9-0.1-14.5v-14.8c-0.1-1.2,0.3-2.3,1.1-3.3c1.6-1,3.5-1.5,5.4-1.6
	c0.1-0.4,0.2-0.8,0.2-1.1c0-0.3-0.1-0.7-0.3-1h-1.7c-2.5,0-8.4,0.3-10.5,0.3c-1.3,0-7.2-0.2-9.8-0.2h-1.3c-0.2,0.3-0.3,0.7-0.3,1
	c0,0.4,0,0.8,0.1,1.1c1.6,0,3.2,0.3,4.7,0.9c1.4,1.3,2.1,3.2,2,5.1c0.1,1.1,0.1,3.6,0.2,9.2c0.1,3,0.1,7.2,0.1,10.7
	c0,1.7-0.1,5.7-0.2,7.8c-0.1,1.2-0.3,2.5-0.8,3.6c-0.7,0.6-1.5,1.7-5.9,2c-0.1,0.4-0.2,0.8-0.2,1.3c0,0.5,0.1,0.7,0.1,1h1
	c2.4,0,8.4-0.3,11.6-0.3c0.9,0,7.2,0.2,9.2,0.2h2C299.5,308.3,299.6,308,299.6,307.6 M251.2,276.2c0,3.7-2.5,8-5.5,8.7
	c-1.6,0.4-3.3,0.5-5,0.5c-0.7,0-1.5,0-2.2-0.1l-0.1-5.1V269c0-0.5,0.1-0.9,0.4-1.3c0.8-0.3,1.7-0.4,2.5-0.4c4.7,0,6.8,0.4,8.4,3.3
	C250.8,272.3,251.3,274.2,251.2,276.2 M268.7,307.7c0-0.4-0.1-0.9-0.3-1.3c-1.4,0-2.7-0.2-4-0.8c-0.4-0.5-0.7-1-1-1.5
	c-0.7-2.4-1.6-4.7-2.6-6.9c-1-2.7-2.5-5.1-4.5-7.2c-1.4-0.9-2.9-1.5-4.5-2c-1-0.4-1.7-0.7-2.5-1c0.8-0.2,1.6-0.3,2.5-0.4
	c4.5-0.6,5.5-1.3,6.6-2.2c2.4-1.9,3.8-4.8,3.7-7.8c0.1-4.9-3-9.3-7.5-11c-2.4-0.5-4.8-0.7-7.2-0.7c-4.5,0-10.9,0.4-13.9,0.4
	c-0.9,0-6.2-0.1-8.3-0.1c-0.9,0-3.2-0.1-3.6-0.1c-0.2,0.4-0.3,0.7-0.3,1.1c0,0.4,0,0.7,0.1,1.1c1,0.1,2.9,0.4,3.9,0.5
	c1.1,0.8,2,2,2.5,3.3c0.4,5.1,0.5,10.3,0.4,15.4c0,6.2,0.1,13.3-0.2,15.6c0,1.7-1,3.2-2.5,4c-1.1,0.2-2.3,0.3-3.4,0.4
	c-0.2,0.4-0.3,0.8-0.3,1.2c0,0.3,0.1,0.7,0.2,1c0.9,0,10.1-0.2,12-0.2c3.9,0,7.1,0.2,10.6,0.2c0.1-0.3,0.2-0.6,0.2-0.9
	c0-0.4-0.1-0.9-0.2-1.3c-1.2-0.1-2.7-0.5-3.4-0.6c-1.7-0.8-2.7-2.5-2.6-4.3l-0.1-13.9c0.5-0.1,1-0.1,1.6-0.1c1.1,0,2.2,0.4,3.2,1
	c2,1,3.6,2.5,4.8,4.4c2.1,4.1,3.3,8.4,3.8,13c0.2,1.3,0.7,2.4,1.8,2.5c0.5,0.1,3.7,0.2,6,0.2h8.6
	C268.6,308.4,268.7,308.1,268.7,307.7 M203.2,276.5c0.1,2.8-1,5.6-3.1,7.5c-1.8,1.2-4.1,1.8-6.3,1.6c-0.9,0-1.7,0-2.6-0.1
	c-0.5-0.1-0.8-0.1-0.8-0.4l0.1-17.7c1.2-0.2,2.3-0.3,3.5-0.3c4.1,0,6.6,1,7.8,3.6C202.8,272.5,203.2,274.4,203.2,276.5 M214,276.7
	c0.1-4.4-2.5-8.5-6.5-10.5c-3.5-1.1-7.1-1.6-10.8-1.4c-4.6,0-11.9,0.4-15.1,0.4c-2.2,0-5.6-0.2-7.5-0.2c-0.2,0.3-0.3,0.6-0.3,1
	c0,0.4,0,0.8,0.2,1.2c1.1,0.4,3,0.7,4.2,1c1,0.9,1.5,2.1,1.6,3.4c0.2,2.1,0.3,4.8,0.3,9.4c0,12.7-0.1,19.4-0.2,20.9
	c-0.2,2-1.6,3.6-3.4,4.3c-1.2,0.3-2.3,0.5-3.5,0.6c-0.1,0.4-0.1,0.8-0.1,1.3c0,0.3,0,0.6,0.2,0.9c1.9,0,7.6-0.2,9.8-0.2
	c5.4,0,10.9,0.2,13.1,0.2h1.5c0.2-0.3,0.2-0.6,0.2-1c0-0.4,0-0.7-0.1-1.1c-2,0-4-0.7-5.7-1.9c-0.8-1-1.3-2.3-1.2-3.6l-0.2-13.3
	c3.6,0.2,7.5,0.4,9.6,0.4c2.4,0,4.7-0.4,7-1.1C211.3,285.5,214.1,281.3,214,276.7"/>
<path d="M621.5,333.1c0-0.4-0.2-0.5-0.4-0.7c-2.5,0-5.7,0.2-7,0.2c-3.1,0-6.8-0.2-8.4-0.2c-0.2,0.4-0.2,0.4-0.2,0.7
	c0,0.2,0,0.5,0.1,0.7c1.7,0.4,4.3,0.8,4.8,1.6c0.4,0.7,0.6,1.5,0.5,2.3c0,0.8-0.1,1.5-0.4,2.2c-0.5,1.5-1.7,3.9-3.3,7.2
	c-2.8,5.6-4.5,9.1-5.5,10.5c-1.6-2.6-5.1-9.6-5.9-11.5l-3.4-7.4c-0.2-0.5-0.2-1.1-0.2-1.6c0-0.5,0-1.1,0.2-1.6
	c0.5-1.1,2.4-1.2,5-1.5c0.1-0.3,0.2-0.6,0.2-0.9c0-0.4-0.2-0.3-0.4-0.6h-1.1c-4,0-2.8,0.2-9.8,0.2c-2.9,0-6.5-0.2-7-0.2
	c-0.2,0.4-0.4,0.5-0.4,0.9c0,0.3,0.1,0.5,0.2,0.7c4,1,5.2,1.7,5.7,2.5l10.6,20.7c0.8,1.4,1.4,3,1.9,4.5c0.4,2.4,0.6,4.8,0.5,7.2
	c0.2,1.8-0.5,3.6-1.9,4.7c-1.6,0.4-3.2,0.7-4.8,0.8c-0.2,0.2-0.3,0.5-0.3,0.8c0,0.2,0.1,0.5,0.2,0.7c3.1,0,6.3-0.1,8.1-0.1
	c1.3,0,3.2,0.1,6.8,0.1c2.1,0.1,3.6,0.1,4.7,0.1c0.2-0.2,0.3-0.5,0.3-0.8c0-0.3-0.1-0.6-0.2-0.8c-1.8-0.1-3.6-0.5-5.2-1.2
	c-1.1-1-1.7-2.4-1.6-3.9l-0.5-9.1c0-0.5,0.1-1,0.2-1.4c0.2-0.6,0.4-1.2,0.7-1.7l9.3-18.4c1-1.6,2.3-3,3.9-4c1.3-0.6,2.6-1,3.9-1.2
	C621.4,333.7,621.5,333.4,621.5,333.1 M572.8,345.6v-11.7c0-0.9-0.4-1.1-1.3-1.1c-1.8,0-10.1,0.2-19.8,0.2c-7.5,0-12.5-0.1-15.9-0.1
	h-4.5c-0.8,0-1,0.2-1,1v10.9c0.2,0.2,0.5,0.2,0.7,0.2c0.2,0,0.5,0,0.7-0.1c2.3-5.2,3.6-8,7.6-10.1c1.8-0.2,8.1-0.2,9.1-0.2
	c0.1,0.7,0.1,2.8,0.2,5.3c0.1,4.3,0.1,6.7,0.1,17c0,8.9-0.1,13.4-0.2,14.4c-0.2,1.7,0.1,3-7.2,3.3c-0.2,0.3-0.2,0.7-0.2,1
	c0,0.2,0,0.5,0.1,0.7h2.3c2.2,0,5.2-0.2,7.4-0.2c1.7,0,5.1,0.2,8.7,0.2h1.7c0.1-0.3,0.2-0.6,0.2-0.9c0-0.3-0.1-0.6-0.2-0.9
	c-2.1,0.2-4.3-0.2-6.2-1.1c-0.4-1.5-0.6-3-0.5-4.5c-0.1-6.5-0.1-9.6-0.1-13.9c0-5.6,0.1-9.9,0.1-20.3c0.8,0,5.3-0.1,7.1,0
	c2.8,0.6,5.2,2.2,6.8,4.6c1.3,2,2.2,4.2,2.7,6.6c0.3,0.1,0.6,0.1,0.9,0.1C572.3,345.8,572.6,345.7,572.8,345.6 M522.6,375.4
	c0-0.3-0.1-0.6-0.2-0.8c-0.9-0.1-3.4-0.3-4.5-0.5c-1.1-1.3-1.8-2.9-2.1-4.6c-0.1-2.9-0.1-9.5-0.1-15.1v-15.3c0-1.2,0.3-2.3,1.1-3.3
	c1.6-1,3.5-1.5,5.4-1.6c0.1-0.2,0.2-0.5,0.2-0.8c0-0.3-0.1-0.5-0.3-0.7h-1.7c-2.5,0-6.2,0.3-8.2,0.3c-1.3,0-4.9-0.2-7.5-0.2h-1.3
	c-0.2,0.2-0.3,0.5-0.3,0.8c0,0.3,0.1,0.5,0.1,0.8c1.6,0,3.2,0.3,4.7,0.8c1.4,1.3,2.1,3.2,2,5.1c0.1,1.1,0.1,4.2,0.2,9.8
	c0.1,3,0.1,7.1,0.1,10.6c0,1.8-0.1,6.3-0.2,8.4c-0.1,1.2-0.3,2.5-0.8,3.6c-0.7,0.6-1.5,1.7-5.9,2c-0.1,0.3-0.2,0.6-0.2,0.9
	c0,0.5,0.1,0.5,0.1,0.8h1c2.4,0,6.2-0.3,9.3-0.3c0.9,0,4.9,0.2,6.9,0.2h2C522.5,375.9,522.6,375.7,522.6,375.4 M492.8,364.3
	c0.1-4.6-2.6-8.8-6.8-10.6c-2.1-1-4.4-1.9-6.7-2.4c-3-0.8-6-1.9-8.7-3.3c-2.3-1.4-3.7-3.9-3.6-6.6c0-3.9,3.9-7.1,8.5-7.1
	c3.3,0,6.4,1.6,8.3,4.2c1.5,2.1,2.8,4.4,3.7,6.9c0.2,0.1,0.4,0.1,0.6,0.1c0.5,0,1-0.2,1.3-0.6c-0.3-1.8-0.4-3.6-0.5-5.4
	c0.1-1.6,0.2-3.2,0.5-4.7c-0.4-0.6-1.1-0.9-1.8-0.8c-0.9,0.6-1.7,1.4-2.4,2.2c-2.8-2.5-6.5-3.8-10.3-3.7c-7.4,0-12.7,5-12.7,11.5
	c0.1,2.4,0.8,4.7,2.2,6.6c1.5,2,3.5,3.5,5.9,4.4c1.7,0.7,9.6,3.1,10.7,3.5c4.8,1.9,6.6,3.5,6.6,7.8c-0.1,2.3-1.1,4.5-2.7,6.1
	c-1.7,1.9-4.1,3-6.7,2.8c-3.9,0-7.6-1.6-10.1-4.5c-1.8-2.5-3.2-5.2-4.1-8.1c-0.3-0.1-0.6-0.1-0.8-0.1c-0.4,0-0.8,0.1-1.1,0.4
	c0,0.8,0.2,4.8,0.2,6c0,1.8-0.3,3.6-0.7,5.4c0.4,0.7,1.1,1.2,1.9,1.2c0.9-0.9,1.9-1.5,3-1.9c0.5,0,1,0.2,1.4,0.5c3,2,6.5,3.1,10.1,3
	C486.7,377,492.8,372.7,492.8,364.3 M439.4,343.5c-0.1,4.1-2.8,7.7-6.6,9c-2.1,0.4-4.2,0.5-6.3,0.5c-1.2,0-2.5,0-3.7-0.1l-0.1-5.3
	v-11.4c0-0.8,0.2-1.2,0.4-1.4c1.4-0.3,2.8-0.4,4.2-0.4c5.7,0,8.3,0.5,10.3,3.5C438.9,339.5,439.5,341.5,439.4,343.5 M452.1,375.4
	c0-0.3-0.1-0.6-0.3-0.9c-1.4,0-2.7-0.2-4-0.8c-0.4-0.5-0.7-1-1-1.5c-0.7-2.6-1.6-5.1-2.5-7.5c-1-2.7-2.5-5.1-4.5-7.2
	c-1.3-0.9-2.8-1.5-4.3-2c-1-0.4-1.7-0.7-2.5-1c0.8-0.2,1.6-0.3,2.5-0.4c2.3-0.1,4.5-0.8,6.4-2.2c2.5-1.8,4-4.7,4-7.8
	c0.1-4.9-3-9.2-7.5-10.9c-2.4-0.5-4.8-0.7-7.2-0.7c-4.5,0-7.9,0.4-10.9,0.4c-0.9,0-3.9-0.1-6-0.1c-0.9,0-3.2-0.1-3.6-0.1
	c-0.2,0.4-0.3,0.6-0.3,0.8c0,0.3,0.1,0.6,0.1,0.8c1,0.1,2.9,0.4,3.9,0.5c1.2,0.8,2,1.9,2.5,3.3c0.3,1.9,0.4,7.4,0.4,15.9
	c0,6.2,0.1,13.9-0.2,16.2c0,1.7-1,3.3-2.5,4c-1.1,0.2-2.3,0.3-3.4,0.4c-0.2,0.2-0.3,0.5-0.3,0.8c0,0.3,0.1,0.5,0.2,0.7
	c0.8,0,7.8-0.2,9.7-0.2c3.9,0,4.8,0.2,8.3,0.2c0.1-0.2,0.2-0.4,0.2-0.7c0-0.3-0.1-0.6-0.2-0.9c-1.2-0.1-2.7-0.5-3.4-0.6
	c-1.6-0.8-2.7-2.5-2.6-4.3l-0.1-15.1c0.5-0.1,2.2-0.1,2.7-0.1c1.7-0.1,3.3,0.2,4.8,0.9c2.4,1,4.5,2.7,5.9,4.9
	c2.1,4.1,3.3,8.6,3.8,13.1c0.2,1.3,0.7,2.4,1.8,2.5c1.2,0.2,2.3,0.2,3.5,0.2h6.3C452,376,452.1,375.7,452.1,375.4 M401.5,366.3
	c0-0.6,0-1.2-0.1-1.7c-0.3-0.2-0.6-0.2-0.9-0.2c-0.3,0-0.5,0-0.8,0.1c-0.9,3.7-3.1,7-6.2,9.2c-1.6,0.6-3.4,0.8-5.1,0.7h-6.8
	c-1.3,0-2.7-0.1-4-0.3c-0.9-0.2-1.9-1.6-2.3-2.6c-0.6-1.3-0.8-2.7-0.7-4.2v-13.8h1.9c1.7-0.1,3.5,0.2,5.1,0.9
	c1.3,0.5,2.4,1.4,3.3,2.6c0.5,1.6,0.8,3.3,0.8,5c0.3,0.2,0.6,0.3,1,0.2c0.3,0,0.7-0.1,1-0.3c0-1.6-0.4-6-0.4-8.4
	c0-3,0.4-6.7,0.6-8.9c-0.3-0.2-0.6-0.3-1-0.2c-0.3,0-0.7,0-1,0.2c-0.2,0.9-0.7,3.4-0.8,3.6c-1.2,1.5-2.8,2.7-4.6,3.2
	c-1.6,0.4-3.3,0.5-5,0.5h-1v-5.9c0-5.8,0.1-8.1,0.2-9.2c0.1-0.7,0.2-1.5,0.2-2.1c0.5-0.1,2.3-0.1,5.1-0.1c3.5,0,6.1,0.1,6.6,0.1
	c1.4,0,2.7,0.4,3.9,1.2c2.5,1.9,4.4,4.5,5.4,7.5c0.2,0.1,0.5,0.1,0.7,0.1c0.4,0,0.4-0.1,0.9-0.4c0-3.7-0.2-7.8-0.4-9.4
	c-0.1-0.6-0.2-0.8-1.4-0.8c-0.5,0-2.8-0.1-5.2-0.1c-3.4,0-4.8,0.1-10.1,0.1c-2.8,0-7.8,0.1-10.3,0.1c-3.6,0-4.4-0.1-6-0.1h-2.1
	c-0.2,0.2-0.3,0.4-0.3,0.7c0,0.3,0.1,0.6,0.3,0.9c1.5,0.1,3,0.3,4.4,0.7c0.8,0.7,1.6,0.9,2.2,3.8c0.1,1.3,0.2,5.4,0.2,8.1v12.4
	c0,2.5-0.1,6.7-0.1,8.2c-0.1,2-0.6,4-1.3,5.9c-1.8,0.6-3.6,0.9-5.5,0.9c-0.2,0.3-0.3,0.6-0.3,1c0,0.3,0.1,0.6,0.3,0.8h2
	c1.9,0,6.8-0.2,8.4-0.2c1.5,0,3.6,0.1,7.1,0.1c1.9,0,7.6,0.4,19.8,0.4c0.5,0,1.1,0,1.6-0.1c0.2-0.3,0.3-0.6,0.2-1
	C401.5,374.1,401.5,371.1,401.5,366.3 M356.8,333.3c0-0.2-0.1-0.6-0.3-0.7h-2.1c-1.4,0-3.7,0.1-4.8,0.1c-4.9,0-6.6-0.3-7.4-0.3h-1.1
	c-0.1,0.3-0.3,0.5-0.3,0.8c0,0.2,0.1,0.4,0.1,0.7c1.4,0.2,2.8,0.5,4.2,0.9c1,1,1.5,2.4,1.5,3.8c-0.3,1.9-0.7,3.7-1.5,5.5l-9.7,23.9
	l-11.9-30.2c0.1-1.4,0.8-2.6,2-3.4c1.3-0.3,2.6-0.4,3.9-0.5c0.1-0.3,0.2-0.5,0.2-0.8c0-0.2-0.1-0.6-0.3-0.7h-1.5
	c-1.8,0-4.7,0.2-7.9,0.2c-1.4,0-4.1-0.1-6.8-0.1H311c-0.1,0.2-0.2,0.5-0.2,0.7c0,0.3,0,0.5,0.2,0.7c1.8,0.5,3.5,1.2,5.1,2.1
	c1.9,3.6,3.5,7.2,5,11l5,12.1c4.1,10,6.6,16.7,6.9,17.9c0.3,0.2,0,0.4,0.5,0.4s0.5-0.1,0.6-0.4l15.6-37.4c0.5-1.3,1.3-2.4,2.2-3.4
	c1.4-1.1,3.1-1.7,4.8-1.9C356.7,333.9,356.8,333.6,356.8,333.3 M304,375.4c0-0.3-0.1-0.6-0.2-0.8c-0.9-0.1-3.4-0.3-4.5-0.5
	c-1.1-1.3-1.8-2.9-2.1-4.6c-0.1-2.9-0.1-9.5-0.1-15.1v-15.3c-0.1-1.2,0.3-2.3,1.1-3.3c1.6-1,3.5-1.6,5.4-1.6
	c0.1-0.2,0.2-0.5,0.2-0.8c0-0.3-0.1-0.5-0.3-0.7h-1.7c-2.5,0-6.2,0.3-8.2,0.3c-1.3,0-4.9-0.2-7.5-0.2h-1.3c-0.2,0.2-0.3,0.5-0.3,0.8
	c0,0.3,0.1,0.5,0.1,0.8c1.6,0,3.2,0.3,4.7,0.8c1.4,1.3,2.1,3.2,2,5.1c0.1,1.1,0.1,4.2,0.2,9.8c0.1,3,0.1,7.1,0.1,10.6
	c0,1.8-0.1,6.3-0.2,8.4c-0.1,1.2-0.3,2.5-0.8,3.6c-0.7,0.6-1.4,1.7-5.8,2c-0.1,0.3-0.2,0.6-0.2,0.9c0,0.5,0.1,0.5,0.1,0.8h1
	c2.4,0,6.2-0.3,9.3-0.3c0.9,0,4.9,0.2,6.9,0.2h2C303.9,375.9,304,375.7,304,375.4 M276.7,333.2c0-0.2-0.1-0.4-0.2-0.6h-1.4
	c-3,0-4.3,0.1-9.8,0.1c-1.9,0-4.6-0.1-5.3-0.1h-1.6c-0.2,0.1-0.2,0.5-0.2,0.8c0,0.3,0.1,0.5,0.3,0.7c2.1,0.3,4.2,0.9,6.2,1.7
	c1.1,1.9,1.7,4,1.7,6.2c0.1,0.9,0.1,1.8,0.1,4.3v17.9c0,0.9,0,1.7-0.1,2.6c-1-1.1-2.8-3.4-5.1-6.2l-23-26.9
	c-0.3-0.3-0.6-0.6-0.9-0.8c-0.5,0-1.1-0.1-1.6-0.1c-3.9,0-7.2-0.2-8.3-0.2c-0.1,0.2-0.2,0.4-0.2,0.6c0,0.3,0.1,0.5,0.1,0.8
	c1.7,0.2,3.3,0.8,4.7,1.7c1.1,1.1,2.1,2.2,2.9,3.6c0.2,0.6,0.3,1.3,0.2,1.9c0,3.1-0.2,8.9-0.2,13.1v12.9c0,1.5-0.1,3.1-0.4,4.6
	c-1.8,1.6-4,2.7-6.3,3.1c-0.1,0.2-0.2,0.5-0.2,0.7c0,0.2,0.1,0.5,0.2,0.6h1.1c1.2,0,4-0.2,5.8-0.2c2.6,0,3.9,0.2,6.3,0.2h3.6
	c0.2-0.1,0.3-0.5,0.3-0.8c0-0.2-0.1-0.4-0.2-0.6c-2.8-0.3-5.4-1.7-7.2-3.7c-0.5-2.5-0.8-5-0.8-7.6c0-1.9-0.1-5.1-0.1-8.6
	c0-4.8,0.1-11.3,0.1-13.5c0.4,0.4,0.9,1.1,1.3,1.6l28.6,33.5c0.2,0.2,0.4,0.4,0.7,0.4c0.3,0,0.1,0,0.4-0.1c0.2-0.9,0.3-1.8,0.3-2.7
	c0-1.7-0.1-3.6-0.1-4.5v-25.6c0-7.5,3.6-9.7,7.7-9.8C276.6,333.8,276.7,333.5,276.7,333.2 M220.8,333.5c0-0.3-0.1-0.6-0.3-0.8h-1.7
	c-1.9,0-4.4,0.1-6.6,0.1c-2.4,0-5.1-0.1-6.9-0.1h-2.2c-0.2,0.2-0.2,0.5-0.2,0.8c0,0.3,0.1,0.5,0.2,0.8c0.2,0,4.6,0.1,5.4,1.1
	c1,1.3,1.8,2.9,2.3,4.5c0.3,2.2,0.5,4.4,0.5,6.6c0,5.1,0,8.6-0.1,10.4c0,2.7-0.4,5.4-1.1,8c-1.7,5.2-5.6,7.8-11.8,7.8
	c-2.4,0-4.9-0.5-7.1-1.5c-3.1-1.4-5.3-4.2-5.8-7.6l-0.3-18.1l0-7.4c0-1.4,1.7-2.7,2.3-3.4c1.5-0.3,3.1-0.5,4.6-0.6
	c0.2-0.2,0.3-0.5,0.3-0.8c0-0.3-0.2-0.6-0.4-0.8l-2.3,0.1c-2.2,0.1-5.2,0.1-7.1,0.1c-2.9,0-5.1-0.1-6.9-0.1h-2.5
	c-0.2,0.2-0.3,0.5-0.3,0.8c0,0.3,0.1,0.5,0.2,0.7c1.9,0.2,3.2,0.4,4,0.6c1,0.6,1.7,1.6,2.1,2.7c0.1,0.8,0.2,2.7,0.2,6.5v14.5
	c-0.1,2.7,0.1,5.4,0.6,8.1c0.7,3.1,2.6,5.7,5.2,7.4c3.3,2,7.2,3,11,2.9c3.6,0.1,7.2-0.8,10.4-2.5c3-1.7,5.2-4.6,6-8
	c0.6-2.3,1-4.8,1-7.2v-11.6c0-2.2,0.1-4.9,0.1-6c0-2.3,0.6-4.6,1.8-6.6c1.6-0.5,3.3-0.7,5-0.8C220.7,334,220.8,333.8,220.8,333.5"/>
</svg>
