<svg xmlns="http://www.w3.org/2000/svg" xmlns:xlink="http://www.w3.org/1999/xlink" width="224.698" height="78" viewBox="0 0 224.698 78">
  <defs>
    <linearGradient id="linear-gradient" x1="-1.911" y1="-0.841" x2="2.985" y2="1.414" gradientUnits="objectBoundingBox">
      <stop offset="0" stop-color="#99d633"/>
      <stop offset="0.5" stop-color="#3c9"/>
      <stop offset="1" stop-color="#273470"/>
    </linearGradient>
    <linearGradient id="linear-gradient-2" x1="-3.569" y1="-1.605" x2="1.328" y2="0.651" xlink:href="#linear-gradient"/>
    <linearGradient id="linear-gradient-3" x1="-3.047" y1="-0.904" x2="1.849" y2="1.352" xlink:href="#linear-gradient"/>
    <linearGradient id="linear-gradient-4" x1="-2.89" y1="-1.292" x2="2.007" y2="0.964" xlink:href="#linear-gradient"/>
    <linearGradient id="linear-gradient-5" x1="-2.4" y1="-1.066" x2="2.497" y2="1.189" xlink:href="#linear-gradient"/>
    <linearGradient id="linear-gradient-6" x1="-0.992" y1="-0.418" x2="2.679" y2="1.273" xlink:href="#linear-gradient"/>
    <linearGradient id="linear-gradient-7" x1="-1.512" y1="-0.197" x2="2.159" y2="1.495" xlink:href="#linear-gradient"/>
    <linearGradient id="linear-gradient-8" x1="-0.914" y1="0.079" x2="2.758" y2="1.771" xlink:href="#linear-gradient"/>
    <linearGradient id="linear-gradient-9" x1="-3.405" y1="-1.068" x2="1.493" y2="1.187" xlink:href="#linear-gradient"/>
    <linearGradient id="linear-gradient-10" x1="0.347" y1="0.199" x2="3.285" y2="1.552" xlink:href="#linear-gradient"/>
    <linearGradient id="linear-gradient-11" x1="-0.905" y1="0.083" x2="2.767" y2="1.775" xlink:href="#linear-gradient"/>
    <linearGradient id="linear-gradient-12" x1="-2.119" y1="-0.476" x2="2.778" y2="1.779" xlink:href="#linear-gradient"/>
    <linearGradient id="linear-gradient-13" x1="-5.644" y1="-2.998" x2="0.486" y2="0.741" xlink:href="#linear-gradient"/>
    <linearGradient id="linear-gradient-14" x1="-3.495" y1="-1.687" x2="2.636" y2="2.053" xlink:href="#linear-gradient"/>
    <linearGradient id="linear-gradient-15" x1="-1.422" y1="-0.923" x2="3.175" y2="1.882" xlink:href="#linear-gradient"/>
    <linearGradient id="linear-gradient-16" x1="-3.306" y1="-2.072" x2="2.825" y2="1.668" xlink:href="#linear-gradient"/>
    <linearGradient id="linear-gradient-17" x1="-1.683" y1="-1.081" x2="2.914" y2="1.723" xlink:href="#linear-gradient"/>
    <linearGradient id="linear-gradient-18" x1="-1.158" y1="-0.261" x2="2.521" y2="1.983" xlink:href="#linear-gradient"/>
    <linearGradient id="linear-gradient-19" x1="0.261" y1="3.56" x2="0.624" y2="-1.469" gradientUnits="objectBoundingBox">
      <stop offset="0" stop-color="#6cf"/>
      <stop offset="0.5" stop-color="#6258a6"/>
      <stop offset="1" stop-color="#273470"/>
    </linearGradient>
    <linearGradient id="linear-gradient-20" x1="0.163" y1="4.924" x2="0.526" y2="-0.103" xlink:href="#linear-gradient-19"/>
    <linearGradient id="linear-gradient-21" x1="0.386" y1="1.825" x2="0.658" y2="-1.945" xlink:href="#linear-gradient-19"/>
    <linearGradient id="linear-gradient-22" x1="0.252" y1="4.182" x2="0.615" y2="-0.845" xlink:href="#linear-gradient-19"/>
    <linearGradient id="linear-gradient-23" x1="0.417" y1="1.9" x2="0.689" y2="-1.87" xlink:href="#linear-gradient-19"/>
    <linearGradient id="linear-gradient-24" x1="0.485" y1="0.956" x2="0.703" y2="-2.06" xlink:href="#linear-gradient-19"/>
    <linearGradient id="linear-gradient-25" x1="0.377" y1="2.455" x2="0.649" y2="-1.314" xlink:href="#linear-gradient-19"/>
    <linearGradient id="linear-gradient-26" x1="0.199" y1="4.922" x2="0.562" y2="-0.105" xlink:href="#linear-gradient-19"/>
    <linearGradient id="linear-gradient-27" x1="0.437" y1="1.625" x2="0.709" y2="-2.145" xlink:href="#linear-gradient-19"/>
    <linearGradient id="linear-gradient-28" x1="0.261" y1="4.055" x2="0.624" y2="-0.972" xlink:href="#linear-gradient-19"/>
    <linearGradient id="linear-gradient-29" x1="0.5" y1="3.045" x2="0.5" y2="-1.927" xlink:href="#linear-gradient-19"/>
    <linearGradient id="linear-gradient-30" x1="0.5" y1="4.901" x2="0.5" y2="-0.072" xlink:href="#linear-gradient-19"/>
    <linearGradient id="linear-gradient-31" x1="0.5" y1="2.435" x2="0.5" y2="-1.296" xlink:href="#linear-gradient-19"/>
    <linearGradient id="linear-gradient-32" x1="0.5" y1="0.934" x2="0.5" y2="-2.05" xlink:href="#linear-gradient-19"/>
    <linearGradient id="linear-gradient-33" x1="0.5" y1="3.785" x2="0.5" y2="-1.187" xlink:href="#linear-gradient-19"/>
    <linearGradient id="linear-gradient-34" x1="0.5" y1="1.809" x2="0.5" y2="-1.921" xlink:href="#linear-gradient-19"/>
    <linearGradient id="linear-gradient-35" x1="0.5" y1="3.046" x2="0.5" y2="-1.928" xlink:href="#linear-gradient-19"/>
    <linearGradient id="linear-gradient-36" x1="0.5" y1="2.794" x2="0.5" y2="-2.177" xlink:href="#linear-gradient-19"/>
    <linearGradient id="linear-gradient-37" x1="5.01" y1="-1.383" x2="-2.277" y2="2.039" gradientUnits="objectBoundingBox">
      <stop offset="0" stop-color="#fdbd4d"/>
      <stop offset="0.5" stop-color="#f63"/>
      <stop offset="1" stop-color="#273470"/>
    </linearGradient>
    <linearGradient id="linear-gradient-38" x1="2.239" y1="-0.082" x2="-2.134" y2="1.971" xlink:href="#linear-gradient-37"/>
    <linearGradient id="linear-gradient-39" x1="6.098" y1="-1.893" x2="-1.191" y2="1.528" xlink:href="#linear-gradient-37"/>
    <linearGradient id="linear-gradient-40" x1="3.384" y1="-1.088" x2="-2.081" y2="1.477" xlink:href="#linear-gradient-37"/>
    <linearGradient id="linear-gradient-41" x1="2.78" y1="-0.805" x2="-2.686" y2="1.761" xlink:href="#linear-gradient-37"/>
    <linearGradient id="linear-gradient-42" x1="7.074" y1="-2.353" x2="-0.212" y2="1.069" xlink:href="#linear-gradient-37"/>
    <linearGradient id="linear-gradient-43" x1="5.075" y1="-1.414" x2="-2.211" y2="2.008" xlink:href="#linear-gradient-37"/>
    <linearGradient id="linear-gradient-44" x1="5.736" y1="-2.194" x2="-1.55" y2="1.228" xlink:href="#linear-gradient-37"/>
    <linearGradient id="linear-gradient-45" x1="2.081" y1="-0.047" x2="-1.781" y2="1.9" xlink:href="#linear-gradient-37"/>
    <linearGradient id="linear-gradient-46" x1="0.729" y1="0.135" x2="-2.361" y2="1.692" xlink:href="#linear-gradient-37"/>
    <linearGradient id="linear-gradient-47" x1="2.717" y1="-0.868" x2="-2.433" y2="1.728" xlink:href="#linear-gradient-37"/>
    <linearGradient id="linear-gradient-48" x1="1.517" y1="-0.262" x2="-2.347" y2="1.684" xlink:href="#linear-gradient-37"/>
    <linearGradient id="linear-gradient-49" x1="3.544" y1="-1.284" x2="-1.606" y2="1.312" xlink:href="#linear-gradient-37"/>
    <linearGradient id="linear-gradient-50" x1="2.631" y1="-0.324" x2="-1.233" y2="1.623" xlink:href="#linear-gradient-37"/>
    <linearGradient id="linear-gradient-51" x1="2.003" y1="-0.007" x2="-1.86" y2="1.94" xlink:href="#linear-gradient-37"/>
    <linearGradient id="linear-gradient-52" x1="4.125" y1="-1.077" x2="-1.025" y2="1.518" xlink:href="#linear-gradient-37"/>
    <linearGradient id="linear-gradient-53" x1="3.022" y1="-1.021" x2="-2.127" y2="1.574" xlink:href="#linear-gradient-37"/>
    <linearGradient id="linear-gradient-54" x1="4.681" y1="-1.857" x2="-0.469" y2="0.738" xlink:href="#linear-gradient-37"/>
  </defs>
  <g id="Logo" transform="translate(0 0)">
    <g id="Group_10" data-name="Group 10" transform="translate(0 0)">
      <path id="Path_1" data-name="Path 1" d="M304.568,206.489,293.12,213.1v13.22l11.448,6.612,11.446-6.608V213.1Z" transform="translate(-268.527 -179.959)" fill="#3c9"/>
      <g id="Group_9" data-name="Group 9" transform="translate(0 0)">
        <g id="Group_8" data-name="Group 8">
          <g id="Group_1" data-name="Group 1" transform="translate(36.041 20.91)">
            <path id="Path_2" data-name="Path 2" d="M358.138,198.32v7.932l-6.87-3.965Z" transform="translate(-322.715 -198.32)" fill="url(#linear-gradient)"/>
            <path id="Path_3" data-name="Path 3" d="M357.636,239.161v7.93l-6.869-3.965Z" transform="translate(-322.559 -211.066)" fill="url(#linear-gradient-2)"/>
            <path id="Path_4" data-name="Path 4" d="M353.248,233.515l-6.869,3.967V229.55Z" transform="translate(-321.189 -208.066)" fill="url(#linear-gradient-3)"/>
            <path id="Path_5" data-name="Path 5" d="M359.488,219.34v7.932l-6.869-3.965Z" transform="translate(-323.137 -204.88)" fill="url(#linear-gradient-4)"/>
            <path id="Path_6" data-name="Path 6" d="M336.606,250.561v7.932l-6.869-3.965Z" transform="translate(-315.996 -214.624)" fill="url(#linear-gradient-5)"/>
            <path id="Path_7" data-name="Path 7" d="M337.228,238.2l-9.16-5.286,9.16-5.29Z" transform="translate(-315.475 -207.467)" fill="url(#linear-gradient-6)"/>
            <path id="Path_8" data-name="Path 8" d="M337.23,242.526l-9.16,5.29V237.24Z" transform="translate(-315.476 -210.466)" fill="url(#linear-gradient-7)"/>
            <path id="Path_9" data-name="Path 9" d="M337.226,223.308l-9.158,5.286V218.022Z" transform="translate(-315.475 -204.469)" fill="url(#linear-gradient-8)"/>
            <path id="Path_10" data-name="Path 10" d="M339.294,268.344l-6.868,3.967v-7.932Z" transform="translate(-316.835 -218.936)" fill="url(#linear-gradient-9)"/>
            <path id="Path_11" data-name="Path 11" d="M321.208,229.319l-11.446-6.612,11.446-6.611Z" transform="translate(-309.762 -203.868)" fill="url(#linear-gradient-10)"/>
            <path id="Path_12" data-name="Path 12" d="M320.584,254.311l-9.158,5.286V249.025Z" transform="translate(-310.281 -214.144)" fill="url(#linear-gradient-11)"/>
            <path id="Path_13" data-name="Path 13" d="M319.959,273.746l-6.868,3.965v-7.932Z" transform="translate(-310.801 -220.621)" fill="url(#linear-gradient-12)"/>
          </g>
          <g id="Group_2" data-name="Group 2" transform="translate(36.041 27.852)">
            <path id="Path_14" data-name="Path 14" d="M356.041,255.924l-6.869,3.967v-7.932Z" transform="translate(-322.061 -222.001)" fill="url(#linear-gradient-13)"/>
            <path id="Path_15" data-name="Path 15" d="M353.248,214.3l-6.869,3.967v-7.932Z" transform="translate(-321.189 -209.01)" fill="url(#linear-gradient-14)"/>
            <path id="Path_16" data-name="Path 16" d="M337.228,208.41v10.576l-9.16-5.29Z" transform="translate(-315.475 -208.41)" fill="url(#linear-gradient-15)"/>
            <path id="Path_17" data-name="Path 17" d="M319.962,259.346v7.932l-6.869-3.967Z" transform="translate(-310.801 -224.307)" fill="url(#linear-gradient-16)"/>
            <path id="Path_18" data-name="Path 18" d="M320.583,249.99l-9.157-5.286,9.157-5.29Z" transform="translate(-310.281 -218.086)" fill="url(#linear-gradient-17)"/>
            <path id="Path_19" data-name="Path 19" d="M309.762,225.706l11.446,6.612-11.446,6.608Z" transform="translate(-309.762 -213.808)" fill="url(#linear-gradient-18)"/>
          </g>
          <g id="Group_3" data-name="Group 3" transform="translate(12.892)">
            <path id="Path_20" data-name="Path 20" d="M355.043,190.882l-6.869,3.965v-7.93Z" transform="translate(-298.601 -173.851)" fill="url(#linear-gradient-19)"/>
            <path id="Path_21" data-name="Path 21" d="M338.685,174.062l-6.871,3.967,0-7.932Z" transform="translate(-293.495 -168.602)" fill="url(#linear-gradient-20)"/>
            <path id="Path_22" data-name="Path 22" d="M337.23,204.088l-9.162,5.286V198.8Z" transform="translate(-292.326 -177.559)" fill="url(#linear-gradient-21)"/>
            <path id="Path_23" data-name="Path 23" d="M319.96,185.468l-6.869-3.965,6.869-3.967Z" transform="translate(-287.652 -170.923)" fill="url(#linear-gradient-22)"/>
            <path id="Path_24" data-name="Path 24" d="M320.584,196.625V207.2l-9.158-5.286Z" transform="translate(-287.132 -176.881)" fill="url(#linear-gradient-23)"/>
            <path id="Path_25" data-name="Path 25" d="M304.568,206.489v13.22L293.12,213.1Z" transform="translate(-281.419 -179.959)" fill="url(#linear-gradient-24)"/>
            <path id="Path_26" data-name="Path 26" d="M303.943,197.59l-9.158-5.286,9.158-5.29Z" transform="translate(-281.938 -173.881)" fill="url(#linear-gradient-25)"/>
            <path id="Path_27" data-name="Path 27" d="M303.314,175.856l-6.87-3.965,6.87-3.967Z" transform="translate(-282.456 -167.924)" fill="url(#linear-gradient-26)"/>
            <path id="Path_28" data-name="Path 28" d="M287.3,209.375l-9.158-5.29L287.3,198.8Z" transform="translate(-276.743 -177.559)" fill="url(#linear-gradient-27)"/>
            <path id="Path_29" data-name="Path 29" d="M282.979,176.7v7.932l-6.869-3.965Z" transform="translate(-276.111 -170.661)" fill="url(#linear-gradient-28)"/>
          </g>
          <g id="Group_4" data-name="Group 4" transform="translate(0.686)">
            <path id="Path_30" data-name="Path 30" d="M336.6,197.251l-6.871-3.967,6.871-3.967Z" transform="translate(-280.639 -174.6)" fill="url(#linear-gradient-29)"/>
            <path id="Path_31" data-name="Path 31" d="M319.959,171.891l-6.869,3.965v-7.932Z" transform="translate(-275.445 -167.924)" fill="url(#linear-gradient-30)"/>
            <path id="Path_32" data-name="Path 32" d="M320.584,192.3l-9.158,5.286V187.018Z" transform="translate(-274.926 -173.883)" fill="url(#linear-gradient-31)"/>
            <path id="Path_33" data-name="Path 33" d="M321.208,213.1l-11.446,6.611v-13.22Z" transform="translate(-274.407 -179.959)" fill="url(#linear-gradient-32)"/>
            <path id="Path_34" data-name="Path 34" d="M303.318,184.752l-6.871,3.967v-7.932Z" transform="translate(-270.251 -171.938)" fill="url(#linear-gradient-33)"/>
            <path id="Path_35" data-name="Path 35" d="M303.942,201.914l-9.158,5.286V196.625Z" transform="translate(-269.732 -176.881)" fill="url(#linear-gradient-34)"/>
            <path id="Path_36" data-name="Path 36" d="M286.67,193.285,279.8,197.25v-7.93Z" transform="translate(-265.056 -174.601)" fill="url(#linear-gradient-35)"/>
            <path id="Path_37" data-name="Path 37" d="M265.237,200.139l-6.87-3.965,6.87-3.967Z" transform="translate(-258.367 -175.502)" fill="url(#linear-gradient-36)"/>
          </g>
          <g id="Group_6" data-name="Group 6" transform="translate(0 27.852)">
            <path id="Path_38" data-name="Path 38" d="M303.315,277.711l-6.871-3.965,6.871-3.967Z" transform="translate(-269.564 -227.562)" fill="url(#linear-gradient-37)"/>
            <g id="Group_5" data-name="Group 5">
              <path id="Path_39" data-name="Path 39" d="M304.568,225.706v13.22l-11.448-6.612Z" transform="translate(-268.527 -213.808)" fill="url(#linear-gradient-38)"/>
              <path id="Path_40" data-name="Path 40" d="M286.67,264.974v7.932L279.8,268.94Z" transform="translate(-264.37 -226.063)" fill="url(#linear-gradient-39)"/>
              <path id="Path_41" data-name="Path 41" d="M287.3,232.918l-9.158,5.286V227.628Z" transform="translate(-263.851 -214.408)" fill="url(#linear-gradient-40)"/>
              <path id="Path_42" data-name="Path 42" d="M287.3,213.7l-9.158,5.29V208.41Z" transform="translate(-263.851 -208.41)" fill="url(#linear-gradient-41)"/>
              <path id="Path_43" data-name="Path 43" d="M268.231,254.272v7.93l-6.871-3.965Z" transform="translate(-258.615 -222.723)" fill="url(#linear-gradient-42)"/>
              <path id="Path_44" data-name="Path 44" d="M270.026,209.933v7.932l-6.871-3.965Z" transform="translate(-259.175 -208.886)" fill="url(#linear-gradient-43)"/>
              <path id="Path_45" data-name="Path 45" d="M264.241,224.406l-6.871,3.965v-7.93Z" transform="translate(-257.37 -212.165)" fill="url(#linear-gradient-44)"/>
            </g>
          </g>
          <g id="Group_7" data-name="Group 7" transform="translate(0.274 22.563)">
            <path id="Path_46" data-name="Path 46" d="M303.939,259.6l-9.16-5.286,9.16-5.29Z" transform="translate(-269.319 -215.796)" fill="url(#linear-gradient-45)"/>
            <path id="Path_47" data-name="Path 47" d="M304.568,222.707l-11.448,6.608v-13.22Z" transform="translate(-268.801 -205.52)" fill="url(#linear-gradient-46)"/>
            <path id="Path_48" data-name="Path 48" d="M303.315,264.138l-6.871,3.967v-7.932Z" transform="translate(-269.839 -219.276)" fill="url(#linear-gradient-47)"/>
            <path id="Path_49" data-name="Path 49" d="M303.938,244.7l-9.157,5.29V239.408Z" transform="translate(-269.32 -212.796)" fill="url(#linear-gradient-48)"/>
            <path id="Path_50" data-name="Path 50" d="M286.67,254.529l-6.869,3.965v-7.93Z" transform="translate(-264.645 -216.278)" fill="url(#linear-gradient-49)"/>
            <path id="Path_51" data-name="Path 51" d="M287.3,237.239v10.573l-9.158-5.286Z" transform="translate(-264.125 -212.119)" fill="url(#linear-gradient-50)"/>
            <path id="Path_52" data-name="Path 52" d="M287.3,218.016v10.573l-9.158-5.283Z" transform="translate(-264.125 -206.12)" fill="url(#linear-gradient-51)"/>
            <path id="Path_53" data-name="Path 53" d="M270.026,237.483l-6.871-3.967,6.871-3.965Z" transform="translate(-259.45 -209.72)" fill="url(#linear-gradient-52)"/>
            <path id="Path_54" data-name="Path 54" d="M264.64,204.691l-6.869,3.965,0-7.932Z" transform="translate(-257.769 -200.723)" fill="url(#linear-gradient-53)"/>
            <path id="Path_55" data-name="Path 55" d="M265.238,243.825l-6.871,3.965v-7.935Z" transform="translate(-257.956 -212.936)" fill="url(#linear-gradient-54)"/>
          </g>
        </g>
      </g>
    </g>
    <g id="Group_21" data-name="Group 21" transform="translate(86.042 0)">
      <g id="Group_19" data-name="Group 19" transform="translate(0.18 35.614)">
        <g id="Group_11" data-name="Group 11" transform="translate(0.453 29.592)">
          <path id="Path_56" data-name="Path 56" d="M389.526,267.476a3.278,3.278,0,0,0-.894-.447q-.5-.165-1.029-.288t-1.028-.227a5.314,5.314,0,0,1-.9-.263,1.775,1.775,0,0,1-.637-.411.911.911,0,0,1-.239-.655,1.422,1.422,0,0,1,.165-.716,1.291,1.291,0,0,1,.441-.46,1.919,1.919,0,0,1,.631-.245,3.564,3.564,0,0,1,.722-.074,2.472,2.472,0,0,1,1.488.422,1.825,1.825,0,0,1,.68,1.365h1.1a3.012,3.012,0,0,0-.282-1.243,2.512,2.512,0,0,0-.685-.863,2.76,2.76,0,0,0-1-.5,4.68,4.68,0,0,0-1.249-.16,4.489,4.489,0,0,0-1.169.153,3.219,3.219,0,0,0-1.017.465,2.362,2.362,0,0,0-.716.8,2.319,2.319,0,0,0-.27,1.145,1.878,1.878,0,0,0,.239.991,2.014,2.014,0,0,0,.637.649,3.554,3.554,0,0,0,.9.41q.5.154,1.028.263t1.029.226a4.813,4.813,0,0,1,.894.294,1.768,1.768,0,0,1,.631.46,1.1,1.1,0,0,1,.239.735,1.344,1.344,0,0,1-.711,1.267,2.319,2.319,0,0,1-.716.251,4.359,4.359,0,0,1-.79.074,3.73,3.73,0,0,1-.961-.122,2.388,2.388,0,0,1-.808-.38,1.9,1.9,0,0,1-.777-1.6h-1.1a3.074,3.074,0,0,0,.288,1.378,2.706,2.706,0,0,0,.784.961,3.367,3.367,0,0,0,1.151.563,5.19,5.19,0,0,0,2.6.036,3.608,3.608,0,0,0,1.1-.459,2.572,2.572,0,0,0,.8-.808,2.477,2.477,0,0,0,.074-2.265A2.139,2.139,0,0,0,389.526,267.476Z" transform="translate(-383.367 -262.712)"/>
          <path id="Path_57" data-name="Path 57" d="M400.228,271.843a2.42,2.42,0,0,1-.043-.539v-3.257a1.7,1.7,0,0,0-.208-.894,1.471,1.471,0,0,0-.551-.532,2.216,2.216,0,0,0-.766-.251,5.945,5.945,0,0,0-.851-.061,4.446,4.446,0,0,0-1,.11,2.468,2.468,0,0,0-.845.361,1.864,1.864,0,0,0-.588.656,2.254,2.254,0,0,0-.245.991h1.041a1.066,1.066,0,0,1,.477-.949,2.206,2.206,0,0,1,1.1-.251,3.47,3.47,0,0,1,.5.036,1.351,1.351,0,0,1,.453.147.877.877,0,0,1,.33.318,1.038,1.038,0,0,1,.129.551.567.567,0,0,1-.171.447,1.124,1.124,0,0,1-.465.233,4.587,4.587,0,0,1-.68.122q-.386.042-.815.129a7.292,7.292,0,0,0-.79.189,2.439,2.439,0,0,0-.686.325,1.548,1.548,0,0,0-.484.551,1.862,1.862,0,0,0-.184.882,1.832,1.832,0,0,0,.165.814,1.521,1.521,0,0,0,.447.551,1.817,1.817,0,0,0,.667.312,3.294,3.294,0,0,0,.814.1,3.228,3.228,0,0,0,1.231-.233,2.554,2.554,0,0,0,1-.747,1.006,1.006,0,0,0,.239.747.882.882,0,0,0,.643.233,1.427,1.427,0,0,0,.747-.171v-.808a.955.955,0,0,1-.319.061C400.353,272.014,400.256,271.957,400.228,271.843Zm-1.083-1.262a1.179,1.179,0,0,1-.111.472,1.4,1.4,0,0,1-.343.465,1.849,1.849,0,0,1-.6.355,2.458,2.458,0,0,1-.882.141,2.158,2.158,0,0,1-.465-.049,1.132,1.132,0,0,1-.386-.16.872.872,0,0,1-.27-.288.853.853,0,0,1-.1-.435,1.044,1.044,0,0,1,.1-.49.971.971,0,0,1,.276-.325,1.345,1.345,0,0,1,.4-.2,4.14,4.14,0,0,1,.49-.122c.172-.033.349-.059.533-.08s.357-.045.52-.074.318-.063.466-.1a1.109,1.109,0,0,0,.367-.171Z" transform="translate(-386.961 -263.834)"/>
          <path id="Path_58" data-name="Path 58" d="M409.14,270.1a2.556,2.556,0,0,1-.116.79,1.8,1.8,0,0,1-.349.631,1.547,1.547,0,0,1-.582.416,2.111,2.111,0,0,1-.826.147,1.272,1.272,0,0,1-.943-.343,1.257,1.257,0,0,1-.343-.93v-4.286H404.94v4.163a3.909,3.909,0,0,0,.1.936,1.771,1.771,0,0,0,.361.728,1.71,1.71,0,0,0,.673.478,2.751,2.751,0,0,0,1.041.171,2.5,2.5,0,0,0,1.207-.282,2.158,2.158,0,0,0,.851-.869h.024v1h.98v-6.33H409.14Z" transform="translate(-390.1 -263.901)"/>
          <path id="Path_59" data-name="Path 59" d="M419.3,266.272h-.024a1.7,1.7,0,0,0-.422-.472,2.449,2.449,0,0,0-.533-.306,2.733,2.733,0,0,0-.563-.165,3.127,3.127,0,0,0-.527-.049,2.882,2.882,0,0,0-1.267.263,2.57,2.57,0,0,0-.906.716,3.07,3.07,0,0,0-.539,1.047,4.407,4.407,0,0,0-.177,1.267,4.324,4.324,0,0,0,.184,1.273,3.216,3.216,0,0,0,.545,1.059,2.6,2.6,0,0,0,.907.729,2.856,2.856,0,0,0,1.28.27,3.022,3.022,0,0,0,1.212-.239,1.558,1.558,0,0,0,.808-.766h.024v.857h1.041v-8.743H419.3Zm-.067,3.2a2.284,2.284,0,0,1-.336.765,1.719,1.719,0,0,1-1.494.753,1.855,1.855,0,0,1-.875-.2,1.74,1.74,0,0,1-.612-.526,2.334,2.334,0,0,1-.356-.753,3.261,3.261,0,0,1-.116-.863,4.16,4.16,0,0,1,.1-.906,2.392,2.392,0,0,1,.319-.784,1.667,1.667,0,0,1,.581-.551,1.777,1.777,0,0,1,.9-.208,1.93,1.93,0,0,1,.918.2,1.777,1.777,0,0,1,.618.532,2.207,2.207,0,0,1,.349.765,3.692,3.692,0,0,1,.006,1.77Z" transform="translate(-393.033 -262.807)"/>
          <rect id="Rectangle_1" data-name="Rectangle 1" width="1.041" height="6.331" transform="translate(28.971 2.621)"/>
          <path id="Path_60" data-name="Path 60" d="M437.541,263.015h-3v8.743h3a5.244,5.244,0,0,0,1.886-.306,3.3,3.3,0,0,0,1.31-.887,3.652,3.652,0,0,0,.759-1.433,7.085,7.085,0,0,0,.245-1.953,4.119,4.119,0,0,0-1.09-3.135A4.358,4.358,0,0,0,437.541,263.015Zm2.871,5.7a3.344,3.344,0,0,1-.422.949,2.209,2.209,0,0,1-.582.6,2.875,2.875,0,0,1-.655.336,2.749,2.749,0,0,1-.625.147q-.294.03-.49.03H435.7v-6.784h1.959a3.507,3.507,0,0,1,1.359.233,2.285,2.285,0,0,1,.9.661,2.647,2.647,0,0,1,.5,1.047,5.87,5.87,0,0,1,.153,1.4A5,5,0,0,1,440.412,268.715Z" transform="translate(-399.338 -262.807)"/>
          <path id="Path_61" data-name="Path 61" d="M451.669,271.843a2.426,2.426,0,0,1-.043-.539v-3.257a1.7,1.7,0,0,0-.208-.894,1.471,1.471,0,0,0-.551-.532,2.217,2.217,0,0,0-.765-.251,5.96,5.96,0,0,0-.851-.061,4.448,4.448,0,0,0-1,.11,2.468,2.468,0,0,0-.845.361,1.864,1.864,0,0,0-.588.656,2.254,2.254,0,0,0-.245.991h1.041a1.065,1.065,0,0,1,.478-.949,2.2,2.2,0,0,1,1.1-.251,3.47,3.47,0,0,1,.5.036,1.345,1.345,0,0,1,.453.147.884.884,0,0,1,.331.318,1.044,1.044,0,0,1,.129.551.567.567,0,0,1-.172.447,1.124,1.124,0,0,1-.465.233,4.586,4.586,0,0,1-.68.122q-.386.042-.814.129a7.291,7.291,0,0,0-.79.189,2.44,2.44,0,0,0-.686.325,1.555,1.555,0,0,0-.484.551,1.862,1.862,0,0,0-.184.882,1.822,1.822,0,0,0,.166.814,1.513,1.513,0,0,0,.446.551,1.824,1.824,0,0,0,.667.312,3.3,3.3,0,0,0,.815.1,3.228,3.228,0,0,0,1.231-.233,2.554,2.554,0,0,0,1-.747,1.006,1.006,0,0,0,.239.747.882.882,0,0,0,.643.233,1.427,1.427,0,0,0,.747-.171v-.808a.956.956,0,0,1-.319.061C451.794,272.014,451.7,271.957,451.669,271.843Zm-1.083-1.262a1.188,1.188,0,0,1-.11.472,1.411,1.411,0,0,1-.343.465,1.841,1.841,0,0,1-.6.355,2.458,2.458,0,0,1-.882.141,2.158,2.158,0,0,1-.465-.049,1.132,1.132,0,0,1-.386-.16.863.863,0,0,1-.269-.288.846.846,0,0,1-.1-.435,1.034,1.034,0,0,1,.1-.49.962.962,0,0,1,.275-.325,1.341,1.341,0,0,1,.4-.2,4.076,4.076,0,0,1,.49-.122c.171-.033.349-.059.532-.08s.357-.045.52-.074.319-.063.466-.1a1.109,1.109,0,0,0,.367-.171Z" transform="translate(-403.015 -263.834)"/>
          <path id="Path_62" data-name="Path 62" d="M457.521,263.763h-1.042v1.9H455.4v.918h1.077v4.028a2.4,2.4,0,0,0,.086.71.862.862,0,0,0,.263.416,1.007,1.007,0,0,0,.465.2,3.7,3.7,0,0,0,.692.055h.8v-.918H458.3a3.429,3.429,0,0,1-.4-.019.511.511,0,0,1-.239-.079.3.3,0,0,1-.116-.171,1.135,1.135,0,0,1-.03-.294v-3.93h1.261v-.918h-1.261Z" transform="translate(-405.848 -263.04)"/>
          <path id="Path_63" data-name="Path 63" d="M466.834,271.843a2.423,2.423,0,0,1-.043-.539v-3.257a1.7,1.7,0,0,0-.208-.894,1.472,1.472,0,0,0-.551-.532,2.217,2.217,0,0,0-.765-.251,5.959,5.959,0,0,0-.851-.061,4.447,4.447,0,0,0-1,.11,2.468,2.468,0,0,0-.845.361,1.856,1.856,0,0,0-.587.656,2.244,2.244,0,0,0-.246.991h1.041a1.065,1.065,0,0,1,.478-.949,2.2,2.2,0,0,1,1.1-.251,3.485,3.485,0,0,1,.5.036,1.346,1.346,0,0,1,.453.147.883.883,0,0,1,.331.318,1.044,1.044,0,0,1,.129.551.567.567,0,0,1-.172.447,1.124,1.124,0,0,1-.465.233,4.586,4.586,0,0,1-.68.122q-.386.042-.815.129a7.288,7.288,0,0,0-.79.189,2.435,2.435,0,0,0-.685.325,1.556,1.556,0,0,0-.484.551,1.862,1.862,0,0,0-.184.882,1.832,1.832,0,0,0,.166.814,1.512,1.512,0,0,0,.446.551,1.821,1.821,0,0,0,.668.312,3.29,3.29,0,0,0,.814.1,3.228,3.228,0,0,0,1.231-.233,2.554,2.554,0,0,0,1-.747,1.009,1.009,0,0,0,.239.747.882.882,0,0,0,.642.233,1.427,1.427,0,0,0,.747-.171v-.808a.955.955,0,0,1-.319.061Q466.877,272.014,466.834,271.843Zm-1.084-1.262a1.176,1.176,0,0,1-.11.472,1.4,1.4,0,0,1-.343.465,1.841,1.841,0,0,1-.6.355,2.458,2.458,0,0,1-.882.141,2.163,2.163,0,0,1-.465-.049,1.138,1.138,0,0,1-.386-.16.863.863,0,0,1-.269-.288.846.846,0,0,1-.1-.435,1.034,1.034,0,0,1,.1-.49.961.961,0,0,1,.275-.325,1.341,1.341,0,0,1,.4-.2,4.075,4.075,0,0,1,.49-.122c.171-.033.349-.059.532-.08s.357-.045.52-.074.319-.063.466-.1a1.1,1.1,0,0,0,.367-.171Z" transform="translate(-407.748 -263.834)"/>
          <path id="Path_64" data-name="Path 64" d="M481.968,269.266a4.062,4.062,0,0,0,.165-.46,4.167,4.167,0,0,0,.11-.508q.042-.276.08-.667h-.992a4.576,4.576,0,0,1-.282,1.359l-1.579-1.922a5.4,5.4,0,0,0,.612-.411,3.257,3.257,0,0,0,.527-.508,2.336,2.336,0,0,0,.367-.618,1.948,1.948,0,0,0,.135-.729,1.647,1.647,0,0,0-.178-.778,1.7,1.7,0,0,0-.471-.563,2,2,0,0,0-.68-.337,2.853,2.853,0,0,0-.79-.11,2.251,2.251,0,0,0-.845.147,1.81,1.81,0,0,0-.618.4,1.687,1.687,0,0,0-.38.576,1.835,1.835,0,0,0-.129.68,2.117,2.117,0,0,0,.08.6,2.148,2.148,0,0,0,.22.5c.094.155.2.31.312.465s.233.318.355.49a8.93,8.93,0,0,0-.79.471,3.36,3.36,0,0,0-.649.563,2.56,2.56,0,0,0-.441.7,2.314,2.314,0,0,0-.165.906,3.148,3.148,0,0,0,.091.673,2.009,2.009,0,0,0,.386.784,2.427,2.427,0,0,0,.832.655,3.133,3.133,0,0,0,1.421.276,3.336,3.336,0,0,0,.717-.08,3.241,3.241,0,0,0,.685-.232,2.709,2.709,0,0,0,.6-.386,2.371,2.371,0,0,0,.471-.539l.931,1.09h1.359l-1.7-1.972C481.825,269.591,481.9,269.417,481.968,269.266Zm-3.6-5.106a1.176,1.176,0,0,1,.69-.226.987.987,0,0,1,.739.275.9.9,0,0,1,.272.656,1.132,1.132,0,0,1-.111.508,1.658,1.658,0,0,1-.283.411,2.438,2.438,0,0,1-.382.33c-.14.1-.271.188-.394.27l-.3-.367q-.148-.184-.271-.374a2.308,2.308,0,0,1-.2-.386,1.019,1.019,0,0,1-.08-.391A.8.8,0,0,1,478.369,264.16Zm1.412,6.545a2.048,2.048,0,0,1-1.071.282,1.788,1.788,0,0,1-.618-.11,1.817,1.817,0,0,1-.532-.3,1.42,1.42,0,0,1-.374-.465,1.308,1.308,0,0,1-.141-.606,1.723,1.723,0,0,1,.122-.68,1.855,1.855,0,0,1,.331-.52,2.5,2.5,0,0,1,.484-.417q.276-.184.581-.355l2.008,2.413A2.443,2.443,0,0,1,479.782,270.7Z" transform="translate(-412.258 -262.807)"/>
          <path id="Path_65" data-name="Path 65" d="M494.809,263.015l-3.416,8.743h1.2l.98-2.633h3.7l.955,2.633h1.286l-3.416-8.743Zm-.87,5.13,1.482-4.077h.025l1.457,4.077Z" transform="translate(-417.08 -262.807)"/>
          <rect id="Rectangle_2" data-name="Rectangle 2" width="1.163" height="8.743" transform="translate(83.337 0.208)"/>
          <path id="Path_66" data-name="Path 66" d="M515.9,263.015l-3.416,8.743h1.2l.98-2.633h3.7l.955,2.633H520.6l-3.416-8.743Zm-.87,5.13,1.482-4.077h.025L518,268.146Z" transform="translate(-423.663 -262.807)"/>
          <path id="Path_67" data-name="Path 67" d="M529.484,270.1a2.556,2.556,0,0,1-.116.79,1.8,1.8,0,0,1-.349.631,1.547,1.547,0,0,1-.582.416,2.11,2.11,0,0,1-.826.147,1.272,1.272,0,0,1-.943-.343,1.257,1.257,0,0,1-.343-.93v-4.286h-1.041v4.163a3.91,3.91,0,0,0,.1.936,1.771,1.771,0,0,0,.361.728,1.715,1.715,0,0,0,.674.478,2.751,2.751,0,0,0,1.041.171,2.5,2.5,0,0,0,1.206-.282,2.158,2.158,0,0,0,.851-.869h.024v1h.98v-6.33h-1.041Z" transform="translate(-427.657 -263.901)"/>
          <path id="Path_68" data-name="Path 68" d="M536.32,263.763h-1.041v1.9H534.2v.918h1.077v4.028a2.4,2.4,0,0,0,.086.71.861.861,0,0,0,.263.416,1.01,1.01,0,0,0,.466.2,3.694,3.694,0,0,0,.691.055h.8v-.918H537.1a3.424,3.424,0,0,1-.4-.019.505.505,0,0,1-.239-.079.3.3,0,0,1-.116-.171,1.132,1.132,0,0,1-.031-.294v-3.93h1.261v-.918H536.32Z" transform="translate(-430.44 -263.04)"/>
          <path id="Path_69" data-name="Path 69" d="M545.563,265.929a1.713,1.713,0,0,0-.673-.477,2.752,2.752,0,0,0-1.042-.171,2.921,2.921,0,0,0-.581.061,2.432,2.432,0,0,0-.57.19,2.035,2.035,0,0,0-.5.336,1.451,1.451,0,0,0-.349.49h-.024v-3.343h-1.042v8.743h1.042v-3.575a2.565,2.565,0,0,1,.116-.79,1.783,1.783,0,0,1,.349-.63,1.544,1.544,0,0,1,.581-.416,2.116,2.116,0,0,1,.827-.147,1.274,1.274,0,0,1,.942.343,1.257,1.257,0,0,1,.343.931v4.286h1.041v-4.163a3.951,3.951,0,0,0-.1-.937A1.772,1.772,0,0,0,545.563,265.929Z" transform="translate(-432.495 -262.807)"/>
          <path id="Path_70" data-name="Path 70" d="M555.549,267.269a2.767,2.767,0,0,0-.967-.7,3.544,3.544,0,0,0-2.651,0,2.789,2.789,0,0,0-.961.7,2.951,2.951,0,0,0-.587,1.053,4.215,4.215,0,0,0-.2,1.3,4.162,4.162,0,0,0,.2,1.3,2.95,2.95,0,0,0,.587,1.046,2.782,2.782,0,0,0,.961.7,3.544,3.544,0,0,0,2.651,0,2.761,2.761,0,0,0,.967-.7,2.962,2.962,0,0,0,.588-1.046,4.18,4.18,0,0,0,.2-1.3,4.233,4.233,0,0,0-.2-1.3A2.962,2.962,0,0,0,555.549,267.269Zm-.471,3.38a2.152,2.152,0,0,1-.422.747,1.828,1.828,0,0,1-.631.459,1.914,1.914,0,0,1-1.531,0,1.828,1.828,0,0,1-.631-.459,2.149,2.149,0,0,1-.422-.747,3.5,3.5,0,0,1,0-2.045,2.214,2.214,0,0,1,.422-.753,1.8,1.8,0,0,1,.631-.466,1.922,1.922,0,0,1,1.531,0,1.8,1.8,0,0,1,.631.466,2.217,2.217,0,0,1,.422.753,3.5,3.5,0,0,1,0,2.045Z" transform="translate(-435.428 -263.834)"/>
          <path id="Path_71" data-name="Path 71" d="M561.852,267.789h-.024v-1.335h-.98v6.33h1.041v-2.816a4.337,4.337,0,0,1,.122-1.077,2.068,2.068,0,0,1,.391-.808,1.689,1.689,0,0,1,.711-.5,2.943,2.943,0,0,1,1.065-.171v-1.1a2.339,2.339,0,0,0-1.4.343A2.82,2.82,0,0,0,561.852,267.789Z" transform="translate(-438.756 -263.834)"/>
          <rect id="Rectangle_3" data-name="Rectangle 3" width="1.041" height="6.331" transform="translate(126.267 2.621)"/>
          <path id="Path_72" data-name="Path 72" d="M571.919,263.763h-1.041v1.9H569.8v.918h1.077v4.028a2.4,2.4,0,0,0,.086.71.858.858,0,0,0,.263.416,1,1,0,0,0,.465.2,3.7,3.7,0,0,0,.692.055h.8v-.918H572.7a3.424,3.424,0,0,1-.4-.019.508.508,0,0,1-.239-.079.3.3,0,0,1-.116-.171,1.132,1.132,0,0,1-.031-.294v-3.93h1.262v-.918h-1.262Z" transform="translate(-441.55 -263.04)"/>
          <path id="Path_73" data-name="Path 73" d="M580.214,266.522l-1.776,5.179h-.025l-1.848-5.179H575.39l2.51,6.294-.429,1.077a1.242,1.242,0,0,1-.343.429.832.832,0,0,1-.514.147,1.025,1.025,0,0,1-.312-.049l-.3-.1v.956a1.757,1.757,0,0,0,.355.085,2.74,2.74,0,0,0,.367.025,1.893,1.893,0,0,0,.612-.092,1.263,1.263,0,0,0,.477-.294,2.241,2.241,0,0,0,.386-.52,6.677,6.677,0,0,0,.361-.784l2.755-7.175Z" transform="translate(-443.294 -263.901)"/>
          <path id="Path_74" data-name="Path 74" d="M426.522,263.015h-1.041v1.273l1.041-.6Z" transform="translate(-396.51 -262.807)"/>
          <path id="Path_75" data-name="Path 75" d="M567.958,263.015h-1.041v1.273l1.041-.6Z" transform="translate(-440.65 -262.807)"/>
        </g>
        <g id="Group_18" data-name="Group 18">
          <path id="Path_76" data-name="Path 76" d="M383.24,230.175a1.909,1.909,0,0,0,.759.312,5.945,5.945,0,0,0,1.182.1h7.42v-4.714h-1v3.7h-5.915q-.587,0-.967-.037a1.63,1.63,0,0,1-.6-.153.657.657,0,0,1-.312-.343,1.651,1.651,0,0,1-.091-.607V226.9h-1v1.9a2.43,2.43,0,0,0,.122.827A1.176,1.176,0,0,0,383.24,230.175Z" transform="translate(-382.708 -221.622)"/>
          <path id="Path_77" data-name="Path 77" d="M400.066,228.4a1.3,1.3,0,0,0,.551.275,2.981,2.981,0,0,0,.717.08h5.02v-4.714h-1v3.7h-3.894q-.551,0-.711-.215a1.257,1.257,0,0,1-.159-.729v-6.784h-1v7.053a2.237,2.237,0,0,0,.129.814A1.319,1.319,0,0,0,400.066,228.4Z" transform="translate(-387.974 -219.795)"/>
          <path id="Path_78" data-name="Path 78" d="M412.384,228.4a1.294,1.294,0,0,0,.551.275,2.971,2.971,0,0,0,.716.08h3.135a3.944,3.944,0,0,0,1.157-.147,1.1,1.1,0,0,0,.691-.649,1.079,1.079,0,0,0,.392.57,1.216,1.216,0,0,0,.768.226H420.8a3.944,3.944,0,0,0,1.157-.147,1.1,1.1,0,0,0,.692-.649,1.081,1.081,0,0,0,.391.57,1.228,1.228,0,0,0,.771.226h.87a4.383,4.383,0,0,0,1.243-.147,1.1,1.1,0,0,0,.7-.649,1.086,1.086,0,0,0,.385.57,1.2,1.2,0,0,0,.765.226H430.7v-8.743h-1v7.727h-1.91a.908.908,0,0,1-.8-.361,1.7,1.7,0,0,1-.251-.986v-6.38h-1v6.832a1.386,1.386,0,0,1-.067.484.606.606,0,0,1-.183.27.587.587,0,0,1-.288.116,2.765,2.765,0,0,1-.391.025h-.98a1.238,1.238,0,0,1-.527-.1.826.826,0,0,1-.33-.269,1,1,0,0,1-.165-.422,3.293,3.293,0,0,1-.043-.557v-2.351h-1v2.8a1.4,1.4,0,0,1-.067.484.54.54,0,0,1-.208.27.8.8,0,0,1-.349.116,4.343,4.343,0,0,1-.5.025h-.824a1.218,1.218,0,0,1-.523-.1.821.821,0,0,1-.33-.269,1.01,1.01,0,0,1-.166-.422,3.365,3.365,0,0,1-.043-.557v-2.351h-1v2.8a1.4,1.4,0,0,1-.067.484.536.536,0,0,1-.208.27.8.8,0,0,1-.349.116,4.32,4.32,0,0,1-.5.025h-2.829q-.551,0-.71-.215a1.251,1.251,0,0,1-.16-.729v-6.784h-1v7.053a2.222,2.222,0,0,0,.129.814A1.3,1.3,0,0,0,412.384,228.4Z" transform="translate(-391.818 -219.795)"/>
          <path id="Path_79" data-name="Path 79" d="M446.309,228.835a2.244,2.244,0,0,0,.735.31,3.183,3.183,0,0,0,.68.085,3.914,3.914,0,0,0,1.261-.221,1.4,1.4,0,0,0,.208.6,1.288,1.288,0,0,0,.386.378,1.483,1.483,0,0,0,.514.2,3.187,3.187,0,0,0,.606.056h5.143v-4.714h-1v3.7l-4.016-.012q-.551,0-.71-.213a1.246,1.246,0,0,1-.159-.724v-3.5H448a3.365,3.365,0,0,0-.887.122,2.332,2.332,0,0,0-.815.4,2.138,2.138,0,0,0-.6.724,2.354,2.354,0,0,0-.232,1.1,2.047,2.047,0,0,0,.245,1.066A1.9,1.9,0,0,0,446.309,228.835Zm.557-2.734a1.673,1.673,0,0,1,1-.3h1.077v2.168a3.1,3.1,0,0,1-.557.158,3.059,3.059,0,0,1-.581.061,1.437,1.437,0,0,1-1.035-.317,1.106,1.106,0,0,1-.324-.828A1.08,1.08,0,0,1,446.866,226.1Z" transform="translate(-402.295 -221.284)"/>
          <path id="Path_80" data-name="Path 80" d="M466.428,230.078a1.266,1.266,0,0,0,.4-.967,1.48,1.48,0,0,0-.116-.557,5.865,5.865,0,0,0-.349-.691q-.233-.4-.594-.98t-.851-1.421l-.943.587q.624.918.986,1.457t.551.833a2.547,2.547,0,0,1,.239.429.758.758,0,0,1,.049.257.43.43,0,0,1-.11.288c-.074.085-.249.129-.526.129h-2.841v1.016h2.926A1.655,1.655,0,0,0,466.428,230.078Z" transform="translate(-407.555 -221.495)"/>
          <path id="Path_81" data-name="Path 81" d="M494.8,227.742h-1.926a1.218,1.218,0,0,1-.523-.1.821.821,0,0,1-.33-.269,1,1,0,0,1-.165-.422,3.29,3.29,0,0,1-.043-.557v-2.351h-1v2.8a1.4,1.4,0,0,1-.067.484.589.589,0,0,1-.19.27.624.624,0,0,1-.294.116,2.682,2.682,0,0,1-.38.025,1.51,1.51,0,0,1-.594-.1.854.854,0,0,1-.356-.269.972.972,0,0,1-.171-.422,3.3,3.3,0,0,1-.043-.557v-1.739h-1v2.192a1.4,1.4,0,0,1-.067.484.549.549,0,0,1-.2.27.737.737,0,0,1-.331.116,3.772,3.772,0,0,1-.465.025,1.912,1.912,0,0,1-.68-.1.876.876,0,0,1-.386-.269.867.867,0,0,1-.171-.422,3.826,3.826,0,0,1-.037-.557v-1.739h-1v2.192a1.294,1.294,0,0,1-.074.484.53.53,0,0,1-.239.27,1.121,1.121,0,0,1-.447.116q-.282.025-.686.025H480.8a3.11,3.11,0,0,1-.612-.049,3.852,3.852,0,0,0,1.035-1.041,2.258,2.258,0,0,0,.386-1.262,1.3,1.3,0,0,0-.129-.557,1.386,1.386,0,0,0-.391-.49,2.032,2.032,0,0,0-.661-.343,3.052,3.052,0,0,0-.937-.129,3.107,3.107,0,0,0-1.207.233,2.913,2.913,0,0,0-.949.625.907.907,0,0,0-.141.19c-.045.078-.089.163-.134.257s-.086.19-.123.288-.067.192-.092.281l1.531,1.739a5.012,5.012,0,0,1-.87.2,6.892,6.892,0,0,1-.918.061h-1.42v-.576a6.418,6.418,0,0,0-.123-1.31,2.851,2.851,0,0,0-.4-1,1.878,1.878,0,0,0-.716-.643,2.343,2.343,0,0,0-1.078-.226,2.234,2.234,0,0,0-1.022.226,2.431,2.431,0,0,0-.759.594,2.611,2.611,0,0,0-.477.845,2.98,2.98,0,0,0-.165.98,2.5,2.5,0,0,0,.177,1,1.7,1.7,0,0,0,.49.655,1.944,1.944,0,0,0,.735.361,3.647,3.647,0,0,0,.925.11h1.383a1.49,1.49,0,0,1-.214.8,1.322,1.322,0,0,1-.551.471,2.626,2.626,0,0,1-.827.221,9.3,9.3,0,0,1-1.053.055h-.379v1.016h.514a7.359,7.359,0,0,0,1.4-.122,3.031,3.031,0,0,0,1.084-.416,2.107,2.107,0,0,0,.716-.784,3.031,3.031,0,0,0,.312-1.237h1.493a6.287,6.287,0,0,0,1.274-.129,6.852,6.852,0,0,0,1.2-.361,1.833,1.833,0,0,0,.68.4,2.483,2.483,0,0,0,.68.091H482.9q.539,0,.925-.03a2.63,2.63,0,0,0,.649-.122,1.209,1.209,0,0,0,.429-.245,1.191,1.191,0,0,0,.276-.411,1.914,1.914,0,0,0,.184.294,1.078,1.078,0,0,0,.294.263,1.524,1.524,0,0,0,.471.184,3.178,3.178,0,0,0,.716.067,3.63,3.63,0,0,0,1.1-.147,1.1,1.1,0,0,0,.679-.649,1.57,1.57,0,0,0,.166.276,1.036,1.036,0,0,0,.288.257,1.648,1.648,0,0,0,.46.19,2.648,2.648,0,0,0,.679.074,2.57,2.57,0,0,0,.356-.03,2.007,2.007,0,0,0,.429-.116,1.634,1.634,0,0,0,.416-.239,1.021,1.021,0,0,0,.306-.41,1.081,1.081,0,0,0,.391.57,1.228,1.228,0,0,0,.772.226h2.926v-8.743h-1Zm-20.669,0h-1.31a1.65,1.65,0,0,1-1.059-.294,1.115,1.115,0,0,1-.361-.918,1.928,1.928,0,0,1,.085-.563,1.7,1.7,0,0,1,.251-.508,1.284,1.284,0,0,1,.422-.367,1.263,1.263,0,0,1,.613-.141,1.11,1.11,0,0,1,1.053.539,2.919,2.919,0,0,1,.306,1.445Zm5.155-.625-1.494-1.579a1.847,1.847,0,0,1,.692-.515,2.232,2.232,0,0,1,.925-.2,1.449,1.449,0,0,1,.9.227.645.645,0,0,1,.288.508,1.272,1.272,0,0,1-.361.857A3.136,3.136,0,0,1,479.29,227.117Z" transform="translate(-410.083 -219.795)"/>
          <rect id="Rectangle_4" data-name="Rectangle 4" width="1.004" height="8.743" transform="translate(87.44 0.22)"/>
          <path id="Path_82" data-name="Path 82" d="M532.6,221.874h-.845a.813.813,0,0,1-.637-.233.83.83,0,0,1-.208-.576.784.784,0,0,1,.178-.5.678.678,0,0,1,.569-.226,1.734,1.734,0,0,1,.637.11v-.661a2.433,2.433,0,0,0-.263-.061,2.357,2.357,0,0,0-.447-.036,1.407,1.407,0,0,0-.49.085,1.281,1.281,0,0,0-.416.251,1.2,1.2,0,0,0-.294.416,1.47,1.47,0,0,0-.11.594,1.269,1.269,0,0,0,.281.832h-.625v.649h2.67Z" transform="translate(-428.653 -219.695)"/>
          <path id="Path_83" data-name="Path 83" d="M542.318,220.015h-1v7.727h-3.673v-.049a2.7,2.7,0,0,0,.606-.729,2.176,2.176,0,0,0,.263-1.12,2.326,2.326,0,0,0-.1-.637,1.885,1.885,0,0,0-.324-.636,1.81,1.81,0,0,0-.594-.49,1.906,1.906,0,0,0-.906-.2,1.947,1.947,0,0,0-1.666.82,3.893,3.893,0,0,0-.6,2.327v.711h-1.31a1.238,1.238,0,0,1-.527-.1.82.82,0,0,1-.33-.269,1.009,1.009,0,0,1-.166-.422,3.368,3.368,0,0,1-.043-.557v-2.351h-1v2.8a1.405,1.405,0,0,1-.067.484.541.541,0,0,1-.208.27.8.8,0,0,1-.349.116,4.341,4.341,0,0,1-.5.025H529a1.237,1.237,0,0,1-.526-.1.827.827,0,0,1-.331-.269,1.018,1.018,0,0,1-.165-.422,3.3,3.3,0,0,1-.043-.557v-2.351h-1v2.8a1.4,1.4,0,0,1-.067.484.536.536,0,0,1-.208.27.8.8,0,0,1-.349.116,4.33,4.33,0,0,1-.5.025l-2.926-.012c-.367,0-.6-.071-.711-.213a1.247,1.247,0,0,1-.159-.724v-3.5h-1.947a3.37,3.37,0,0,0-.888.122,2.329,2.329,0,0,0-.814.4,2.146,2.146,0,0,0-.6.724,2.362,2.362,0,0,0-.233,1.1,2.053,2.053,0,0,0,.245,1.066,1.9,1.9,0,0,0,.594.634,2.256,2.256,0,0,0,.735.31,3.188,3.188,0,0,0,.68.085,3.914,3.914,0,0,0,1.262-.221,1.394,1.394,0,0,0,.208.6,1.289,1.289,0,0,0,.386.378,1.485,1.485,0,0,0,.515.2,3.176,3.176,0,0,0,.606.056h3.232a3.945,3.945,0,0,0,1.157-.147,1.1,1.1,0,0,0,.691-.649,1.078,1.078,0,0,0,.392.57,1.226,1.226,0,0,0,.771.226h1a3.944,3.944,0,0,0,1.157-.147,1.1,1.1,0,0,0,.692-.649,1.074,1.074,0,0,0,.392.57,1.227,1.227,0,0,0,.771.226h1.31v.135a5.911,5.911,0,0,0,.11,1.194,2.4,2.4,0,0,0,.373.906,1.731,1.731,0,0,0,.692.575,2.487,2.487,0,0,0,1.065.2,2.209,2.209,0,0,0,.839-.147,1.742,1.742,0,0,0,.6-.391,1.628,1.628,0,0,0,.361-.576,1.971,1.971,0,0,0,.122-.686,2.331,2.331,0,0,0-.08-.551,1.3,1.3,0,0,0-.385-.612v-.049h4.3ZM521,226.481a3.088,3.088,0,0,1-.557.158,3.047,3.047,0,0,1-.581.061,1.435,1.435,0,0,1-1.035-.317,1.1,1.1,0,0,1-.325-.828,1.082,1.082,0,0,1,.416-.944,1.675,1.675,0,0,1,1-.3H521Zm14.327.452a2.954,2.954,0,0,1,.324-1.524,1.026,1.026,0,0,1,.925-.532.971.971,0,0,1,.686.275,1.132,1.132,0,0,1,.294.863,2,2,0,0,1-.085.545,1.747,1.747,0,0,1-.282.563,1.587,1.587,0,0,1-.52.441,1.628,1.628,0,0,1-.79.177h-.551Zm1.99,3.625a1.026,1.026,0,0,1-.765.257,1.236,1.236,0,0,1-.631-.141,1,1,0,0,1-.374-.386,1.6,1.6,0,0,1-.178-.575,5.6,5.6,0,0,1-.043-.723v-.233h.906a1.649,1.649,0,0,1,.716.129,1.188,1.188,0,0,1,.4.3.809.809,0,0,1,.178.361,1.718,1.718,0,0,1,.036.3A.975.975,0,0,1,537.317,230.558Z" transform="translate(-424.781 -219.795)"/>
          <rect id="Rectangle_5" data-name="Rectangle 5" width="1.004" height="8.743" transform="translate(119.251 0.22)"/>
          <path id="Path_84" data-name="Path 84" d="M390.557,251.991h6.233v-1.016H395a1.6,1.6,0,0,1-1.187-.4,1.394,1.394,0,0,1-.392-1.022,1.284,1.284,0,0,1,.453-1.041,1.844,1.844,0,0,1,1.224-.38,3.389,3.389,0,0,1,.661.055,5.177,5.177,0,0,1,.5.129v-1.09a1.912,1.912,0,0,0-.453-.11,5.031,5.031,0,0,0-.747-.049,3.175,3.175,0,0,0-.949.147,2.62,2.62,0,0,0-.857.453,2.32,2.32,0,0,0-.625.771,2.381,2.381,0,0,0-.239,1.1,2.235,2.235,0,0,0,.147.833,1.882,1.882,0,0,0,.367.6h-2.73a8.5,8.5,0,0,1-2.951-.576v.99q.367.11.845.244t.9.3a2.937,2.937,0,0,1,.71.384.627.627,0,0,1,.288.5.569.569,0,0,1-.245.451,2,2,0,0,1-.666.323,5.771,5.771,0,0,1-.984.195,10.011,10.011,0,0,1-1.185.067,4.463,4.463,0,0,1-2.432-.506,1.791,1.791,0,0,1-.745-1.593v-1.7h-1v1.886a3.527,3.527,0,0,0,.184,1.157,2.069,2.069,0,0,0,.655.925,3.436,3.436,0,0,0,1.274.618,7.675,7.675,0,0,0,2.038.226,9.088,9.088,0,0,0,1.88-.165,4.336,4.336,0,0,0,1.242-.441,1.877,1.877,0,0,0,.692-.631,1.387,1.387,0,0,0,.214-.722,1.457,1.457,0,0,0-.1-.508A1.258,1.258,0,0,0,390.557,251.991Z" transform="translate(-382.708 -228.238)"/>
          <path id="Path_85" data-name="Path 85" d="M430.875,245.385a3.564,3.564,0,0,0-1.567.347,4.835,4.835,0,0,0-1.292.9,6.061,6.061,0,0,0-.98,1.245,7.4,7.4,0,0,0-.643,1.361.936.936,0,0,1-.465-.1.661.661,0,0,1-.263-.269,1.124,1.124,0,0,1-.116-.422c-.017-.167-.025-.354-.025-.557v-1.739h-1v2.192a1.294,1.294,0,0,1-.074.484.53.53,0,0,1-.239.27,1.121,1.121,0,0,1-.447.116q-.282.025-.686.025h-1.359v-1.05a2.981,2.981,0,0,0-.668-2.063,2.363,2.363,0,0,0-1.855-.744,3.446,3.446,0,0,0-1.953.557,4.962,4.962,0,0,0-1.463,1.573v-6h-1v7.727H413.39a1.238,1.238,0,0,1-.527-.1.826.826,0,0,1-.33-.269,1,1,0,0,1-.165-.422,3.29,3.29,0,0,1-.043-.557v-2.351h-1v2.8a1.4,1.4,0,0,1-.067.484.54.54,0,0,1-.208.27.8.8,0,0,1-.349.116,4.338,4.338,0,0,1-.5.025h-2.829q-.551,0-.71-.215a1.257,1.257,0,0,1-.159-.728v-6.784h-1v7.053a2.222,2.222,0,0,0,.129.814,1.238,1.238,0,0,0,.906.8,2.972,2.972,0,0,0,.716.08h3.135a3.944,3.944,0,0,0,1.157-.147,1.1,1.1,0,0,0,.692-.649,1.081,1.081,0,0,0,.391.57,1.228,1.228,0,0,0,.771.226h9.662q.539,0,.936-.03a3.221,3.221,0,0,0,.68-.116,1.311,1.311,0,0,0,.466-.239,1.071,1.071,0,0,0,.294-.41q.073.148.165.294a.913.913,0,0,0,.245.257,1.232,1.232,0,0,0,.4.177,2.387,2.387,0,0,0,.625.067h6.612v-2.064a2.944,2.944,0,0,0-.679-2.076A2.486,2.486,0,0,0,430.875,245.385Zm-10.163,3.857h-4.934a6.378,6.378,0,0,1,.484-.98,4.782,4.782,0,0,1,.7-.912,3.765,3.765,0,0,1,.906-.68,2.272,2.272,0,0,1,1.09-.27,1.917,1.917,0,0,1,.826.16,1.468,1.468,0,0,1,.545.429,1.628,1.628,0,0,1,.294.643,3.528,3.528,0,0,1,.086.79Zm11.755,0h-5a5.86,5.86,0,0,1,.49-1.011,4.38,4.38,0,0,1,.728-.912,3.874,3.874,0,0,1,.93-.661,2.4,2.4,0,0,1,1.1-.257,2.022,2.022,0,0,1,.814.147,1.363,1.363,0,0,1,.545.416,1.7,1.7,0,0,1,.3.643,3.415,3.415,0,0,1,.092.814Z" transform="translate(-389.819 -226.505)"/>
          <path id="Path_86" data-name="Path 86" d="M450.682,243.3v5.939h-2.755v1.016h6.955v-8.743h-1v7.726h-2.192V243.3Z" transform="translate(-403.062 -226.505)"/>
          <rect id="Rectangle_6" data-name="Rectangle 6" width="1.004" height="8.743" transform="translate(53.534 15.01)"/>
          <path id="Path_87" data-name="Path 87" d="M470.286,251.257a1.162,1.162,0,0,1-.281-.79,1.22,1.22,0,0,1,.055-.361.825.825,0,0,1,.184-.318.965.965,0,0,1,.319-.226,1.144,1.144,0,0,1,.471-.086,2.178,2.178,0,0,1,.87.159v-.955a1.747,1.747,0,0,0-.355-.067,5.379,5.379,0,0,0-.612-.03,1.955,1.955,0,0,0-.667.116,1.717,1.717,0,0,0-.576.343,1.665,1.665,0,0,0-.4.576,2,2,0,0,0-.153.814,1.723,1.723,0,0,0,.4,1.152h-.894v.881h3.686v-.881H471.18A1.125,1.125,0,0,1,470.286,251.257Z" transform="translate(-409.527 -228.71)"/>
          <path id="Path_88" data-name="Path 88" d="M480.472,244.527a1.664,1.664,0,0,0-.153.226,2.182,2.182,0,0,0-.135.281,1.033,1.033,0,0,0-.074.3,12.35,12.35,0,0,1,1.322.74,10.617,10.617,0,0,1,1.133.833,5.007,5.007,0,0,1,.8.832,1.291,1.291,0,0,1,.3.729.628.628,0,0,1-.3.612,1.591,1.591,0,0,1-.753.16h-4.934q-.551,0-.71-.215a1.251,1.251,0,0,1-.16-.728v-6.784h-1v7.053a2.238,2.238,0,0,0,.128.814,1.312,1.312,0,0,0,.356.52,1.294,1.294,0,0,0,.551.275,2.972,2.972,0,0,0,.716.08h5.033a2.7,2.7,0,0,0,1.041-.171,1.655,1.655,0,0,0,.624-.429,1.394,1.394,0,0,0,.3-.563,2.22,2.22,0,0,0,.08-.563,2.085,2.085,0,0,0-.165-.777,3.134,3.134,0,0,0-.545-.851,7.3,7.3,0,0,0-.98-.918,12.569,12.569,0,0,0-1.457-.98l3.6-1.592v-.992l-4.482,1.972A.831.831,0,0,0,480.472,244.527Z" transform="translate(-411.761 -226.505)"/>
          <path id="Path_89" data-name="Path 89" d="M493.52,249.113a1.931,1.931,0,0,1-.79.129h-2.192v1.016H492.4q.294,0,.588-.024a2.272,2.272,0,0,0,.557-.117,1.362,1.362,0,0,0,.477-.288,1.441,1.441,0,0,0,.349-.526,2.292,2.292,0,0,0,.686.747,1.6,1.6,0,0,0,.845.208h2.914v-8.743h-1v7.727H495.9a.623.623,0,0,1-.325-.092,1.438,1.438,0,0,1-.318-.275,3.453,3.453,0,0,1-.349-.477q-.184-.294-.429-.7l-1.469-2.437-.942.587,1.3,1.923a5.058,5.058,0,0,1,.306.5.988.988,0,0,1,.122.465A.405.405,0,0,1,493.52,249.113Z" transform="translate(-416.36 -226.505)"/>
          <rect id="Rectangle_7" data-name="Rectangle 7" width="1.004" height="8.743" transform="translate(84.17 15.01)"/>
          <path id="Path_90" data-name="Path 90" d="M512.938,253.117a3.9,3.9,0,0,0,.246-1.5v-1.151a6.526,6.526,0,0,0-.117-1.28,2.913,2.913,0,0,0-.385-1,1.9,1.9,0,0,0-.717-.661,2.3,2.3,0,0,0-1.1-.239,2.348,2.348,0,0,0-1.041.221,2.249,2.249,0,0,0-.759.587,2.591,2.591,0,0,0-.466.839,2.993,2.993,0,0,0-.159.962,2.628,2.628,0,0,0,.177,1.028,1.74,1.74,0,0,0,.477.667,1.835,1.835,0,0,0,.711.361,3.4,3.4,0,0,0,.887.11,3.017,3.017,0,0,0,.882-.11,2.567,2.567,0,0,0,.575-.245v.233a1.75,1.75,0,0,1-.2.894,1.264,1.264,0,0,1-.545.5,2.445,2.445,0,0,1-.832.221q-.484.048-1.072.049h-.379v1.016h.514a8.153,8.153,0,0,0,1.482-.122,2.643,2.643,0,0,0,1.114-.459A2.159,2.159,0,0,0,512.938,253.117Zm-.783-2.43a1.825,1.825,0,0,1-.539.269,2.508,2.508,0,0,1-.82.122,1.55,1.55,0,0,1-.992-.3,1.2,1.2,0,0,1-.38-1,1.832,1.832,0,0,1,.08-.526,1.524,1.524,0,0,1,.245-.49,1.332,1.332,0,0,1,.429-.367,1.3,1.3,0,0,1,.643-.147,1.145,1.145,0,0,1,1.041.57,1.856,1.856,0,0,1,.226.631,4.3,4.3,0,0,1,.067.784Z" transform="translate(-421.948 -228.304)"/>
          <path id="Path_91" data-name="Path 91" d="M539.149,234.486h-1.041v1.273l1.041-.6Z" transform="translate(-431.206 -224.311)"/>
          <path id="Path_92" data-name="Path 92" d="M536.835,234.486h-1.041v1.273l1.041-.6Z" transform="translate(-430.484 -224.311)"/>
          <g id="Group_12" data-name="Group 12" transform="translate(94.119 0.979)">
            <path id="Path_93" data-name="Path 93" d="M522.88,221.118H521.84v1.273l1.041-.6Z" transform="translate(-520.248 -221.118)"/>
            <path id="Path_94" data-name="Path 94" d="M520.567,221.118h-1.041v1.273l1.041-.6Z" transform="translate(-519.526 -221.118)"/>
          </g>
          <g id="Group_13" data-name="Group 13" transform="translate(44.552 0.979)">
            <path id="Path_95" data-name="Path 95" d="M450.827,221.118h-1.041v1.273l1.041-.6Z" transform="translate(-448.195 -221.118)"/>
            <path id="Path_96" data-name="Path 96" d="M448.513,221.118h-1.041v1.273l1.041-.6Z" transform="translate(-447.472 -221.118)"/>
          </g>
          <g id="Group_14" data-name="Group 14" transform="translate(51.25 10.163)">
            <path id="Path_97" data-name="Path 97" d="M460.563,234.469h-1.041v1.273l1.041-.6Z" transform="translate(-457.931 -234.469)"/>
            <path id="Path_98" data-name="Path 98" d="M458.249,234.469h-1.041v1.273l1.041-.6Z" transform="translate(-457.209 -234.469)"/>
          </g>
          <g id="Group_15" data-name="Group 15" transform="translate(25.059 10.163)">
            <path id="Path_99" data-name="Path 99" d="M422.49,234.469h-1.041v1.273l1.041-.6Z" transform="translate(-419.858 -234.469)"/>
            <path id="Path_100" data-name="Path 100" d="M420.176,234.469h-1.041v1.273l1.041-.6Z" transform="translate(-419.135 -234.469)"/>
          </g>
          <path id="Path_101" data-name="Path 101" d="M426.9,234.469h-1.041v1.273l1.041-.6Z" transform="translate(-396.176 -224.306)"/>
          <path id="Path_102" data-name="Path 102" d="M493.8,243.437h-1.041v1.273l1.041-.6Z" transform="translate(-417.052 -227.105)"/>
          <path id="Path_103" data-name="Path 103" d="M415.032,243.437h-1.041v1.273l1.041-.6Z" transform="translate(-392.471 -227.105)"/>
          <g id="Group_16" data-name="Group 16" transform="translate(3.704 2.265)">
            <path id="Path_104" data-name="Path 104" d="M391.447,222.988h-1.041v1.273l1.041-.6Z" transform="translate(-388.815 -222.988)"/>
            <path id="Path_105" data-name="Path 105" d="M389.133,222.988h-1.041v1.273l1.041-.6Z" transform="translate(-388.093 -222.988)"/>
          </g>
          <g id="Group_17" data-name="Group 17" transform="translate(2.688 27.411)">
            <path id="Path_106" data-name="Path 106" d="M389.97,259.541h-1.041v1.273l1.041-.6Z" transform="translate(-387.337 -259.541)"/>
            <path id="Path_107" data-name="Path 107" d="M387.656,259.541h-1.041v1.273l1.041-.6Z" transform="translate(-386.615 -259.541)"/>
          </g>
          <path id="Path_108" data-name="Path 108" d="M408.927,221.937h-1.041v1.273l1.041-.6Z" transform="translate(-390.566 -220.395)"/>
        </g>
      </g>
      <g id="Group_20" data-name="Group 20">
        <path id="Path_109" data-name="Path 109" d="M435.968,169.325h-11.4v27.583h11.4c9.477,0,15.8-5.51,15.8-13.791S445.445,169.325,435.968,169.325Zm0,21.341h-3.312v-15.1h3.312c4.431,0,7.437,2.97,7.437,7.554S440.4,190.666,435.968,190.666Z" transform="translate(-395.592 -168.361)"/>
        <path id="Path_110" data-name="Path 110" d="M485.86,169.325H473.687l-8.632,27.583H473.8l1.569-5.393,7.674-4.431h-6.511l3.239-10.709,3.272,10.709,2.7,9.823h8.749Z" transform="translate(-408.228 -168.361)"/>
        <path id="Path_111" data-name="Path 111" d="M549.681,169.325H537.508l-8.632,27.583h8.749l1.569-5.393,7.674-4.431h-6.511l3.239-10.709,3.272,10.709,2.7,9.823h8.749Z" transform="translate(-428.145 -168.361)"/>
        <path id="Path_112" data-name="Path 112" d="M512.276,174.15v22.758h8.358V169.325Z" transform="translate(-422.964 -168.361)"/>
        <path id="Path_113" data-name="Path 113" d="M396.049,179.059c-3.047-.346-5.357-.656-5.357-2.62,0-1.465,1.618-2.543,3.968-2.543,2.733,0,4.771,1.537,4.737,3.654l6.222-3.592c-1.671-3.645-5.868-6.033-11.228-6.033-6.9,0-11.792,3.775-11.792,9.441,0,6.511,5.32,7.936,11.018,8.591,2.93.382,5.357.693,5.357,2.7,0,1.654-1.618,2.813-4.045,2.813-3,0-5.2-1.73-5.239-4.072v-.012h-7.244a9.166,9.166,0,0,0,.781,3.743c1.69,3.8,5.98,6.31,11.432,6.31,7.28,0,12.4-4,12.4-9.86C407.063,181.063,401.558,179.639,396.049,179.059Z" transform="translate(-382.447 -167.924)"/>
      </g>
    </g>
  </g>
</svg>
