<?xml version="1.0" encoding="utf-8"?>
<!-- Generator: Adobe Illustrator 19.2.1, SVG Export Plug-In . SVG Version: 6.00 Build 0)  -->
<svg version="1.1" id="layer" xmlns="http://www.w3.org/2000/svg" xmlns:xlink="http://www.w3.org/1999/xlink" x="0px" y="0px"
	 viewBox="0 0 652 652" style="enable-background:new 0 0 652 652;" xml:space="preserve">
<style type="text/css">
	.st0{fill:#FFFFFF;}
	.st1{fill:#FFC904;}
</style>
<path d="M164.1,305.4v-13.1h4v13c0,4.2,2.2,6.5,5.8,6.5c3.6,0,5.7-2.1,5.7-6.3v-13.1h4v12.9c0,6.8-3.8,10.2-9.8,10.2
	C167.9,315.4,164.1,312,164.1,305.4 M198.9,315.1h3.9v-16.2l12.6,16.2h3.4v-22.8h-3.9V308l-12.2-15.8h-3.7V315.1z M234.7,315.1h4
	v-22.8h-4V315.1z M262.1,315.2h3.6l9.5-23h-4.3l-6.9,17.5l-6.9-17.5h-4.4L262.1,315.2z M288.8,315.1h17.1v-3.6h-13.1v-6.1h11.5v-3.6
	h-11.5v-5.9h12.9v-3.6h-16.9V315.1z M320.4,315.1h4v-8h5l5.6,8h4.8l-6.2-8.6c3.2-0.9,5.4-3.2,5.4-6.9v-0.1c0-2-0.7-3.7-1.9-4.9
	c-1.5-1.4-3.7-2.3-6.6-2.3h-10.2V315.1z M324.4,303.6v-7.7h5.8c3,0,4.7,1.3,4.7,3.8v0.1c0,2.3-1.8,3.8-4.7,3.8H324.4z M352.2,311.7
	c2.7,2.4,6,3.7,9.5,3.7c4.8,0,8.2-2.5,8.2-6.8v-0.1c0-3.8-2.5-5.5-7.3-6.7c-4.4-1-5.4-1.8-5.4-3.6v-0.1c0-1.5,1.4-2.7,3.7-2.7
	c2.1,0,4.1,0.8,6.2,2.3l2.2-3c-2.3-1.9-5-2.9-8.3-2.9c-4.5,0-7.8,2.7-7.8,6.6v0.1c0,4.2,2.7,5.6,7.6,6.8c4.2,1,5.2,1.9,5.2,3.5v0.1
	c0,1.7-1.6,2.9-4,2.9c-2.8,0-5-1.1-7.2-3L352.2,311.7 M384.6,315.1h4v-22.8h-4V315.1z M410.1,315.1h4V296h7.2v-3.7h-18.5v3.7h7.2
	V315.1z M442.2,315.1h4V306l9.1-13.7h-4.6l-6.5,10.1l-6.4-10.1h-4.8l9.1,13.8V315.1z M487.1,303.7c0,6.4,4.9,11.7,11.9,11.7
	c7,0,12-5.4,12-11.8v-0.1c0-6.4-4.9-11.7-11.9-11.7C492.1,291.8,487.1,297.2,487.1,303.7L487.1,303.7 M506.8,303.7
	c0,4.4-3.2,8-7.7,8c-4.5,0-7.8-3.7-7.8-8.1v-0.1c0-4.4,3.2-8.1,7.7-8.1C503.6,295.5,506.8,299.2,506.8,303.7L506.8,303.7
	 M525.6,315.1h4v-9.3h11.5v-3.7h-11.5v-6.2h13v-3.7h-17V315.1z M164.1,349.4c0,6.6,4.9,11.7,11.6,11.7c4.3,0,6.9-1.6,9.3-4l-2.6-2.6
	c-2,1.8-3.8,2.9-6.6,2.9c-4.4,0-7.5-3.6-7.5-8.1v-0.1c0-4.5,3.2-8.1,7.5-8.1c2.6,0,4.6,1.1,6.4,2.8l2.6-3c-2.2-2.1-4.7-3.6-8.9-3.6
	C168.9,337.5,164.1,342.8,164.1,349.4L164.1,349.4 M198.9,360.7H216v-3.6h-13.1V351h11.4v-3.6h-11.4v-5.9h12.9v-3.6h-16.9V360.7z
	 M230.6,360.7h3.9v-16.2l12.6,16.2h3.4v-22.8h-3.9v15.8l-12.2-15.8h-3.7V360.7z M271.7,360.7h4v-19.1h7.2v-3.7h-18.5v3.7h7.2V360.7z
	 M297,360.7h4v-8h5l5.6,8h4.8l-6.2-8.6c3.2-0.9,5.4-3.2,5.4-6.9v-0.1c0-2-0.7-3.7-1.9-4.9c-1.5-1.4-3.7-2.3-6.6-2.3H297V360.7z
	 M301,349.2v-7.7h5.8c3,0,4.7,1.3,4.7,3.8v0.1c0,2.3-1.8,3.8-4.7,3.8H301z M328.4,360.7h4.1l2.3-5.5h10.8l2.3,5.5h4.2l-10-23h-3.7
	L328.4,360.7z M336.3,351.6l3.9-9.1l3.9,9.1H336.3z M365.9,360.7h16v-3.7h-12v-19.2h-4V360.7z M415.4,360.7h4v-9.3h11.5v-3.7h-11.5
	v-6.2h13v-3.7h-17V360.7z M446.6,360.7h16v-3.7h-12v-19.2h-4V360.7z M474.2,349.4c0,6.4,4.9,11.7,11.9,11.7c7,0,12-5.4,12-11.8v-0.1
	c0-6.4-4.9-11.7-11.9-11.7C479.2,337.5,474.2,342.9,474.2,349.4L474.2,349.4 M493.9,349.4c0,4.4-3.2,8-7.7,8c-4.5,0-7.8-3.7-7.8-8.1
	v-0.1c0-4.4,3.2-8.1,7.7-8.1C490.7,341.2,493.9,344.9,493.9,349.4L493.9,349.4 M512.7,360.7h4v-8h5l5.6,8h4.8l-6.2-8.6
	c3.2-0.9,5.4-3.2,5.4-6.9v-0.1c0-2-0.7-3.7-1.9-4.9c-1.5-1.4-3.7-2.3-6.6-2.3h-10.2V360.7z M516.7,349.2v-7.7h5.8
	c3,0,4.7,1.3,4.7,3.8v0.1c0,2.3-1.8,3.8-4.7,3.8H516.7z M546.3,360.7h4v-22.8h-4V360.7z M566.2,360.7h8.5c7.2,0,12.1-5,12.1-11.4
	v-0.1c0-6.4-5-11.3-12.1-11.3h-8.5V360.7z M574.7,341.5c4.8,0,7.9,3.3,7.9,7.8v0.1c0,4.5-3.1,7.7-7.9,7.7h-4.5v-15.5H574.7z
	 M597.9,360.7h4.1l2.3-5.5h10.8l2.3,5.5h4.2l-10-23H608L597.9,360.7z M605.9,351.6l3.9-9.1l3.9,9.1H605.9z"/>
<rect x="21.7" y="251.5" width="103" height="138.8"/>
<path class="st0" d="M41.5,362.5v-12.4h4.8v12.3c0,3.5,1.8,5.4,4.7,5.4c2.9,0,4.7-1.8,4.7-5.2v-12.4h4.8v12.2c0,6.6-3.7,9.8-9.5,9.8
	C45,372.1,41.5,368.9,41.5,362.5 M65.2,361c0,6.2,4.7,11.1,11.1,11.1c4.2,0,6.7-1.5,8.9-3.9l-3-3.1c-1.7,1.5-3.2,2.5-5.7,2.5
	c-3.7,0-6.3-3.1-6.3-6.8v-0.1c0-3.7,2.6-6.7,6.3-6.7c2.2,0,3.9,0.9,5.5,2.4l3-3.5c-2-2-4.5-3.3-8.5-3.3
	C69.8,349.7,65.2,354.8,65.2,361L65.2,361 M89.9,371.8h4.8v-8.4H105v-4.3H94.7v-4.6h11.7v-4.3H89.9V371.8z"/>
<path class="st1" d="M86.2,326.6c0-1.8-0.4-3.5-1.2-5.2c-1.5-3.1-6.5-5.4-11.3-7.6c-2.3-1.1-4.7-2.1-6.5-3.3
	c-8.9-5.4-11.8-12-12.7-16.5c-0.2-1.2-0.4-2.5-0.4-3.8c0-3.9,1.2-7.6,3.3-10.5c8.4-11.2,22.6-9.9,26.7-9.3
	c-4.1,0.2-14.2,2-19.1,11.6c-1,1.9-1.4,3.8-1.4,5.8c0,7.9,8,14.6,14.5,20.1c2.2,1.9,4.3,3.7,5.9,5.3c2.9,3,4.3,6.2,4.3,9.5
	c0,3.8-2,6.9-3.2,8.4C85.9,329.7,86.2,328.2,86.2,326.6 M46.8,322c3.2,4.8,11.5,14.9,24.9,14.7c4.5,0,6.4-1.6,6.8-3.1l0.1-0.6
	c0-1-0.6-1.9-1.7-2.5c-1.3-0.7-3.4-0.8-6-0.8c-2.9-0.1-6.5-0.2-10.4-1.2C52.9,326.4,48.8,323.7,46.8,322 M70.9,299c0,0,4.6,5,9,8.6
	c7.8,6.4,9.3,10.5,9.7,14.1c0.6,5.4-3.1,9.9-3.1,9.9s5.9-5.1,9.5-11.4c3-5.2,4.7-13.2,4.7-13.2l0.5,12.2h-1.9l-1.6,5.3
	c0,0,0,0.2,2.9-0.7c2.9-0.8,2.9-3,2.9-3l1-17.3c0,0-2.6-2.8-3.3-3.3c-0.7-0.5-1.4,1.2-1.4,1.2s-2.3,3.1-7.1,5.6
	c-4.5,2.3-7.1-3.1-7.3-4.5c-0.2-1.3-0.2-5.4,2.9-4.8c3.1,0.7,4.7,6.6,4.7,6.6s0.2,0.3,2.6-1.3c2.4-1.7,1.9-3,1.9-3l-2.9-14.5
	l-1.9,3.8c0,0-3.8-3-10.7-1.2C76.4,289.7,70.9,299,70.9,299 M79.9,332.7c0,0-0.1,0.7-0.2,1c1.1-1.5,1.7-2.9,1.7-4.3l-0.2-1.2
	c-0.7-2.7-4.1-4.8-9.9-6.2c-8.6-2-15.3-4.9-19.7-8.6c-7-5.8-8-13.9-8-18.2c0,0,0-1,0.1-1.6c-0.7,2-1.7,5.8-1.7,10.4
	c0,4.1,0.8,7.9,2.3,11.4c4.7,11,21.3,12.7,28.2,13c3.8,0.1,6.2,1,7,2.7C79.8,331.6,79.9,332.2,79.9,332.7 M83,329.6
	c0,1-0.2,1.8-0.4,2.4c0.9-1.2,2.3-3.4,2.3-6c0-1.3-0.3-2.7-1.2-4.1c-1.7-2.9-6-4.8-10.6-6.9c-3.2-1.4-6.5-2.9-8.9-4.8
	c-7.7-5.9-11.6-12.3-11.6-19.7c0-1,0.1-2,0.2-3.1c0.8-5.8,5-10.4,7-12.2c-3.7,1.9-14.6,8.6-14.6,21c0,1.9,0.3,4,0.9,6.3
	c2.5,9,10.9,15,25.9,18.3c5.7,1.2,9.2,3.4,10.5,6.3C82.8,328,83,328.8,83,329.6 M82.5,278.8c-2.4,0-4.7-2.2-4.7-4.7
	c0,2.4-2.2,4.7-4.7,4.7c2.4,0,4.7,2.3,4.7,4.7C77.9,281,80.1,278.8,82.5,278.8"/>
</svg>
